%FSLAX34Y34*%
%MOMM*%
%LNSILK_BOTTOM_*%
G71*
G01*
%ADD10C, 0.10*%
%ADD11C, 0.17*%
%ADD12C, 0.05*%
%ADD13C, 0.06*%
%ADD14C, 0.30*%
%ADD15C, 0.07*%
%ADD16C, 0.15*%
%ADD17C, 0.09*%
%ADD18C, 0.11*%
%ADD19C, 0.44*%
%ADD20C, 0.13*%
%ADD21C, 0.18*%
%ADD22C, 0.03*%
%LPD*%
G54D10*
X946524Y540010D02*
X946524Y978160D01*
G54D10*
X946524Y978160D02*
X1127499Y978160D01*
G54D10*
X1127499Y978160D02*
X1127499Y540010D01*
G54D10*
X1127499Y540010D02*
X946524Y540010D01*
G54D10*
X998912Y999194D02*
X1075112Y999194D01*
G54D10*
X1075112Y999194D02*
X1075112Y978160D01*
G54D10*
X998912Y999194D02*
X998912Y978160D01*
G54D11*
X1021993Y995303D02*
X1021993Y984470D01*
X1022993Y982803D01*
X1024993Y981970D01*
X1026993Y981970D01*
X1028993Y982803D01*
X1029993Y984470D01*
X1029993Y995303D01*
G54D11*
X1033660Y984470D02*
X1034660Y982803D01*
X1036660Y981970D01*
X1038660Y981970D01*
X1040660Y982803D01*
X1041660Y984470D01*
X1041660Y986136D01*
X1040660Y987803D01*
X1038660Y988636D01*
X1036660Y988636D01*
X1034660Y989470D01*
X1033660Y991136D01*
X1033660Y992803D01*
X1034660Y994470D01*
X1036660Y995303D01*
X1038660Y995303D01*
X1040660Y994470D01*
X1041660Y992803D01*
G54D11*
X1045327Y981970D02*
X1045327Y995303D01*
X1050327Y995303D01*
X1052327Y994470D01*
X1053327Y992803D01*
X1053327Y991136D01*
X1052327Y989470D01*
X1050327Y988636D01*
X1052327Y987803D01*
X1053327Y986136D01*
X1053327Y984470D01*
X1052327Y982803D01*
X1050327Y981970D01*
X1045327Y981970D01*
G54D11*
X1045327Y988636D02*
X1050327Y988636D01*
G54D10*
X855500Y924500D02*
X682500Y924500D01*
X682500Y701500D01*
G54D10*
X682500Y701500D02*
X855500Y701500D01*
X855500Y924500D01*
G54D10*
X809000Y934500D02*
X729000Y934500D01*
X729000Y924500D01*
G54D10*
X809000Y934500D02*
X809000Y924500D01*
G54D10*
X487500Y677500D02*
X671500Y677500D01*
X671500Y933500D01*
G54D10*
X671500Y933500D02*
X487500Y933500D01*
X487500Y677500D01*
G54D12*
X1265500Y729000D02*
X1265500Y581000D01*
G54D12*
X1265500Y581000D02*
X1366500Y581000D01*
G54D12*
X1265500Y729000D02*
X1366500Y729000D01*
G54D12*
X1366000Y729000D02*
X1410000Y729000D01*
X1410000Y581000D01*
X1366000Y581000D01*
G54D13*
X1324092Y675073D02*
X1326592Y675073D01*
G54D13*
X1327426Y675073D02*
X1327426Y675073D01*
G54D13*
X1324092Y673851D02*
X1326592Y673851D01*
G54D13*
X1326037Y673851D02*
X1326426Y673518D01*
X1326592Y672851D01*
X1326426Y672185D01*
X1326037Y671851D01*
X1324092Y671851D01*
G54D13*
X1324092Y670629D02*
X1328537Y670629D01*
G54D13*
X1325759Y669629D02*
X1324092Y668629D01*
G54D13*
X1325203Y670629D02*
X1326592Y668629D01*
G54D13*
X1324092Y667407D02*
X1328537Y667407D01*
G54D13*
X1324092Y666185D02*
X1324092Y666185D01*
G54D13*
X1324926Y663674D02*
X1324370Y663341D01*
X1324092Y662674D01*
X1324092Y662008D01*
X1324370Y661341D01*
X1324926Y661008D01*
X1325481Y661008D01*
X1326037Y661341D01*
X1326314Y662008D01*
X1326314Y662674D01*
X1326592Y663341D01*
X1327148Y663674D01*
X1327703Y663674D01*
X1328259Y663341D01*
X1328537Y662674D01*
X1328537Y662008D01*
X1328259Y661341D01*
X1327703Y661008D01*
G54D13*
X1324092Y659785D02*
X1328537Y659785D01*
X1328537Y658119D01*
X1328259Y657452D01*
X1327703Y657119D01*
X1324926Y657119D01*
X1324370Y657452D01*
X1324092Y658119D01*
X1324092Y659785D01*
G54D13*
X1326592Y655896D02*
X1326592Y653230D01*
G54D13*
X1325481Y655896D02*
X1325481Y653230D01*
G54D13*
X1326870Y652007D02*
X1328537Y650341D01*
X1324092Y650341D01*
G54D13*
X1328537Y649118D02*
X1328537Y646452D01*
X1327981Y646785D01*
X1327148Y647452D01*
X1326037Y648118D01*
X1325203Y648452D01*
X1324092Y648452D01*
G54D13*
X1324092Y644563D02*
X1323537Y644563D01*
X1322981Y644896D01*
X1322981Y645229D01*
G54D13*
X1326870Y643340D02*
X1328537Y641674D01*
X1324092Y641674D01*
G54D13*
X1324092Y640451D02*
X1326592Y640451D01*
G54D13*
X1326148Y640451D02*
X1326592Y639785D01*
X1326426Y639118D01*
X1326037Y638785D01*
X1324092Y638785D01*
G54D13*
X1326148Y638785D02*
X1326592Y638118D01*
X1326426Y637451D01*
X1326037Y637118D01*
X1324092Y637118D01*
G54D13*
X1324092Y635896D02*
X1326592Y635896D01*
G54D13*
X1326148Y635896D02*
X1326592Y635230D01*
X1326426Y634563D01*
X1326037Y634230D01*
X1324092Y634230D01*
G54D13*
X1326148Y634230D02*
X1326592Y633563D01*
X1326426Y632896D01*
X1326037Y632563D01*
X1324092Y632563D01*
G54D14*
X1254092Y726063D02*
X1264092Y716063D01*
G54D14*
X1254092Y716063D02*
X1264092Y726063D01*
G54D15*
X1268625Y696375D02*
X1268625Y701708D01*
X1270625Y701708D01*
X1271425Y701375D01*
X1271825Y700708D01*
X1271825Y697375D01*
X1271425Y696708D01*
X1270625Y696375D01*
X1268625Y696375D01*
G54D15*
X1276492Y700708D02*
X1276492Y697375D01*
X1276092Y696708D01*
X1275292Y696375D01*
X1274492Y696375D01*
X1273692Y696708D01*
X1273292Y697375D01*
X1273292Y700708D01*
X1273692Y701375D01*
X1274492Y701708D01*
X1275292Y701708D01*
X1276092Y701375D01*
X1276492Y700708D01*
G54D15*
X1268625Y690708D02*
X1270625Y685375D01*
X1272625Y690708D01*
G54D15*
X1274092Y685708D02*
X1274892Y685375D01*
X1275692Y685375D01*
X1276492Y685708D01*
X1276492Y686375D01*
X1276092Y686708D01*
X1274492Y687042D01*
X1274092Y687375D01*
X1274092Y688042D01*
X1274892Y688375D01*
X1275692Y688375D01*
X1276492Y688042D01*
G54D15*
X1277959Y685708D02*
X1278759Y685375D01*
X1279559Y685375D01*
X1280359Y685708D01*
X1280359Y686375D01*
X1279959Y686708D01*
X1278359Y687042D01*
X1277959Y687375D01*
X1277959Y688042D01*
X1278759Y688375D01*
X1279559Y688375D01*
X1280359Y688042D01*
G54D15*
X1271825Y675375D02*
X1271425Y674708D01*
X1270625Y674375D01*
X1269825Y674375D01*
X1269025Y674708D01*
X1268625Y675375D01*
X1268625Y678708D01*
X1269025Y679375D01*
X1269825Y679708D01*
X1270625Y679708D01*
X1271425Y679375D01*
X1271825Y678708D01*
G54D15*
X1273292Y674375D02*
X1273292Y679708D01*
G54D15*
X1274759Y674375D02*
X1274759Y679708D01*
G54D15*
X1275959Y676375D02*
X1277159Y674375D01*
G54D15*
X1274759Y675708D02*
X1277159Y677375D01*
G54D15*
X1268625Y668708D02*
X1270625Y663375D01*
X1272625Y668708D01*
G54D15*
X1276492Y663375D02*
X1276492Y668708D01*
G54D15*
X1276492Y665508D02*
X1276092Y666175D01*
X1275292Y666375D01*
X1274492Y666175D01*
X1274092Y665508D01*
X1274092Y664175D01*
X1274492Y663508D01*
X1275292Y663375D01*
X1276092Y663508D01*
X1276492Y664175D01*
G54D15*
X1280359Y663375D02*
X1280359Y668708D01*
G54D15*
X1280359Y665508D02*
X1279959Y666175D01*
X1279159Y666375D01*
X1278359Y666175D01*
X1277959Y665508D01*
X1277959Y664175D01*
X1278359Y663508D01*
X1279159Y663375D01*
X1279959Y663508D01*
X1280359Y664175D01*
G54D15*
X1268625Y652375D02*
X1268625Y657708D01*
X1270625Y657708D01*
X1271425Y657375D01*
X1271825Y656708D01*
X1271825Y653375D01*
X1271425Y652708D01*
X1270625Y652375D01*
X1268625Y652375D01*
G54D15*
X1273292Y652375D02*
X1273292Y655375D01*
G54D15*
X1273292Y656375D02*
X1273292Y656375D01*
G54D15*
X1271825Y642375D02*
X1271425Y641708D01*
X1270625Y641375D01*
X1269825Y641375D01*
X1269025Y641708D01*
X1268625Y642375D01*
X1268625Y645708D01*
X1269025Y646375D01*
X1269825Y646708D01*
X1270625Y646708D01*
X1271425Y646375D01*
X1271825Y645708D01*
G54D15*
X1273292Y642375D02*
X1273692Y641708D01*
X1274492Y641375D01*
X1275292Y641375D01*
X1276092Y641708D01*
X1276492Y642375D01*
X1276492Y643042D01*
X1276092Y643708D01*
X1275292Y644042D01*
X1274492Y644042D01*
X1273692Y644375D01*
X1273292Y645042D01*
X1273292Y645708D01*
X1273692Y646375D01*
X1274492Y646708D01*
X1275292Y646708D01*
X1276092Y646375D01*
X1276492Y645708D01*
G54D12*
X1265500Y729000D02*
X1436500Y729000D01*
X1436500Y581000D01*
X1265500Y581000D01*
G54D10*
X1139612Y969194D02*
X1226612Y969194D01*
X1226612Y899194D01*
X1139612Y899194D01*
X1139612Y969194D01*
G54D10*
X1139612Y934194D02*
X1226612Y934194D01*
X1226612Y899194D01*
G54D10*
X1183112Y964894D02*
X1183112Y958894D01*
X1178112Y958894D01*
X1188112Y958894D01*
G54D10*
X1178112Y958894D02*
X1178112Y962894D01*
G54D10*
X1163112Y958894D02*
X1175112Y958894D01*
X1179112Y962894D01*
G54D10*
X1203162Y958894D02*
X1193162Y958894D01*
X1189162Y962894D01*
G54D10*
X1183112Y911494D02*
X1183112Y905494D01*
X1178112Y905494D01*
X1188112Y905494D01*
G54D10*
X1178112Y905494D02*
X1178112Y909494D01*
G54D10*
X1163112Y905494D02*
X1175112Y905494D01*
X1179112Y909494D01*
G54D10*
X1203162Y905494D02*
X1193162Y905494D01*
X1189162Y909494D01*
G54D10*
X1161112Y969194D02*
X1161112Y999194D01*
X1205112Y999194D01*
X1205112Y969194D01*
G54D16*
X891989Y877085D02*
X891988Y895085D01*
X925988Y895085D01*
X925988Y877085D01*
X891989Y877085D01*
G54D15*
X900488Y885752D02*
X899688Y885752D01*
X898888Y886085D01*
X898488Y886752D01*
X898488Y887418D01*
X898888Y888085D01*
X899688Y888418D01*
X900488Y888418D01*
X901288Y888085D01*
X901688Y887418D01*
X901688Y886752D01*
X901288Y886085D01*
X900488Y885752D01*
X901288Y885418D01*
X901688Y884752D01*
X901688Y884085D01*
X901288Y883418D01*
X900488Y883085D01*
X899688Y883085D01*
X898888Y883418D01*
X898488Y884085D01*
X898488Y884752D01*
X898888Y885418D01*
X899688Y885752D01*
G54D15*
X906355Y888418D02*
X903155Y888418D01*
X903155Y886085D01*
X903555Y886085D01*
X904355Y886418D01*
X905155Y886418D01*
X905955Y886085D01*
X906355Y885418D01*
X906355Y884085D01*
X905955Y883418D01*
X905155Y883085D01*
X904355Y883085D01*
X903555Y883418D01*
X903155Y884085D01*
G54D15*
X909422Y885752D02*
X910622Y885085D01*
X911022Y884418D01*
X911022Y883085D01*
G54D15*
X907822Y883085D02*
X907822Y888418D01*
X909822Y888418D01*
X910622Y888085D01*
X911022Y887418D01*
X911022Y886752D01*
X910622Y886085D01*
X909822Y885752D01*
X907822Y885752D01*
G54D16*
X1335184Y506434D02*
X1300184Y506434D01*
X1300184Y571434D01*
X1335184Y571434D01*
X1335184Y506434D01*
G54D17*
X1310670Y567118D02*
X1303559Y564451D01*
X1310670Y561785D01*
G54D17*
X1303559Y559829D02*
X1307559Y559829D01*
G54D17*
X1308893Y559829D02*
X1308893Y559829D01*
G54D17*
X1303559Y557873D02*
X1307559Y557873D01*
G54D17*
X1306670Y557873D02*
X1307293Y557340D01*
X1307559Y556273D01*
X1307292Y555206D01*
X1306670Y554673D01*
X1303559Y554673D01*
G54D17*
X1309604Y548198D02*
X1302492Y545531D01*
X1309604Y542865D01*
G54D17*
X1303559Y537709D02*
X1305337Y537709D01*
X1306226Y538242D01*
X1306493Y539309D01*
X1306226Y540376D01*
X1305337Y540909D01*
X1303559Y540909D01*
X1302670Y540376D01*
X1302492Y539309D01*
X1302670Y538242D01*
X1303559Y537709D01*
G54D17*
X1306492Y532553D02*
X1302492Y532553D01*
G54D17*
X1303381Y532553D02*
X1302670Y533086D01*
X1302492Y534153D01*
X1302670Y535220D01*
X1303381Y535753D01*
X1306493Y535753D01*
G54D17*
X1309604Y529530D02*
X1302937Y529530D01*
X1302493Y528997D01*
X1302670Y528464D01*
G54D17*
X1306492Y530597D02*
X1306492Y528464D01*
G54D17*
X1306346Y523307D02*
X1306346Y521174D01*
X1304124Y521174D01*
X1303235Y521707D01*
X1302790Y522774D01*
X1302790Y523840D01*
X1303235Y524907D01*
X1304124Y525440D01*
X1308568Y525440D01*
X1309457Y524907D01*
X1309902Y523840D01*
X1309902Y522774D01*
X1309457Y521707D01*
X1308568Y521174D01*
G54D17*
X1302790Y519217D02*
X1309902Y519217D01*
X1302790Y514951D01*
X1309902Y514951D01*
G54D17*
X1302790Y512994D02*
X1309902Y512994D01*
X1309902Y510328D01*
X1309457Y509261D01*
X1308568Y508728D01*
X1304124Y508728D01*
X1303235Y509261D01*
X1302790Y510328D01*
X1302790Y512994D01*
G54D17*
X1325016Y568318D02*
X1332127Y565651D01*
X1325016Y562985D01*
G54D17*
X1327682Y567252D02*
X1327682Y564051D01*
G54D17*
X1325015Y561029D02*
X1332126Y561029D01*
X1327682Y558362D01*
X1332126Y555696D01*
X1325016Y555696D01*
G54D17*
X1326349Y553740D02*
X1325460Y553207D01*
X1325015Y552140D01*
X1325016Y551074D01*
X1325460Y550007D01*
X1326349Y549474D01*
X1327238Y549474D01*
X1328127Y550007D01*
X1328571Y551074D01*
X1328571Y552140D01*
X1329015Y553207D01*
X1329904Y553740D01*
X1330793Y553740D01*
X1331682Y553207D01*
X1332127Y552140D01*
X1332126Y551074D01*
X1331682Y550007D01*
X1330793Y549474D01*
G54D17*
X1329460Y547517D02*
X1332127Y544850D01*
X1325015Y544850D01*
G54D17*
X1329460Y542894D02*
X1332126Y540228D01*
X1325016Y540228D01*
G54D17*
X1329460Y538271D02*
X1332126Y535604D01*
X1325016Y535604D01*
G54D17*
X1332126Y533648D02*
X1332127Y529382D01*
X1331238Y529915D01*
X1329904Y530982D01*
X1328127Y532048D01*
X1326793Y532581D01*
X1325015Y532582D01*
G54D17*
X1328127Y527425D02*
X1328127Y523158D01*
G54D17*
X1330793Y521202D02*
X1331682Y520669D01*
X1332127Y519602D01*
X1332126Y518536D01*
X1331682Y517469D01*
X1330793Y516936D01*
X1329904Y516936D01*
X1329016Y517469D01*
X1328571Y518536D01*
X1328127Y517469D01*
X1327238Y516936D01*
X1326349Y516936D01*
X1325460Y517469D01*
X1325015Y518536D01*
X1325016Y519602D01*
X1325460Y520669D01*
X1326349Y521202D01*
G54D17*
X1325016Y514979D02*
X1325016Y514979D01*
G54D17*
X1330793Y513023D02*
X1331682Y512490D01*
X1332126Y511423D01*
X1332126Y510356D01*
X1331682Y509290D01*
X1330793Y508756D01*
X1329904Y508757D01*
X1329015Y509290D01*
X1328571Y510356D01*
X1328127Y509290D01*
X1327238Y508756D01*
X1326349Y508757D01*
X1325460Y509290D01*
X1325016Y510356D01*
X1325015Y511423D01*
X1325460Y512490D01*
X1326349Y513023D01*
G54D16*
X1261500Y581000D02*
X1279500Y581000D01*
X1279500Y547000D01*
X1261500Y547000D01*
X1261500Y581000D01*
G54D17*
X1271519Y578275D02*
X1274186Y575608D01*
X1267075Y575608D01*
G54D17*
X1272853Y569385D02*
X1268408Y569385D01*
X1267520Y569919D01*
X1267075Y570985D01*
X1267075Y572052D01*
X1267520Y573119D01*
X1268408Y573652D01*
X1272853Y573652D01*
X1273742Y573119D01*
X1274186Y572052D01*
X1274186Y570985D01*
X1273742Y569919D01*
X1272853Y569385D01*
G54D17*
X1272853Y563162D02*
X1268408Y563162D01*
X1267519Y563696D01*
X1267075Y564762D01*
X1267075Y565829D01*
X1267519Y566896D01*
X1268408Y567429D01*
X1272853Y567429D01*
X1273742Y566896D01*
X1274186Y565829D01*
X1274186Y564762D01*
X1273742Y563696D01*
X1272853Y563162D01*
G54D17*
X1267075Y561206D02*
X1271075Y561206D01*
G54D17*
X1270186Y561206D02*
X1270808Y560673D01*
X1271075Y559606D01*
X1270808Y558539D01*
X1270186Y558006D01*
X1267075Y558006D01*
G54D17*
X1267075Y556050D02*
X1274186Y556050D01*
X1274186Y552317D01*
G54D17*
X1270631Y556050D02*
X1270631Y552317D01*
G54D16*
X1261500Y542000D02*
X1279500Y542000D01*
X1279500Y508000D01*
X1261500Y508000D01*
X1261500Y542000D01*
G54D17*
X1271519Y539275D02*
X1274186Y536608D01*
X1267075Y536608D01*
G54D17*
X1272853Y530385D02*
X1268408Y530386D01*
X1267520Y530918D01*
X1267075Y531986D01*
X1267075Y533052D01*
X1267520Y534118D01*
X1268408Y534652D01*
X1272853Y534652D01*
X1273742Y534119D01*
X1274186Y533052D01*
X1274186Y531985D01*
X1273742Y530919D01*
X1272853Y530385D01*
G54D17*
X1272853Y524162D02*
X1268408Y524162D01*
X1267519Y524696D01*
X1267075Y525762D01*
X1267075Y526829D01*
X1267519Y527896D01*
X1268408Y528429D01*
X1272853Y528429D01*
X1273742Y527896D01*
X1274186Y526829D01*
X1274186Y525762D01*
X1273742Y524696D01*
X1272853Y524162D01*
G54D17*
X1267075Y522206D02*
X1271075Y522206D01*
G54D17*
X1270186Y522206D02*
X1270808Y521673D01*
X1271075Y520606D01*
X1270808Y519539D01*
X1270186Y519006D01*
X1267075Y519006D01*
G54D17*
X1267075Y517050D02*
X1274186Y517050D01*
X1274186Y513317D01*
G54D17*
X1270631Y517050D02*
X1270631Y513317D01*
G54D16*
X1217000Y657000D02*
X1217000Y675000D01*
X1251000Y675000D01*
X1251000Y657000D01*
X1217000Y657000D01*
G54D17*
X1219725Y667019D02*
X1222392Y669686D01*
X1222392Y662575D01*
G54D17*
X1228615Y668353D02*
X1228615Y663908D01*
X1228082Y663019D01*
X1227014Y662575D01*
X1225948Y662575D01*
X1224882Y663019D01*
X1224348Y663908D01*
X1224348Y668353D01*
X1224881Y669242D01*
X1225948Y669686D01*
X1227015Y669686D01*
X1228081Y669242D01*
X1228615Y668353D01*
G54D17*
X1234838Y668353D02*
X1234838Y663908D01*
X1234304Y663019D01*
X1233238Y662575D01*
X1232171Y662575D01*
X1231104Y663019D01*
X1230571Y663908D01*
X1230571Y668353D01*
X1231104Y669242D01*
X1232171Y669686D01*
X1233238Y669686D01*
X1234304Y669242D01*
X1234838Y668353D01*
G54D17*
X1236794Y662575D02*
X1236794Y666575D01*
G54D17*
X1236794Y665686D02*
X1237327Y666308D01*
X1238394Y666575D01*
X1239460Y666308D01*
X1239994Y665686D01*
X1239994Y662575D01*
G54D17*
X1241950Y662575D02*
X1241950Y669686D01*
X1245683Y669686D01*
G54D17*
X1241950Y666131D02*
X1245683Y666131D01*
G54D16*
X1230250Y552750D02*
X1256250Y552750D01*
X1256250Y502750D01*
X1230250Y502750D01*
X1230250Y552750D01*
G54D15*
X1244384Y536718D02*
X1246384Y534718D01*
X1241050Y534718D01*
G54D15*
X1245384Y530051D02*
X1242050Y530051D01*
X1241384Y530451D01*
X1241050Y531251D01*
X1241050Y532051D01*
X1241384Y532851D01*
X1242050Y533251D01*
X1245384Y533251D01*
X1246050Y532851D01*
X1246384Y532051D01*
X1246384Y531251D01*
X1246050Y530451D01*
X1245384Y530051D01*
G54D15*
X1244050Y528584D02*
X1239717Y528584D01*
G54D15*
X1244050Y526184D02*
X1241050Y526184D01*
G54D15*
X1241717Y526184D02*
X1241184Y526584D01*
X1241050Y527384D01*
X1241184Y528184D01*
X1241717Y528584D01*
X1244050Y528584D01*
G54D15*
X1241050Y524717D02*
X1246383Y524717D01*
X1246384Y521917D01*
G54D15*
X1243717Y524717D02*
X1243717Y521917D01*
G54D16*
X1077885Y961885D02*
X1099885Y961885D01*
X1099885Y911885D01*
X1077885Y911885D01*
X1077885Y961885D01*
G54D18*
X1092108Y937552D02*
X1086553Y937552D01*
X1085442Y938219D01*
X1084886Y939552D01*
X1084886Y940885D01*
X1085442Y942219D01*
X1086553Y942885D01*
X1092108Y942885D01*
X1093220Y942218D01*
X1093775Y940885D01*
X1093775Y939552D01*
X1093220Y938219D01*
X1092108Y937552D01*
G54D18*
X1089331Y932441D02*
X1088220Y930442D01*
X1087108Y929775D01*
X1084886Y929775D01*
G54D18*
X1084886Y935108D02*
X1093775Y935108D01*
X1093775Y931775D01*
X1093219Y930442D01*
X1092108Y929775D01*
X1090997Y929775D01*
X1089886Y930442D01*
X1089331Y931775D01*
X1089331Y935108D01*
G54D16*
X339000Y816500D02*
X357000Y816500D01*
X357000Y782500D01*
X339000Y782500D01*
X339000Y816500D01*
G54D17*
X349019Y813775D02*
X351686Y811108D01*
X344575Y811108D01*
G54D17*
X350353Y804885D02*
X345908Y804885D01*
X345019Y805419D01*
X344575Y806485D01*
X344575Y807552D01*
X345019Y808619D01*
X345908Y809152D01*
X350353Y809152D01*
X351242Y808619D01*
X351686Y807552D01*
X351686Y806485D01*
X351242Y805419D01*
X350353Y804885D01*
G54D17*
X350353Y798662D02*
X345908Y798662D01*
X345019Y799196D01*
X344575Y800262D01*
X344575Y801329D01*
X345019Y802396D01*
X345908Y802929D01*
X350353Y802929D01*
X351242Y802396D01*
X351686Y801329D01*
X351686Y800262D01*
X351242Y799196D01*
X350353Y798662D01*
G54D17*
X344575Y796706D02*
X348575Y796706D01*
G54D17*
X347686Y796706D02*
X348308Y796173D01*
X348575Y795106D01*
X348308Y794039D01*
X347686Y793506D01*
X344575Y793506D01*
G54D17*
X344575Y791550D02*
X351686Y791550D01*
X351686Y787817D01*
G54D17*
X348131Y791550D02*
X348131Y787817D01*
G54D10*
X291652Y952660D02*
X291652Y902660D01*
X307652Y886660D01*
X341652Y886660D01*
X357652Y902660D01*
X357652Y952660D01*
X291652Y952660D01*
G54D10*
X308652Y905660D02*
X308652Y895660D01*
G54D10*
X308652Y900660D02*
X313651Y900660D01*
G54D10*
X308652Y900660D02*
X303652Y900660D01*
G54D10*
X308652Y942660D02*
X308652Y932660D01*
G54D17*
X350429Y929537D02*
X353096Y926871D01*
X345984Y926871D01*
G54D17*
X351762Y920648D02*
X352651Y921181D01*
X353096Y922248D01*
X353096Y923314D01*
X352651Y924381D01*
X351762Y924914D01*
X349540Y924914D01*
X349096Y924914D01*
X349984Y923314D01*
X349984Y922248D01*
X349540Y921181D01*
X348651Y920648D01*
X347318Y920648D01*
X346429Y921181D01*
X345984Y922248D01*
X345984Y923314D01*
X346429Y924381D01*
X347318Y924914D01*
X349540Y924914D01*
G54D17*
X353096Y918691D02*
X345984Y916025D01*
X353096Y913358D01*
G54D17*
X339140Y935228D02*
X341807Y932562D01*
X334696Y932562D01*
G54D17*
X340474Y926339D02*
X336029Y926339D01*
X335140Y926872D01*
X334696Y927939D01*
X334696Y929005D01*
X335140Y930072D01*
X336029Y930605D01*
X340474Y930605D01*
X341363Y930072D01*
X341807Y929005D01*
X341807Y927939D01*
X341363Y926872D01*
X340474Y926339D01*
G54D17*
X340474Y920116D02*
X336029Y920116D01*
X335140Y920649D01*
X334696Y921716D01*
X334696Y922782D01*
X335140Y923849D01*
X336029Y924382D01*
X340474Y924382D01*
X341363Y923849D01*
X341807Y922782D01*
X341807Y921716D01*
X341363Y920649D01*
X340474Y920116D01*
G54D17*
X338696Y918159D02*
X332918Y918159D01*
G54D17*
X338696Y914959D02*
X334696Y914959D01*
G54D17*
X335585Y914959D02*
X334874Y915493D01*
X334696Y916559D01*
X334874Y917626D01*
X335585Y918159D01*
X338696Y918159D01*
G54D17*
X334696Y913003D02*
X341807Y913003D01*
X341807Y909270D01*
G54D17*
X338252Y913003D02*
X338252Y909270D01*
G54D10*
X367652Y952660D02*
X367652Y902660D01*
X383652Y886660D01*
X417652Y886660D01*
X433652Y902660D01*
X433652Y952660D01*
X367652Y952660D01*
G54D10*
X384652Y905660D02*
X384652Y895660D01*
G54D10*
X384652Y900660D02*
X389651Y900660D01*
G54D10*
X384652Y900660D02*
X379652Y900660D01*
G54D10*
X384652Y942660D02*
X384652Y932660D01*
G54D17*
X426429Y929537D02*
X429096Y926871D01*
X421984Y926871D01*
G54D17*
X427762Y920648D02*
X428651Y921181D01*
X429096Y922248D01*
X429096Y923314D01*
X428651Y924381D01*
X427762Y924914D01*
X425540Y924914D01*
X425096Y924914D01*
X425984Y923314D01*
X425984Y922248D01*
X425540Y921181D01*
X424651Y920648D01*
X423318Y920648D01*
X422429Y921181D01*
X421984Y922248D01*
X421984Y923314D01*
X422429Y924381D01*
X423318Y924914D01*
X425540Y924914D01*
G54D17*
X429096Y918691D02*
X421984Y916025D01*
X429096Y913358D01*
G54D17*
X415140Y935228D02*
X417807Y932562D01*
X410696Y932562D01*
G54D17*
X416474Y926339D02*
X412029Y926339D01*
X411140Y926872D01*
X410696Y927939D01*
X410696Y929005D01*
X411140Y930072D01*
X412029Y930605D01*
X416474Y930605D01*
X417363Y930072D01*
X417807Y929005D01*
X417807Y927939D01*
X417363Y926872D01*
X416474Y926339D01*
G54D17*
X416474Y920116D02*
X412029Y920116D01*
X411140Y920649D01*
X410696Y921716D01*
X410696Y922782D01*
X411140Y923849D01*
X412029Y924382D01*
X416474Y924382D01*
X417363Y923849D01*
X417807Y922782D01*
X417807Y921716D01*
X417363Y920649D01*
X416474Y920116D01*
G54D17*
X414696Y918159D02*
X408918Y918159D01*
G54D17*
X414696Y914959D02*
X410696Y914959D01*
G54D17*
X411585Y914959D02*
X410874Y915493D01*
X410696Y916559D01*
X410874Y917626D01*
X411585Y918159D01*
X414696Y918159D01*
G54D17*
X410696Y913003D02*
X417807Y913003D01*
X417807Y909270D01*
G54D17*
X414252Y913003D02*
X414252Y909270D01*
G54D16*
X809230Y962586D02*
X824787Y978142D01*
X860142Y942787D01*
X844586Y927230D01*
X809230Y962586D01*
G54D18*
X836494Y955437D02*
X832566Y951508D01*
X831308Y951194D01*
X829973Y951744D01*
X829030Y952687D01*
X828480Y954023D01*
X828794Y955280D01*
X832723Y959208D01*
X833980Y959522D01*
X835316Y958972D01*
X836258Y958030D01*
X836808Y956694D01*
X836494Y955437D01*
G54D18*
X838143Y949859D02*
X838772Y947659D01*
X838458Y946402D01*
X836886Y944831D01*
G54D18*
X833115Y948602D02*
X839400Y954887D01*
X841757Y952531D01*
X842307Y951195D01*
X841993Y949938D01*
X841208Y949152D01*
X839950Y948838D01*
X838615Y949388D01*
X836258Y951745D01*
G54D10*
X356500Y401500D02*
X431500Y401500D01*
X431500Y344000D01*
G54D10*
X431500Y344000D02*
X356500Y344000D01*
X356500Y401500D01*
G54D10*
X394000Y344000D02*
X375250Y344000D01*
X375250Y349000D01*
X412750Y349000D01*
X412750Y344000D01*
G54D16*
X364000Y816500D02*
X382000Y816500D01*
X382000Y782500D01*
X364000Y782500D01*
X364000Y816500D01*
G54D17*
X374019Y813775D02*
X376686Y811108D01*
X369575Y811108D01*
G54D17*
X375353Y804885D02*
X370908Y804885D01*
X370019Y805419D01*
X369575Y806485D01*
X369575Y807552D01*
X370019Y808619D01*
X370908Y809152D01*
X375353Y809152D01*
X376242Y808619D01*
X376686Y807552D01*
X376686Y806485D01*
X376242Y805419D01*
X375353Y804885D01*
G54D17*
X375353Y798662D02*
X370908Y798662D01*
X370019Y799196D01*
X369575Y800262D01*
X369575Y801329D01*
X370019Y802396D01*
X370908Y802929D01*
X375353Y802929D01*
X376242Y802396D01*
X376686Y801329D01*
X376686Y800262D01*
X376242Y799196D01*
X375353Y798662D01*
G54D17*
X369575Y796706D02*
X373575Y796706D01*
G54D17*
X372686Y796706D02*
X373308Y796173D01*
X373575Y795106D01*
X373308Y794039D01*
X372686Y793506D01*
X369575Y793506D01*
G54D17*
X369575Y791550D02*
X376686Y791550D01*
X376686Y787817D01*
G54D17*
X373131Y791550D02*
X373131Y787817D01*
G54D16*
X1012000Y578000D02*
X1034000Y578000D01*
X1034000Y528000D01*
X1012000Y528000D01*
X1012000Y578000D01*
G54D18*
X1026223Y553667D02*
X1020668Y553667D01*
X1019556Y554334D01*
X1019001Y555666D01*
X1019001Y557000D01*
X1019556Y558334D01*
X1020668Y559000D01*
X1026224Y559000D01*
X1027334Y558333D01*
X1027890Y557000D01*
X1027890Y555667D01*
X1027334Y554333D01*
X1026223Y553667D01*
G54D18*
X1023446Y548557D02*
X1022334Y546556D01*
X1021223Y545890D01*
X1019001Y545890D01*
G54D18*
X1019001Y551223D02*
X1027890Y551223D01*
X1027890Y547890D01*
X1027334Y546557D01*
X1026223Y545890D01*
X1025112Y545889D01*
X1024001Y546556D01*
X1023446Y547890D01*
X1023446Y551223D01*
G54D16*
X741090Y505070D02*
X741090Y523070D01*
X775090Y523070D01*
X775090Y505070D01*
X741090Y505070D01*
G54D17*
X743815Y515089D02*
X746482Y517756D01*
X746482Y510645D01*
G54D17*
X752705Y516423D02*
X752705Y511978D01*
X752172Y511089D01*
X751104Y510645D01*
X750038Y510645D01*
X748972Y511090D01*
X748438Y511978D01*
X748438Y516423D01*
X748971Y517312D01*
X750038Y517756D01*
X751105Y517756D01*
X752171Y517312D01*
X752705Y516423D01*
G54D17*
X758928Y516423D02*
X758928Y511978D01*
X758394Y511089D01*
X757328Y510645D01*
X756261Y510645D01*
X755194Y511089D01*
X754661Y511978D01*
X754661Y516423D01*
X755194Y517312D01*
X756261Y517756D01*
X757328Y517756D01*
X758394Y517312D01*
X758928Y516423D01*
G54D17*
X760884Y510645D02*
X760884Y514645D01*
G54D17*
X760884Y513756D02*
X761417Y514378D01*
X762484Y514645D01*
X763550Y514378D01*
X764084Y513756D01*
X764084Y510645D01*
G54D17*
X766040Y510645D02*
X766040Y517756D01*
X769773Y517756D01*
G54D17*
X766040Y514201D02*
X769773Y514201D01*
G54D19*
X608878Y742288D02*
X608878Y777844D01*
X622212Y777844D01*
X627545Y775622D01*
X630212Y771177D01*
X630212Y766733D01*
X627545Y762288D01*
X622212Y760066D01*
X608878Y760066D01*
G54D19*
X661323Y748955D02*
X658656Y744511D01*
X653323Y742288D01*
X647990Y742288D01*
X642656Y744511D01*
X639990Y748955D01*
X639990Y771177D01*
X642656Y775622D01*
X647990Y777844D01*
X653323Y777844D01*
X658656Y775622D01*
X661323Y771177D01*
G54D19*
X671100Y742288D02*
X671100Y777844D01*
X684434Y777844D01*
X689767Y775622D01*
X692434Y771177D01*
X692434Y748955D01*
X689767Y744511D01*
X684434Y742288D01*
X671100Y742288D01*
G54D19*
X715545Y760066D02*
X710212Y760066D01*
X704878Y762288D01*
X702212Y766733D01*
X702212Y771177D01*
X704878Y775622D01*
X710212Y777844D01*
X715545Y777844D01*
X720878Y775622D01*
X723545Y771177D01*
X723545Y766733D01*
X720878Y762288D01*
X715545Y760066D01*
X720878Y757844D01*
X723545Y753400D01*
X723545Y748955D01*
X720878Y744511D01*
X715545Y742288D01*
X710212Y742288D01*
X704878Y744511D01*
X702212Y748955D01*
X702212Y753400D01*
X704878Y757844D01*
X710212Y760066D01*
G54D19*
X754656Y777844D02*
X733322Y777844D01*
X733322Y762288D01*
X735989Y762288D01*
X741322Y764511D01*
X746656Y764511D01*
X751989Y762288D01*
X754656Y757844D01*
X754656Y748955D01*
X751989Y744511D01*
X746656Y742288D01*
X741322Y742288D01*
X735989Y744511D01*
X733322Y748955D01*
G54D19*
X780434Y742288D02*
X780434Y777844D01*
X764434Y755622D01*
X764434Y751177D01*
X785767Y751177D01*
G54D19*
X811544Y742288D02*
X811544Y777844D01*
X795544Y755622D01*
X795544Y751177D01*
X816878Y751177D01*
G54D18*
X798574Y926479D02*
X798574Y923813D01*
X795797Y923813D01*
X794686Y924479D01*
X794130Y925813D01*
X794130Y927146D01*
X794686Y928479D01*
X795797Y929146D01*
X801352Y929146D01*
X802463Y928479D01*
X803019Y927146D01*
X803019Y925813D01*
X802463Y924479D01*
X801352Y923813D01*
G54D18*
X794130Y921369D02*
X803019Y921369D01*
X794130Y916036D01*
X803019Y916036D01*
G54D18*
X794130Y913592D02*
X803019Y913592D01*
X803019Y910259D01*
X802463Y908925D01*
X801352Y908259D01*
X795797Y908259D01*
X794686Y908925D01*
X794130Y910259D01*
X794130Y913592D01*
G54D18*
X777619Y929677D02*
X768730Y929677D01*
X768730Y925010D01*
G54D18*
X768730Y917899D02*
X768730Y922566D01*
X777619Y922566D01*
X777619Y917899D01*
G54D18*
X773174Y922566D02*
X773174Y917899D01*
G54D18*
X768730Y915455D02*
X777619Y915455D01*
X777619Y912122D01*
X777063Y910788D01*
X775952Y910122D01*
X770397Y910122D01*
X769286Y910788D01*
X768730Y912122D01*
X768730Y915455D01*
G54D18*
X752219Y929528D02*
X743330Y926195D01*
X752219Y922861D01*
G54D18*
X747997Y917084D02*
X748330Y918417D01*
X747997Y919750D01*
X746886Y920417D01*
X744663Y920417D01*
X743552Y919750D01*
X743330Y918417D01*
X743552Y917084D01*
G54D18*
X747997Y911307D02*
X748330Y912640D01*
X747997Y913973D01*
X746886Y914640D01*
X744663Y914640D01*
X743552Y913973D01*
X743330Y912640D01*
X743552Y911307D01*
G54D18*
X719597Y924329D02*
X718486Y924995D01*
X717930Y926329D01*
X717930Y927662D01*
X718486Y928995D01*
X719597Y929662D01*
X725152Y929662D01*
X726263Y928995D01*
X726819Y927662D01*
X726819Y926329D01*
X726263Y924995D01*
X725152Y924329D01*
G54D18*
X717930Y921885D02*
X726819Y921885D01*
G54D18*
X717930Y919441D02*
X726819Y919441D01*
G54D18*
X721263Y917441D02*
X717930Y915441D01*
G54D18*
X720152Y919441D02*
X722930Y915441D01*
G54D18*
X692530Y929663D02*
X701419Y929663D01*
G54D18*
X692530Y927219D02*
X697530Y927219D01*
G54D18*
X696419Y927219D02*
X697197Y926552D01*
X697530Y925219D01*
X697197Y923886D01*
X696419Y923219D01*
X692530Y923219D01*
G54D18*
X697530Y920775D02*
X690308Y920775D01*
G54D18*
X694197Y920775D02*
X692752Y920108D01*
X692530Y918775D01*
X692752Y917442D01*
X693863Y916775D01*
X696086Y916775D01*
X697197Y917442D01*
X697530Y918775D01*
X697197Y920108D01*
X695863Y920775D01*
G54D18*
X697530Y910331D02*
X692530Y910331D01*
G54D18*
X693641Y910331D02*
X692752Y910998D01*
X692530Y912331D01*
X692752Y913664D01*
X693641Y914331D01*
X697530Y914331D01*
G54D18*
X701419Y906554D02*
X693086Y906554D01*
X692530Y905887D01*
X692752Y905220D01*
G54D18*
X697530Y907887D02*
X697530Y905220D01*
G54D18*
X668908Y930385D02*
X677797Y930385D01*
X677797Y927052D01*
X677242Y925718D01*
X676131Y925052D01*
X670575Y925052D01*
X669464Y925718D01*
X668908Y927052D01*
X668908Y930385D01*
G54D18*
X668908Y922608D02*
X677797Y917275D01*
G54D18*
X670575Y909498D02*
X669464Y910164D01*
X668908Y911498D01*
X668908Y912831D01*
X669464Y914164D01*
X670575Y914831D01*
X676131Y914831D01*
X677242Y914164D01*
X677797Y912831D01*
X677797Y911498D01*
X677242Y910164D01*
X676131Y909498D01*
G54D18*
X643397Y928344D02*
X642286Y927677D01*
X641730Y926344D01*
X641730Y925010D01*
X642286Y923677D01*
X643397Y923010D01*
X644508Y923010D01*
X645619Y923677D01*
X646174Y925010D01*
X646174Y926344D01*
X646730Y927677D01*
X647841Y928344D01*
X648952Y928344D01*
X650063Y927677D01*
X650619Y926344D01*
X650619Y925010D01*
X650063Y923677D01*
X648952Y923010D01*
G54D18*
X643397Y915233D02*
X642286Y915900D01*
X641730Y917233D01*
X641730Y918566D01*
X642286Y919900D01*
X643397Y920566D01*
X648952Y920566D01*
X650063Y919900D01*
X650619Y918566D01*
X650619Y917233D01*
X650063Y915900D01*
X648952Y915233D01*
G54D18*
X641730Y908123D02*
X641730Y912790D01*
X650619Y912790D01*
X650619Y908123D01*
G54D18*
X646174Y912790D02*
X646174Y908123D01*
G54D18*
X620774Y926744D02*
X619663Y924744D01*
X618552Y924078D01*
X616330Y924078D01*
G54D18*
X616330Y929411D02*
X625219Y929411D01*
X625219Y926078D01*
X624663Y924744D01*
X623552Y924078D01*
X622441Y924078D01*
X621330Y924744D01*
X620774Y926078D01*
X620774Y929411D01*
G54D18*
X617997Y921634D02*
X616886Y920967D01*
X616330Y919634D01*
X616330Y918301D01*
X616886Y916967D01*
X617997Y916301D01*
X619108Y916301D01*
X620219Y916967D01*
X620774Y918301D01*
X620774Y919634D01*
X621330Y920967D01*
X622441Y921634D01*
X623552Y921634D01*
X624663Y920967D01*
X625219Y919634D01*
X625219Y918301D01*
X624663Y916967D01*
X623552Y916301D01*
G54D18*
X616330Y911190D02*
X625219Y911190D01*
G54D18*
X625219Y913857D02*
X625219Y908524D01*
G54D18*
X798574Y580479D02*
X798574Y577813D01*
X795797Y577813D01*
X794686Y578479D01*
X794130Y579813D01*
X794130Y581146D01*
X794686Y582479D01*
X795797Y583146D01*
X801352Y583146D01*
X802463Y582479D01*
X803019Y581146D01*
X803019Y579813D01*
X802463Y578479D01*
X801352Y577813D01*
G54D18*
X794130Y575369D02*
X803019Y575369D01*
X794130Y570036D01*
X803019Y570036D01*
G54D18*
X794130Y567592D02*
X803019Y567592D01*
X803019Y564259D01*
X802463Y562925D01*
X801352Y562259D01*
X795797Y562259D01*
X794686Y562925D01*
X794130Y564259D01*
X794130Y567592D01*
G54D18*
X777619Y583677D02*
X768730Y583677D01*
X768730Y579010D01*
G54D18*
X768730Y571899D02*
X768730Y576566D01*
X777619Y576566D01*
X777619Y571899D01*
G54D18*
X773174Y576566D02*
X773174Y571899D01*
G54D18*
X768730Y569455D02*
X777619Y569455D01*
X777619Y566122D01*
X777063Y564788D01*
X775952Y564122D01*
X770397Y564122D01*
X769286Y564788D01*
X768730Y566122D01*
X768730Y569455D01*
G54D18*
X752219Y583528D02*
X743330Y580195D01*
X752219Y576861D01*
G54D18*
X747997Y571084D02*
X748330Y572417D01*
X747997Y573750D01*
X746886Y574417D01*
X744663Y574417D01*
X743552Y573750D01*
X743330Y572417D01*
X743552Y571084D01*
G54D18*
X747997Y565307D02*
X748330Y566640D01*
X747997Y567973D01*
X746886Y568640D01*
X744663Y568640D01*
X743552Y567973D01*
X743330Y566640D01*
X743552Y565307D01*
G54D18*
X719597Y578329D02*
X718486Y578995D01*
X717930Y580329D01*
X717930Y581662D01*
X718486Y582995D01*
X719597Y583662D01*
X725152Y583662D01*
X726263Y582995D01*
X726819Y581662D01*
X726819Y580329D01*
X726263Y578995D01*
X725152Y578329D01*
G54D18*
X717930Y575885D02*
X726819Y575885D01*
G54D18*
X717930Y573441D02*
X726819Y573441D01*
G54D18*
X721263Y571441D02*
X717930Y569441D01*
G54D18*
X720152Y573441D02*
X722930Y569441D01*
G54D18*
X692530Y583663D02*
X701419Y583663D01*
G54D18*
X692530Y581219D02*
X697530Y581219D01*
G54D18*
X696419Y581219D02*
X697197Y580552D01*
X697530Y579219D01*
X697197Y577886D01*
X696419Y577219D01*
X692530Y577219D01*
G54D18*
X697530Y574775D02*
X690308Y574775D01*
G54D18*
X694197Y574775D02*
X692752Y574108D01*
X692530Y572775D01*
X692752Y571442D01*
X693863Y570775D01*
X696086Y570775D01*
X697197Y571442D01*
X697530Y572775D01*
X697197Y574108D01*
X695863Y574775D01*
G54D18*
X697530Y564331D02*
X692530Y564331D01*
G54D18*
X693641Y564331D02*
X692752Y564998D01*
X692530Y566331D01*
X692752Y567664D01*
X693641Y568331D01*
X697530Y568331D01*
G54D18*
X701419Y560554D02*
X693086Y560554D01*
X692530Y559887D01*
X692752Y559220D01*
G54D18*
X697530Y561887D02*
X697530Y559220D01*
G54D18*
X668908Y584385D02*
X677797Y584385D01*
X677797Y581052D01*
X677242Y579718D01*
X676131Y579052D01*
X670575Y579052D01*
X669464Y579718D01*
X668908Y581052D01*
X668908Y584385D01*
G54D18*
X668908Y576608D02*
X677797Y571275D01*
G54D18*
X670575Y563498D02*
X669464Y564164D01*
X668908Y565498D01*
X668908Y566831D01*
X669464Y568164D01*
X670575Y568831D01*
X676131Y568831D01*
X677242Y568164D01*
X677797Y566831D01*
X677797Y565498D01*
X677242Y564164D01*
X676131Y563498D01*
G54D18*
X643397Y582344D02*
X642286Y581677D01*
X641730Y580344D01*
X641730Y579010D01*
X642286Y577677D01*
X643397Y577010D01*
X644508Y577010D01*
X645619Y577677D01*
X646174Y579010D01*
X646174Y580344D01*
X646730Y581677D01*
X647841Y582344D01*
X648952Y582344D01*
X650063Y581677D01*
X650619Y580344D01*
X650619Y579010D01*
X650063Y577677D01*
X648952Y577010D01*
G54D18*
X643397Y569233D02*
X642286Y569900D01*
X641730Y571233D01*
X641730Y572566D01*
X642286Y573900D01*
X643397Y574566D01*
X648952Y574566D01*
X650063Y573900D01*
X650619Y572566D01*
X650619Y571233D01*
X650063Y569900D01*
X648952Y569233D01*
G54D18*
X641730Y562123D02*
X641730Y566790D01*
X650619Y566790D01*
X650619Y562123D01*
G54D18*
X646174Y566790D02*
X646174Y562123D01*
G54D18*
X620774Y580744D02*
X619663Y578744D01*
X618552Y578078D01*
X616330Y578078D01*
G54D18*
X616330Y583411D02*
X625219Y583411D01*
X625219Y580078D01*
X624663Y578744D01*
X623552Y578078D01*
X622441Y578078D01*
X621330Y578744D01*
X620774Y580078D01*
X620774Y583411D01*
G54D18*
X617997Y575634D02*
X616886Y574967D01*
X616330Y573634D01*
X616330Y572301D01*
X616886Y570967D01*
X617997Y570301D01*
X619108Y570301D01*
X620219Y570967D01*
X620774Y572301D01*
X620774Y573634D01*
X621330Y574967D01*
X622441Y575634D01*
X623552Y575634D01*
X624663Y574967D01*
X625219Y573634D01*
X625219Y572301D01*
X624663Y570967D01*
X623552Y570301D01*
G54D18*
X616330Y565190D02*
X625219Y565190D01*
G54D18*
X625219Y567857D02*
X625219Y562524D01*
G54D10*
X461300Y763200D02*
X264000Y763200D01*
X264000Y973200D01*
X461300Y973200D01*
X461300Y763200D01*
G54D10*
X384000Y763200D02*
X384000Y778200D01*
X354000Y778200D01*
X354000Y763200D01*
G54D20*
X374772Y828222D02*
X364105Y828222D01*
X364105Y832222D01*
X364772Y833822D01*
X366105Y834622D01*
X372772Y834622D01*
X374105Y833822D01*
X374772Y832222D01*
X374772Y828222D01*
G54D20*
X374772Y837555D02*
X364105Y837555D01*
X364105Y843155D01*
G54D20*
X369439Y837555D02*
X369439Y843155D01*
G54D20*
X374772Y846088D02*
X364105Y846088D01*
X364105Y850088D01*
X364772Y851688D01*
X366105Y852488D01*
X367439Y852488D01*
X368772Y851688D01*
X369439Y850088D01*
X369439Y846088D01*
G54D20*
X374772Y855421D02*
X364105Y855421D01*
G54D20*
X369439Y858354D02*
X368772Y859954D01*
X368772Y861874D01*
X370105Y863154D01*
X374772Y863154D01*
G54D20*
X372772Y863154D02*
X371439Y862354D01*
X371172Y860754D01*
X371439Y859154D01*
X372772Y858354D01*
X374105Y858674D01*
X374772Y859954D01*
X374772Y860754D01*
X374772Y861074D01*
X374105Y862354D01*
X372772Y863154D01*
G54D20*
X368772Y866087D02*
X374772Y869287D01*
X368772Y872487D01*
G54D20*
X374772Y869287D02*
X376772Y868487D01*
X377439Y867687D01*
X377439Y866887D01*
G54D20*
X374105Y880220D02*
X374772Y878940D01*
X374772Y877340D01*
X374105Y875740D01*
X372772Y875420D01*
X370505Y875420D01*
X369172Y876220D01*
X368772Y877820D01*
X369172Y879420D01*
X370105Y880220D01*
X371439Y880220D01*
X371439Y875420D01*
G54D20*
X374772Y883153D02*
X368772Y883153D01*
G54D20*
X370105Y883153D02*
X368772Y884753D01*
X368772Y886353D01*
G54D20*
X374772Y892379D02*
X364105Y892379D01*
X370772Y896379D01*
X364105Y900379D01*
X374772Y900379D01*
G54D20*
X374772Y903312D02*
X368772Y903312D01*
G54D20*
X366772Y903312D02*
X366772Y903312D01*
G54D20*
X374772Y906245D02*
X368772Y906245D01*
G54D20*
X370105Y906245D02*
X369172Y907045D01*
X368772Y908645D01*
X369172Y910245D01*
X370105Y911045D01*
X374772Y911045D01*
G54D20*
X374772Y913978D02*
X368772Y913978D01*
G54D20*
X366772Y913978D02*
X366772Y913978D01*
G54D12*
X412000Y973200D02*
X412000Y999200D01*
X412000Y973200D01*
G54D12*
X412000Y999200D02*
X302000Y999200D01*
G54D12*
X302000Y999200D02*
X302000Y973200D01*
G54D21*
X375027Y984671D02*
X375027Y996226D01*
G54D21*
X368627Y984671D02*
X368627Y992671D01*
G54D21*
X368627Y990893D02*
X369694Y992316D01*
X371827Y992671D01*
X373960Y992316D01*
X375027Y990893D01*
X375027Y984671D01*
G54D21*
X364716Y990004D02*
X363649Y991782D01*
X361516Y992671D01*
X359383Y992671D01*
X357249Y991782D01*
X356183Y990004D01*
X356183Y988226D01*
X357249Y986449D01*
X359383Y985560D01*
X361516Y985560D01*
X363649Y984671D01*
X364716Y982893D01*
X364716Y981116D01*
X363649Y979338D01*
X361516Y978449D01*
X359383Y978449D01*
X357249Y979338D01*
X356183Y981116D01*
G54D21*
X352272Y992671D02*
X352272Y978449D01*
X346939Y978449D01*
X344805Y979338D01*
X343739Y981116D01*
X343739Y990004D01*
X344805Y991782D01*
X346939Y992671D01*
X352272Y992671D01*
G54D16*
X878271Y917260D02*
X878271Y930260D01*
X888271Y930259D01*
G54D16*
X900271Y930260D02*
X910271Y930259D01*
X910271Y917260D01*
G54D16*
X898271Y917260D02*
X890271Y917260D01*
G54D17*
X883532Y920534D02*
X883532Y927645D01*
X887798Y920534D01*
X887798Y927645D01*
G54D17*
X889755Y923645D02*
X894021Y923645D01*
G54D17*
X900244Y921867D02*
X899711Y920978D01*
X898644Y920533D01*
X897578Y920533D01*
X896511Y920978D01*
X895978Y921867D01*
X895978Y926311D01*
X896511Y927200D01*
X897578Y927645D01*
X898644Y927645D01*
X899711Y927200D01*
X900244Y926311D01*
G54D17*
X902200Y920533D02*
X902200Y927645D01*
G54D17*
X902200Y923378D02*
X902734Y924267D01*
X903801Y924533D01*
X904867Y924267D01*
X905400Y923378D01*
X905400Y920533D01*
G54D13*
X883132Y912301D02*
X883465Y911745D01*
X884132Y911467D01*
X884798Y911467D01*
X885465Y911745D01*
X885798Y912301D01*
X885798Y912856D01*
X885465Y913412D01*
X884798Y913690D01*
X884132Y913690D01*
X883465Y913967D01*
X883132Y914523D01*
X883132Y915079D01*
X883465Y915634D01*
X884132Y915912D01*
X884798Y915912D01*
X885465Y915634D01*
X885798Y915079D01*
G54D13*
X904265Y913690D02*
X905598Y913690D01*
X905598Y912301D01*
X905265Y911745D01*
X904598Y911468D01*
X903931Y911468D01*
X903265Y911745D01*
X902932Y912301D01*
X902931Y915079D01*
X903265Y915634D01*
X903931Y915912D01*
X904598Y915912D01*
X905265Y915634D01*
X905598Y915079D01*
G54D13*
X893131Y931267D02*
X893131Y935712D01*
X894798Y935712D01*
X895465Y935434D01*
X895798Y934879D01*
X895798Y932101D01*
X895465Y931545D01*
X894798Y931267D01*
X893131Y931267D01*
G54D16*
X972668Y518336D02*
X972668Y536336D01*
X1006668Y536336D01*
X1006668Y518336D01*
X972668Y518336D01*
G54D15*
X979167Y527669D02*
X981167Y529669D01*
X981167Y524336D01*
G54D15*
X985834Y528669D02*
X985834Y525336D01*
X985434Y524669D01*
X984634Y524336D01*
X983834Y524336D01*
X983034Y524669D01*
X982634Y525336D01*
X982634Y528669D01*
X983034Y529336D01*
X983834Y529669D01*
X984634Y529669D01*
X985434Y529336D01*
X985834Y528669D01*
G54D15*
X990501Y528669D02*
X990501Y525336D01*
X990101Y524669D01*
X989301Y524336D01*
X988501Y524336D01*
X987701Y524669D01*
X987301Y525336D01*
X987301Y528669D01*
X987701Y529336D01*
X988501Y529669D01*
X989301Y529669D01*
X990101Y529336D01*
X990501Y528669D01*
G54D15*
X991968Y524336D02*
X991968Y529669D01*
G54D15*
X993168Y526336D02*
X994368Y524336D01*
G54D15*
X991968Y525669D02*
X994368Y527336D01*
G54D16*
X932867Y498067D02*
X950867Y498067D01*
X950867Y464067D01*
X932867Y464067D01*
X932867Y498067D01*
G54D17*
X942886Y495342D02*
X945553Y492675D01*
X938442Y492675D01*
G54D17*
X944219Y486452D02*
X939775Y486452D01*
X938886Y486986D01*
X938442Y488052D01*
X938442Y489119D01*
X938886Y490185D01*
X939775Y490719D01*
X944219Y490719D01*
X945108Y490186D01*
X945553Y489119D01*
X945553Y488052D01*
X945108Y486986D01*
X944219Y486452D01*
G54D17*
X944219Y480229D02*
X939775Y480229D01*
X938886Y480762D01*
X938442Y481829D01*
X938442Y482896D01*
X938886Y483963D01*
X939775Y484496D01*
X944219Y484496D01*
X945108Y483963D01*
X945553Y482896D01*
X945553Y481830D01*
X945108Y480763D01*
X944219Y480229D01*
G54D17*
X938442Y478273D02*
X942442Y478273D01*
G54D17*
X941553Y478273D02*
X942175Y477740D01*
X942442Y476673D01*
X942175Y475606D01*
X941553Y475073D01*
X938442Y475073D01*
G54D17*
X938442Y473117D02*
X945553Y473117D01*
X945553Y469384D01*
G54D17*
X941997Y473117D02*
X941997Y469384D01*
G54D15*
X1107000Y536000D02*
X1107000Y541333D01*
X1109000Y538000D01*
X1111000Y541333D01*
X1111000Y536000D01*
G54D15*
X1112467Y536000D02*
X1112467Y541333D01*
G54D15*
X1113934Y537000D02*
X1114334Y536333D01*
X1115134Y536000D01*
X1115934Y536000D01*
X1116734Y536333D01*
X1117134Y537000D01*
X1117134Y537667D01*
X1116734Y538333D01*
X1115934Y538667D01*
X1115134Y538667D01*
X1114334Y539000D01*
X1113934Y539667D01*
X1113934Y540333D01*
X1114334Y541000D01*
X1115134Y541333D01*
X1115934Y541333D01*
X1116734Y541000D01*
X1117134Y540333D01*
G54D15*
X1121801Y540333D02*
X1121801Y537000D01*
X1121401Y536333D01*
X1120601Y536000D01*
X1119801Y536000D01*
X1119001Y536333D01*
X1118601Y537000D01*
X1118601Y540333D01*
X1119001Y541000D01*
X1119801Y541333D01*
X1120601Y541333D01*
X1121401Y541000D01*
X1121801Y540333D01*
G54D15*
X1157067Y541266D02*
X1151734Y541266D01*
X1155067Y543266D01*
X1151734Y545266D01*
X1157067Y545266D01*
G54D15*
X1152734Y549933D02*
X1156067Y549933D01*
X1156734Y549533D01*
X1157067Y548733D01*
X1157067Y547933D01*
X1156734Y547133D01*
X1156067Y546733D01*
X1152734Y546733D01*
X1152067Y547133D01*
X1151734Y547933D01*
X1151734Y548733D01*
X1152067Y549533D01*
X1152734Y549933D01*
G54D15*
X1156067Y551400D02*
X1156734Y551800D01*
X1157067Y552600D01*
X1157067Y553400D01*
X1156734Y554200D01*
X1156067Y554600D01*
X1155400Y554600D01*
X1154734Y554200D01*
X1154400Y553400D01*
X1154400Y552600D01*
X1154067Y551800D01*
X1153400Y551400D01*
X1152734Y551400D01*
X1152067Y551800D01*
X1151734Y552600D01*
X1151734Y553400D01*
X1152067Y554200D01*
X1152734Y554600D01*
G54D15*
X1157067Y556067D02*
X1151734Y556067D01*
G54D15*
X1162000Y543000D02*
X1162400Y542333D01*
X1163200Y542000D01*
X1164000Y542000D01*
X1164800Y542333D01*
X1165200Y543000D01*
X1165200Y543667D01*
X1164800Y544333D01*
X1164000Y544667D01*
X1163200Y544667D01*
X1162400Y545000D01*
X1162000Y545667D01*
X1162000Y546333D01*
X1162400Y547000D01*
X1163200Y547333D01*
X1164000Y547333D01*
X1164800Y547000D01*
X1165200Y546333D01*
G54D15*
X1169867Y543000D02*
X1169467Y542333D01*
X1168667Y542000D01*
X1167867Y542000D01*
X1167067Y542333D01*
X1166667Y543000D01*
X1166667Y546333D01*
X1167067Y547000D01*
X1167867Y547333D01*
X1168667Y547333D01*
X1169467Y547000D01*
X1169867Y546333D01*
G54D15*
X1171334Y542000D02*
X1171334Y547333D01*
G54D15*
X1171334Y543667D02*
X1174534Y547333D01*
G54D15*
X1172534Y544667D02*
X1174534Y542000D01*
G54D15*
X1141200Y541000D02*
X1140800Y540333D01*
X1140000Y540000D01*
X1139200Y540000D01*
X1138400Y540333D01*
X1138000Y541000D01*
X1138000Y544333D01*
X1138400Y545000D01*
X1139200Y545333D01*
X1140000Y545333D01*
X1140800Y545000D01*
X1141200Y544333D01*
G54D15*
X1142667Y541000D02*
X1143067Y540333D01*
X1143867Y540000D01*
X1144667Y540000D01*
X1145467Y540333D01*
X1145867Y541000D01*
X1145867Y541667D01*
X1145467Y542333D01*
X1144667Y542667D01*
X1143867Y542667D01*
X1143067Y543000D01*
X1142667Y543667D01*
X1142667Y544333D01*
X1143067Y545000D01*
X1143867Y545333D01*
X1144667Y545333D01*
X1145467Y545000D01*
X1145867Y544333D01*
G54D16*
X920867Y532067D02*
X920867Y489067D01*
X848367Y489067D01*
X848367Y532067D01*
X920867Y532067D01*
G54D16*
X920867Y527067D02*
X920867Y494067D01*
X915867Y494067D01*
X915867Y527067D01*
X920867Y527067D01*
G54D22*
X912867Y485356D02*
X915534Y484356D01*
X912867Y483356D01*
G54D22*
X913867Y484956D02*
X913867Y483756D01*
G54D22*
X914533Y482623D02*
X915534Y481623D01*
X912867Y481623D01*
G54D22*
X908033Y485356D02*
X908367Y485156D01*
X908534Y484756D01*
X908534Y484356D01*
X908367Y483956D01*
X908033Y483756D01*
X907700Y483756D01*
X907367Y483956D01*
X907200Y484356D01*
X907034Y483956D01*
X906700Y483756D01*
X906367Y483756D01*
X906033Y483956D01*
X905867Y484356D01*
X905867Y484756D01*
X906033Y485156D01*
X906367Y485356D01*
G54D22*
X905867Y482623D02*
X905533Y482623D01*
X905200Y482823D01*
X905200Y483023D01*
G54D22*
X908033Y481890D02*
X908367Y481690D01*
X908534Y481290D01*
X908533Y480890D01*
X908367Y480490D01*
X908033Y480290D01*
X907700Y480290D01*
X907367Y480490D01*
X907200Y480890D01*
X907034Y480490D01*
X906700Y480290D01*
X906367Y480290D01*
X906034Y480490D01*
X905867Y480890D01*
X905867Y481290D01*
X906034Y481690D01*
X906367Y481890D01*
G54D22*
X908534Y479557D02*
X905867Y478557D01*
X908534Y477557D01*
G54D22*
X899867Y485356D02*
X902533Y484356D01*
X899867Y483356D01*
G54D22*
X900867Y484956D02*
X900867Y483756D01*
G54D22*
X899867Y481023D02*
X899867Y482623D01*
X900034Y482623D01*
X900367Y482423D01*
X901367Y481223D01*
X901700Y481023D01*
X902033Y481023D01*
X902367Y481223D01*
X902534Y481623D01*
X902534Y482023D01*
X902367Y482423D01*
X902033Y482623D01*
G54D22*
X892867Y485356D02*
X895533Y484356D01*
X892867Y483356D01*
G54D22*
X893867Y484956D02*
X893867Y483756D01*
G54D22*
X895033Y482623D02*
X895367Y482423D01*
X895534Y482023D01*
X895534Y481623D01*
X895367Y481223D01*
X895033Y481023D01*
X894700Y481023D01*
X894367Y481223D01*
X894200Y481623D01*
X894033Y481223D01*
X893700Y481023D01*
X893367Y481023D01*
X893033Y481223D01*
X892867Y481623D01*
X892867Y482023D01*
X893034Y482423D01*
X893367Y482623D01*
G54D22*
X886367Y485356D02*
X889033Y484356D01*
X886367Y483356D01*
G54D22*
X887367Y484956D02*
X887367Y483756D01*
G54D22*
X886367Y481423D02*
X889033Y481423D01*
X887367Y482623D01*
X887034Y482623D01*
X887034Y481023D01*
G54D22*
X879867Y485356D02*
X882534Y484356D01*
X879867Y483356D01*
G54D22*
X880867Y484956D02*
X880867Y483756D01*
G54D22*
X882534Y481023D02*
X882534Y482623D01*
X881367Y482623D01*
X881367Y482423D01*
X881534Y482023D01*
X881534Y481623D01*
X881367Y481223D01*
X881033Y481023D01*
X880367Y481023D01*
X880033Y481223D01*
X879867Y481623D01*
X879867Y482023D01*
X880033Y482423D01*
X880367Y482623D01*
G54D22*
X873367Y485356D02*
X876034Y484356D01*
X873367Y483356D01*
G54D22*
X874367Y484956D02*
X874367Y483756D01*
G54D22*
X875534Y481023D02*
X875867Y481223D01*
X876034Y481623D01*
X876033Y482023D01*
X875867Y482423D01*
X875534Y482623D01*
X874700Y482623D01*
X874533Y482623D01*
X874867Y482023D01*
X874867Y481623D01*
X874700Y481223D01*
X874367Y481023D01*
X873867Y481023D01*
X873534Y481223D01*
X873367Y481623D01*
X873367Y482023D01*
X873533Y482423D01*
X873867Y482623D01*
X874700Y482623D01*
G54D22*
X866867Y485356D02*
X869533Y484356D01*
X866867Y483356D01*
G54D22*
X867867Y484956D02*
X867867Y483756D01*
G54D22*
X869534Y482623D02*
X869534Y481023D01*
X869200Y481223D01*
X868700Y481623D01*
X868033Y482023D01*
X867534Y482223D01*
X866867Y482223D01*
G54D22*
X860367Y485356D02*
X863034Y484356D01*
X860367Y483356D01*
G54D22*
X861367Y484956D02*
X861367Y483756D01*
G54D22*
X861700Y481623D02*
X861700Y482023D01*
X861867Y482423D01*
X862200Y482623D01*
X862534Y482623D01*
X862867Y482423D01*
X863033Y482023D01*
X863034Y481623D01*
X862867Y481223D01*
X862534Y481023D01*
X862200Y481023D01*
X861867Y481223D01*
X861700Y481623D01*
X861533Y481223D01*
X861200Y481023D01*
X860867Y481023D01*
X860534Y481223D01*
X860367Y481623D01*
X860367Y482023D01*
X860533Y482423D01*
X860867Y482623D01*
X861200Y482623D01*
X861533Y482423D01*
X861700Y482023D01*
G54D22*
X856034Y483756D02*
X854367Y483756D01*
X854034Y483956D01*
X853867Y484356D01*
X853867Y484756D01*
X854034Y485156D01*
X854367Y485356D01*
X856034Y485356D01*
X856367Y485156D01*
X856533Y484756D01*
X856533Y484356D01*
X856367Y483956D01*
X856034Y483756D01*
G54D22*
X853867Y481623D02*
X853867Y483023D01*
X856534Y483023D01*
X856533Y481623D01*
G54D22*
X855200Y483023D02*
X855200Y481623D01*
G54D22*
X912867Y542833D02*
X915533Y542833D01*
X915533Y541833D01*
X915367Y541433D01*
X915033Y541233D01*
X914700Y541233D01*
X914367Y541433D01*
X914200Y541833D01*
X914034Y541433D01*
X913700Y541233D01*
X913367Y541233D01*
X913034Y541433D01*
X912867Y541833D01*
X912867Y542833D01*
G54D22*
X914200Y542833D02*
X914200Y541833D01*
G54D22*
X914533Y540500D02*
X915534Y539500D01*
X912867Y539500D01*
G54D22*
X908533Y541233D02*
X908533Y542833D01*
X907367Y542833D01*
X907367Y542633D01*
X907534Y542233D01*
X907533Y541833D01*
X907367Y541433D01*
X907034Y541233D01*
X906367Y541233D01*
X906033Y541433D01*
X905867Y541833D01*
X905867Y542233D01*
X906034Y542633D01*
X906367Y542833D01*
G54D22*
X908534Y540500D02*
X905867Y539500D01*
X908534Y538500D01*
G54D22*
X899867Y542833D02*
X902533Y542833D01*
X902533Y541833D01*
X902367Y541433D01*
X902033Y541233D01*
X901700Y541233D01*
X901367Y541433D01*
X901200Y541833D01*
X901034Y541433D01*
X900700Y541233D01*
X900367Y541233D01*
X900034Y541433D01*
X899867Y541833D01*
X899867Y542833D01*
G54D22*
X901200Y542833D02*
X901200Y541833D01*
G54D22*
X899867Y538900D02*
X899867Y540500D01*
X900034Y540500D01*
X900367Y540300D01*
X901367Y539100D01*
X901700Y538900D01*
X902033Y538900D01*
X902367Y539100D01*
X902534Y539500D01*
X902534Y539900D01*
X902367Y540300D01*
X902033Y540500D01*
G54D22*
X892867Y542833D02*
X895533Y542833D01*
X895533Y541833D01*
X895367Y541433D01*
X895033Y541233D01*
X894700Y541233D01*
X894367Y541433D01*
X894200Y541833D01*
X894034Y541433D01*
X893700Y541233D01*
X893367Y541233D01*
X893034Y541433D01*
X892867Y541833D01*
X892867Y542833D01*
G54D22*
X894200Y542833D02*
X894200Y541833D01*
G54D22*
X895033Y540500D02*
X895367Y540300D01*
X895533Y539900D01*
X895534Y539500D01*
X895367Y539100D01*
X895033Y538900D01*
X894700Y538900D01*
X894367Y539100D01*
X894200Y539500D01*
X894033Y539100D01*
X893700Y538900D01*
X893367Y538900D01*
X893033Y539100D01*
X892867Y539500D01*
X892867Y539900D01*
X893034Y540300D01*
X893367Y540500D01*
G54D22*
X886367Y542833D02*
X889034Y542833D01*
X889034Y541833D01*
X888867Y541433D01*
X888533Y541233D01*
X888200Y541233D01*
X887867Y541433D01*
X887700Y541833D01*
X887533Y541433D01*
X887200Y541233D01*
X886867Y541233D01*
X886533Y541433D01*
X886367Y541833D01*
X886367Y542833D01*
G54D22*
X887700Y542833D02*
X887700Y541833D01*
G54D22*
X886367Y539300D02*
X889033Y539300D01*
X887367Y540500D01*
X887034Y540500D01*
X887033Y538900D01*
G54D22*
X879867Y542833D02*
X882534Y542833D01*
X882533Y541833D01*
X882367Y541433D01*
X882034Y541233D01*
X881700Y541233D01*
X881367Y541433D01*
X881200Y541833D01*
X881034Y541433D01*
X880700Y541233D01*
X880367Y541233D01*
X880034Y541433D01*
X879867Y541833D01*
X879867Y542833D01*
G54D22*
X881200Y542833D02*
X881200Y541833D01*
G54D22*
X882534Y538900D02*
X882533Y540500D01*
X881367Y540500D01*
X881367Y540300D01*
X881534Y539900D01*
X881533Y539500D01*
X881367Y539100D01*
X881033Y538900D01*
X880367Y538900D01*
X880033Y539100D01*
X879867Y539500D01*
X879867Y539900D01*
X880033Y540300D01*
X880367Y540500D01*
G54D22*
X873367Y542833D02*
X876034Y542833D01*
X876033Y541833D01*
X875867Y541433D01*
X875533Y541233D01*
X875200Y541233D01*
X874867Y541433D01*
X874700Y541833D01*
X874534Y541433D01*
X874200Y541233D01*
X873867Y541233D01*
X873533Y541433D01*
X873367Y541833D01*
X873367Y542833D01*
G54D22*
X874700Y542833D02*
X874700Y541833D01*
G54D22*
X875534Y538900D02*
X875867Y539100D01*
X876034Y539500D01*
X876033Y539900D01*
X875867Y540300D01*
X875533Y540500D01*
X874700Y540500D01*
X874534Y540500D01*
X874867Y539900D01*
X874867Y539500D01*
X874700Y539100D01*
X874367Y538900D01*
X873867Y538900D01*
X873534Y539100D01*
X873367Y539500D01*
X873367Y539900D01*
X873533Y540300D01*
X873867Y540500D01*
X874700Y540500D01*
G54D22*
X866867Y542833D02*
X869533Y542833D01*
X869533Y541833D01*
X869367Y541433D01*
X869034Y541233D01*
X868700Y541233D01*
X868367Y541433D01*
X868200Y541833D01*
X868033Y541433D01*
X867700Y541233D01*
X867367Y541233D01*
X867034Y541433D01*
X866867Y541833D01*
X866867Y542833D01*
G54D22*
X868200Y542833D02*
X868200Y541833D01*
G54D22*
X869534Y540500D02*
X869534Y538900D01*
X869200Y539100D01*
X868700Y539500D01*
X868033Y539900D01*
X867534Y540100D01*
X866867Y540100D01*
G54D22*
X860367Y542833D02*
X863034Y542833D01*
X863033Y541833D01*
X862867Y541433D01*
X862533Y541233D01*
X862200Y541233D01*
X861867Y541433D01*
X861700Y541833D01*
X861534Y541433D01*
X861200Y541233D01*
X860867Y541233D01*
X860534Y541433D01*
X860367Y541833D01*
X860367Y542833D01*
G54D22*
X861700Y542833D02*
X861700Y541833D01*
G54D22*
X861700Y539500D02*
X861700Y539900D01*
X861867Y540300D01*
X862200Y540500D01*
X862534Y540500D01*
X862867Y540300D01*
X863033Y539900D01*
X863034Y539500D01*
X862867Y539100D01*
X862534Y538900D01*
X862200Y538900D01*
X861867Y539100D01*
X861700Y539500D01*
X861533Y539100D01*
X861200Y538900D01*
X860867Y538900D01*
X860533Y539100D01*
X860367Y539500D01*
X860367Y539900D01*
X860533Y540300D01*
X860867Y540500D01*
X861200Y540500D01*
X861533Y540300D01*
X861700Y539900D01*
G54D22*
X855200Y542033D02*
X855200Y541233D01*
X854367Y541233D01*
X854033Y541433D01*
X853867Y541833D01*
X853867Y542233D01*
X854033Y542633D01*
X854367Y542833D01*
X856034Y542833D01*
X856367Y542633D01*
X856533Y542233D01*
X856533Y541833D01*
X856367Y541433D01*
X856034Y541233D01*
G54D22*
X853867Y540500D02*
X856533Y540500D01*
X853867Y538900D01*
X856533Y538900D01*
G54D22*
X853867Y538167D02*
X856533Y538167D01*
X856534Y537167D01*
X856367Y536767D01*
X856033Y536567D01*
X854367Y536567D01*
X854033Y536767D01*
X853867Y537167D01*
X853867Y538167D01*
G54D10*
G75*
G01X909733Y495134D02*
G03X909733Y495134I2000J0D01*
G01*
G54D16*
X932867Y534067D02*
X950867Y534067D01*
X950867Y500067D01*
X932867Y500067D01*
X932867Y534067D01*
G54D17*
X942886Y531342D02*
X945553Y528675D01*
X938442Y528675D01*
G54D17*
X944219Y522452D02*
X939775Y522452D01*
X938886Y522986D01*
X938442Y524052D01*
X938442Y525119D01*
X938886Y526185D01*
X939775Y526719D01*
X944219Y526719D01*
X945108Y526186D01*
X945553Y525119D01*
X945553Y524052D01*
X945108Y522986D01*
X944219Y522452D01*
G54D17*
X944219Y516229D02*
X939775Y516229D01*
X938886Y516762D01*
X938442Y517829D01*
X938442Y518896D01*
X938886Y519963D01*
X939775Y520496D01*
X944219Y520496D01*
X945108Y519963D01*
X945553Y518896D01*
X945553Y517830D01*
X945108Y516763D01*
X944219Y516229D01*
G54D17*
X938442Y514273D02*
X942442Y514273D01*
G54D17*
X941553Y514273D02*
X942175Y513740D01*
X942442Y512673D01*
X942175Y511606D01*
X941553Y511073D01*
X938442Y511073D01*
G54D17*
X938442Y509117D02*
X945553Y509117D01*
X945553Y505384D01*
G54D17*
X941997Y509117D02*
X941997Y505384D01*
G54D16*
X1216000Y725000D02*
X1238000Y725000D01*
X1238000Y675000D01*
X1216000Y675000D01*
X1216000Y725000D01*
G54D18*
X1230223Y700667D02*
X1224668Y700667D01*
X1223556Y701333D01*
X1223001Y702667D01*
X1223001Y704000D01*
X1223556Y705333D01*
X1224668Y706000D01*
X1230223Y706000D01*
X1231334Y705333D01*
X1231890Y704000D01*
X1231890Y702667D01*
X1231334Y701333D01*
X1230223Y700667D01*
G54D18*
X1227446Y695556D02*
X1226334Y693556D01*
X1225223Y692889D01*
X1223001Y692890D01*
G54D18*
X1223001Y698223D02*
X1231890Y698223D01*
X1231890Y694890D01*
X1231334Y693556D01*
X1230223Y692890D01*
X1229112Y692890D01*
X1228001Y693556D01*
X1227446Y694890D01*
X1227445Y698223D01*
G54D16*
X1216000Y775000D02*
X1238000Y775000D01*
X1238000Y725000D01*
X1216000Y725000D01*
X1216000Y775000D01*
G54D18*
X1230223Y750667D02*
X1224668Y750667D01*
X1223556Y751333D01*
X1223001Y752667D01*
X1223001Y754000D01*
X1223556Y755333D01*
X1224668Y756000D01*
X1230223Y756000D01*
X1231334Y755333D01*
X1231890Y754000D01*
X1231890Y752667D01*
X1231334Y751333D01*
X1230223Y750667D01*
G54D18*
X1227445Y745556D02*
X1226334Y743556D01*
X1225223Y742889D01*
X1223001Y742890D01*
G54D18*
X1223001Y748223D02*
X1231890Y748223D01*
X1231890Y744890D01*
X1231334Y743556D01*
X1230223Y742890D01*
X1229112Y742890D01*
X1228001Y743556D01*
X1227445Y744890D01*
X1227445Y748223D01*
G54D16*
X346550Y845350D02*
X346550Y859350D01*
X381550Y859350D01*
X381550Y845350D01*
X346550Y845350D01*
G36*
X346550Y845350D02*
X346550Y859350D01*
X356550Y859350D01*
X356550Y845350D01*
X346550Y845350D01*
G37*
G54D10*
X346550Y845350D02*
X346550Y859350D01*
X356550Y859350D01*
X356550Y845350D01*
X346550Y845350D01*
G54D17*
X361206Y847350D02*
X358539Y850017D01*
X365650Y850017D01*
G54D17*
X365650Y851973D02*
X358539Y854640D01*
X365650Y857306D01*
G54D17*
X362983Y853040D02*
X362983Y856240D01*
M02*
