%FSLAX34Y34*%
%MOMM*%
%LNCOPPER_TOP*%
G71*
G01*
%ADD10R, 3.00X2.30*%
%ADD11R, 2.30X2.20*%
%ADD12R, 1.80X1.95*%
%ADD13C, 2.80*%
%ADD14C, 3.00*%
%ADD15R, 2.40X2.40*%
%ADD16C, 3.80*%
%ADD17C, 2.50*%
%ADD18C, 3.00*%
%ADD19C, 1.60*%
%ADD20C, 0.80*%
%ADD21C, 2.20*%
%ADD22C, 1.30*%
%ADD23R, 1.90X2.00*%
%ADD24C, 1.40*%
%ADD25C, 1.80*%
%ADD26C, 1.20*%
%ADD27C, 2.80*%
%ADD28R, 3.20X1.60*%
%ADD29C, 1.50*%
%ADD30C, 0.70*%
%ADD31R, 1.60X3.20*%
%ADD32R, 2.80X2.40*%
%ADD33R, 2.00X1.90*%
%ADD34C, 0.60*%
%ADD35C, 1.59*%
%ADD36R, 2.20X1.50*%
%ADD37R, 1.50X1.40*%
%ADD38R, 1.00X1.15*%
%ADD39C, 2.00*%
%ADD40C, 2.20*%
%ADD41R, 1.60X1.60*%
%ADD42C, 1.70*%
%ADD43C, 2.20*%
%ADD44C, 0.50*%
%ADD45R, 1.10X1.20*%
%ADD46C, 1.00*%
%ADD47C, 0.40*%
%ADD48C, 2.00*%
%ADD49R, 2.40X0.80*%
%ADD50R, 0.80X2.40*%
%ADD51R, 2.00X1.60*%
%ADD52R, 1.20X1.10*%
%ADD53C, 0.79*%
%LPD*%
G36*
X0Y1000000D02*
X1420000Y1000000D01*
X1420000Y320000D01*
X0Y320000D01*
X0Y1000000D01*
G37*
%LPC*%
X168000Y597500D02*
G54D10*
D03*
X168000Y552500D02*
G54D10*
D03*
X252000Y597500D02*
G54D10*
D03*
X252000Y552500D02*
G54D10*
D03*
X571000Y419000D02*
G54D11*
D03*
X649000Y419000D02*
G54D11*
D03*
X610000Y439750D02*
G54D12*
D03*
X610000Y398250D02*
G54D12*
D03*
X960812Y936885D02*
G54D13*
D03*
X960812Y911485D02*
G54D13*
D03*
X960812Y886085D02*
G54D13*
D03*
X960812Y860685D02*
G54D13*
D03*
X960812Y835285D02*
G54D13*
D03*
X960812Y809885D02*
G54D13*
D03*
X960812Y784485D02*
G54D13*
D03*
X960812Y759085D02*
G54D13*
D03*
X960812Y733685D02*
G54D13*
D03*
X960812Y708285D02*
G54D13*
D03*
X960812Y682885D02*
G54D13*
D03*
X960812Y657485D02*
G54D13*
D03*
X960812Y632085D02*
G54D13*
D03*
X960812Y606685D02*
G54D13*
D03*
X960812Y581285D02*
G54D13*
D03*
X1113212Y936885D02*
G54D13*
D03*
X1113212Y911485D02*
G54D13*
D03*
X1113212Y886085D02*
G54D13*
D03*
X1113212Y860685D02*
G54D13*
D03*
X1113212Y835285D02*
G54D13*
D03*
X1113212Y809885D02*
G54D13*
D03*
X1113212Y784485D02*
G54D13*
D03*
X1113212Y759085D02*
G54D13*
D03*
X1113212Y733685D02*
G54D13*
D03*
X1113212Y708285D02*
G54D13*
D03*
X1113212Y682885D02*
G54D13*
D03*
X1113212Y657485D02*
G54D13*
D03*
X1113212Y632085D02*
G54D13*
D03*
X1113212Y606685D02*
G54D13*
D03*
X1113212Y581285D02*
G54D13*
D03*
X168000Y757500D02*
G54D10*
D03*
X168000Y712500D02*
G54D10*
D03*
X252000Y757500D02*
G54D10*
D03*
X252000Y712500D02*
G54D10*
D03*
X88000Y677500D02*
G54D10*
D03*
X88000Y632500D02*
G54D10*
D03*
X172000Y677500D02*
G54D10*
D03*
X172000Y632500D02*
G54D10*
D03*
X248000Y677500D02*
G54D10*
D03*
X248000Y632500D02*
G54D10*
D03*
X332000Y677500D02*
G54D10*
D03*
X332000Y632500D02*
G54D10*
D03*
X771000Y419000D02*
G54D11*
D03*
X849000Y419000D02*
G54D11*
D03*
X810000Y439750D02*
G54D12*
D03*
X810000Y398250D02*
G54D12*
D03*
X1098000Y417500D02*
G54D10*
D03*
X1098000Y372500D02*
G54D10*
D03*
X1182000Y417500D02*
G54D10*
D03*
X1182000Y372500D02*
G54D10*
D03*
X1228000Y677500D02*
G54D10*
D03*
X1228000Y632500D02*
G54D10*
D03*
X1312000Y677500D02*
G54D10*
D03*
X1312000Y632500D02*
G54D10*
D03*
X1228000Y547500D02*
G54D10*
D03*
X1228000Y502500D02*
G54D10*
D03*
X1312000Y547500D02*
G54D10*
D03*
X1312000Y502500D02*
G54D10*
D03*
X1228000Y807500D02*
G54D10*
D03*
X1228000Y762500D02*
G54D10*
D03*
X1312000Y807500D02*
G54D10*
D03*
X1312000Y762500D02*
G54D10*
D03*
X700738Y901900D02*
G54D14*
D03*
X700738Y724100D02*
G54D14*
D03*
X837262Y901900D02*
G54D14*
D03*
X837262Y724100D02*
G54D14*
D03*
X238000Y417500D02*
G54D10*
D03*
X238000Y372500D02*
G54D10*
D03*
X322000Y417500D02*
G54D10*
D03*
X322000Y372500D02*
G54D10*
D03*
X204000Y401500D02*
G54D15*
D03*
X204000Y373500D02*
G54D15*
D03*
X214000Y677000D02*
G54D15*
D03*
X214000Y649000D02*
G54D15*
D03*
X133500Y597000D02*
G54D15*
D03*
X133500Y569000D02*
G54D15*
D03*
X1253500Y474500D02*
G54D15*
D03*
X1225500Y474500D02*
G54D15*
D03*
X710000Y369000D02*
G54D15*
D03*
X710000Y397000D02*
G54D15*
D03*
X134500Y757000D02*
G54D15*
D03*
X134500Y729000D02*
G54D15*
D03*
X1285000Y733000D02*
G54D15*
D03*
X1257000Y733000D02*
G54D15*
D03*
X1070000Y373000D02*
G54D15*
D03*
X1070000Y401000D02*
G54D15*
D03*
X1285000Y707000D02*
G54D15*
D03*
X1257000Y707000D02*
G54D15*
D03*
X910000Y369000D02*
G54D15*
D03*
X910000Y397000D02*
G54D15*
D03*
X649500Y701500D02*
G54D13*
D03*
X649500Y904700D02*
G54D16*
D03*
X509500Y701500D02*
G54D13*
D03*
X509500Y904700D02*
G54D16*
D03*
X541400Y879300D02*
G54D13*
D03*
X566800Y879300D02*
G54D13*
D03*
X592200Y879300D02*
G54D13*
D03*
X617600Y879300D02*
G54D13*
D03*
X1163112Y947894D02*
G54D17*
D03*
X1163112Y922494D02*
G54D17*
D03*
X1183112Y947894D02*
G54D17*
D03*
X1183112Y922494D02*
G54D17*
D03*
X1203112Y947894D02*
G54D17*
D03*
X1203112Y922494D02*
G54D17*
D03*
X1139612Y934194D02*
G54D18*
D03*
X1226612Y934194D02*
G54D18*
D03*
G54D19*
X589000Y966000D02*
X543000Y920000D01*
G54D19*
X541400Y879300D02*
X541400Y918400D01*
X543000Y920000D01*
G54D19*
X1113212Y657485D02*
X1075515Y657485D01*
X1066000Y667000D01*
X1066000Y778000D01*
X1082000Y794000D01*
G54D19*
X1113000Y955000D02*
X1156006Y955000D01*
X1163112Y947894D01*
G54D19*
X1115000Y967000D02*
X1177000Y967000D01*
X1182000Y962000D01*
G54D19*
X1183112Y947894D02*
X1183112Y960888D01*
X1182000Y962000D01*
G54D19*
X1115000Y967000D02*
X849000Y967000D01*
X844000Y962000D01*
G54D19*
X752000Y916000D02*
X798000Y916000D01*
X824402Y942402D01*
G54D19*
X752000Y916000D02*
X714838Y916000D01*
X700738Y901900D01*
G54D20*
X702000Y882000D02*
X817362Y882000D01*
X839000Y870000D01*
X1164012Y860685D02*
G54D13*
D03*
X1189412Y860685D02*
G54D13*
D03*
X1189412Y835285D02*
G54D13*
D03*
X1164012Y835285D02*
G54D13*
D03*
X1164012Y809885D02*
G54D13*
D03*
X1189412Y809885D02*
G54D13*
D03*
X1189412Y784485D02*
G54D13*
D03*
X1164012Y759085D02*
G54D13*
D03*
X1164012Y784485D02*
G54D13*
D03*
X1189412Y759085D02*
G54D13*
D03*
X1164012Y733685D02*
G54D13*
D03*
X1189412Y733685D02*
G54D13*
D03*
X1189412Y708285D02*
G54D13*
D03*
X1164012Y708285D02*
G54D13*
D03*
X1189412Y682885D02*
G54D13*
D03*
X1164012Y682885D02*
G54D13*
D03*
G54D19*
X1242000Y910000D02*
X1215606Y910000D01*
X1203112Y922494D01*
G54D19*
X1242000Y910000D02*
X1276000Y910000D01*
X1401000Y785000D01*
X1401000Y525000D01*
X1215000Y339000D01*
X419400Y339000D01*
G54D21*
X1113212Y759085D02*
X1164012Y759085D01*
G54D21*
X1164012Y733685D02*
X1113212Y733685D01*
G54D21*
X1113212Y784485D02*
X1164012Y784485D01*
G54D21*
X1113212Y809885D02*
X1164012Y809885D01*
G54D22*
X1113212Y936885D02*
X1113212Y935788D01*
X1139000Y910000D01*
G54D21*
X1113212Y835285D02*
X1164012Y835285D01*
G54D21*
X1113212Y860685D02*
X1164012Y860685D01*
G54D21*
X1113212Y708285D02*
X1164012Y708285D01*
G54D21*
X1113212Y657485D02*
X1138612Y657485D01*
X1164012Y682885D01*
G54D19*
X1209000Y682000D02*
X1209000Y697000D01*
X1198000Y708000D01*
G54D19*
X1189412Y708285D02*
X1197715Y708285D01*
X1198000Y708000D01*
G54D19*
X315750Y830100D02*
X416900Y830100D01*
X430000Y818000D01*
X430000Y768000D01*
X440000Y758000D01*
G54D19*
X315750Y804700D02*
X404300Y804700D01*
X418000Y791000D01*
X418000Y761000D01*
X431000Y748000D01*
G54D20*
X464250Y931700D02*
X273750Y931700D01*
X298750Y830100D02*
G54D23*
D03*
X315750Y830100D02*
G54D23*
D03*
X298750Y804700D02*
G54D23*
D03*
X315750Y804700D02*
G54D23*
D03*
G54D19*
X298750Y830100D02*
X273750Y830100D01*
G54D19*
X298750Y804700D02*
X273750Y804700D01*
X211750Y957100D02*
G54D13*
D03*
X235750Y957100D02*
G54D13*
D03*
X461000Y568000D02*
G54D15*
D03*
X461000Y596000D02*
G54D15*
D03*
X381300Y369400D02*
G54D14*
D03*
X406700Y369400D02*
G54D14*
D03*
G54D19*
X406700Y369400D02*
X406700Y351700D01*
X419400Y339000D01*
G54D20*
X381300Y369400D02*
X381300Y351700D01*
X368600Y339000D01*
G54D20*
X368600Y339000D02*
X203000Y339000D01*
X18000Y524000D01*
X18000Y784000D01*
X161000Y927000D01*
G54D20*
X273750Y931700D02*
X165700Y931700D01*
X161000Y927000D01*
G54D24*
X1054000Y863000D02*
X1054000Y597000D01*
X1089000Y562000D01*
X1157000Y614000D02*
G54D25*
D03*
G54D20*
X1113212Y606685D02*
X1119685Y606685D01*
X1130000Y617000D01*
X1130000Y623474D01*
X1189412Y682885D01*
G54D19*
X1113212Y581285D02*
X1114285Y581285D01*
X1144000Y611000D01*
X1144000Y619000D01*
X1190000Y665000D01*
X1206000Y665000D01*
X1209000Y668000D01*
X1209000Y697000D01*
X1198000Y708000D01*
X1189697Y708000D01*
X1189412Y708285D01*
G54D26*
X1090000Y561000D02*
X1116000Y561000D01*
X1128000Y573000D01*
X1128000Y579000D01*
X1156000Y607000D01*
G54D26*
X1042000Y608000D02*
X1042000Y591000D01*
X1080000Y553000D01*
X1118000Y553000D01*
X1132000Y567000D01*
X1310000Y461000D02*
G54D27*
D03*
G54D19*
X1310000Y461000D02*
X1320000Y461000D01*
X1390000Y531000D01*
X1390000Y778000D01*
X1325000Y843000D01*
G54D19*
X1189412Y835285D02*
X1204285Y835285D01*
X1205000Y836000D01*
G54D19*
X1189412Y809885D02*
X1195885Y809885D01*
X1225000Y839000D01*
G54D19*
X440000Y758000D02*
X472000Y758000D01*
X541400Y827400D01*
X541400Y845400D01*
X557000Y861000D01*
X674000Y861000D01*
X814000Y721000D01*
X814000Y667000D01*
X871000Y610000D01*
G54D19*
X960812Y606685D02*
X874315Y606685D01*
X871000Y610000D01*
G54D19*
X464000Y747000D02*
X444000Y747000D01*
G54D19*
X464000Y747000D02*
X480000Y747000D01*
X552000Y819000D01*
G54D19*
X588000Y850000D02*
X563000Y850000D01*
X553000Y840000D01*
X553000Y820000D01*
X552000Y819000D01*
G54D19*
X588000Y850000D02*
X667000Y850000D01*
X803000Y714000D01*
X803000Y659000D01*
X864000Y598000D01*
G54D19*
X888000Y595000D02*
X867000Y595000D01*
X864000Y598000D01*
G54D19*
X888000Y595000D02*
X941000Y595000D01*
X960000Y576000D01*
X987169Y448137D02*
G54D28*
D03*
X987168Y460837D02*
G54D28*
D03*
X987168Y473537D02*
G54D28*
D03*
X987168Y486237D02*
G54D28*
D03*
X987168Y498936D02*
G54D28*
D03*
X987168Y511637D02*
G54D28*
D03*
X987168Y524337D02*
G54D28*
D03*
X987169Y537036D02*
G54D28*
D03*
X937168Y537037D02*
G54D28*
D03*
X937168Y524337D02*
G54D28*
D03*
X937168Y511636D02*
G54D28*
D03*
X937169Y498936D02*
G54D28*
D03*
X937169Y486237D02*
G54D28*
D03*
X937168Y473536D02*
G54D28*
D03*
X937169Y460837D02*
G54D28*
D03*
X937168Y448136D02*
G54D28*
D03*
G54D20*
X987169Y537036D02*
X970282Y537036D01*
X958382Y525136D01*
G54D20*
X957582Y524336D02*
X957582Y488336D01*
X956382Y487136D01*
G54D20*
X937168Y486236D02*
X955482Y486236D01*
X956382Y487136D01*
G54D29*
X937168Y498937D02*
X937168Y511636D01*
X896518Y496515D02*
G54D23*
D03*
G36*
X904018Y506515D02*
X923018Y506515D01*
X923018Y486515D01*
X904018Y486515D01*
X904018Y506515D01*
G37*
G54D24*
X1004000Y886000D02*
X1042000Y848000D01*
X1042000Y560000D01*
G54D29*
X937169Y460837D02*
X964279Y460837D01*
X967897Y457219D01*
X967897Y441219D01*
X970897Y438219D01*
G54D29*
X994897Y437219D02*
X971896Y437219D01*
X970897Y438219D01*
G54D29*
X987168Y460837D02*
X1135836Y460837D01*
X1183000Y508000D01*
X1183000Y569000D01*
X1224000Y610000D01*
X1304000Y610000D01*
X1312000Y618000D01*
X1312000Y632500D01*
G54D29*
X1257000Y733000D02*
X1239000Y733000D01*
X1229000Y743000D01*
G54D29*
X1228000Y762500D02*
X1228000Y744000D01*
X1229000Y743000D01*
G54D29*
X1257000Y707000D02*
X1239000Y707000D01*
X1229000Y697000D01*
G54D29*
X1228000Y677500D02*
X1228000Y696000D01*
X1229000Y697000D01*
G54D29*
X1285000Y733000D02*
X1324000Y733000D01*
X1352000Y705000D01*
G54D29*
X1285000Y707000D02*
X1350000Y707000D01*
X1352000Y705000D01*
G54D29*
X1352000Y509000D02*
X1324000Y481000D01*
X1303000Y481000D01*
G54D29*
X994897Y437219D02*
X1146219Y437219D01*
X1207000Y498000D01*
X1207000Y526500D01*
X1228000Y547500D01*
X1352000Y581000D02*
G54D15*
D03*
X1352000Y553000D02*
G54D15*
D03*
G54D24*
X1364000Y567000D02*
X1337000Y567000D01*
G54D29*
X987169Y448137D02*
X1140136Y448137D01*
X1195000Y503000D01*
X1195000Y547000D01*
X1215000Y567000D01*
X1340000Y567000D01*
G54D29*
X1364000Y567000D02*
X1378000Y581000D01*
X1378000Y765000D01*
X1336000Y807000D01*
X1312500Y807000D01*
X1312000Y807500D01*
G54D29*
X1352000Y581000D02*
X1352000Y705000D01*
X1324000Y733000D01*
G54D29*
X1352000Y553000D02*
X1352000Y509000D01*
X1324000Y481000D01*
G54D29*
X1225500Y474500D02*
X1225500Y500000D01*
X1228000Y502500D01*
G54D29*
X1253500Y474500D02*
X1296500Y474500D01*
X1303000Y481000D01*
X1084000Y499000D02*
G54D27*
D03*
G54D30*
X987169Y537036D02*
X1045964Y537036D01*
X1084000Y521000D01*
X1084000Y499000D01*
G54D29*
X1098000Y372500D02*
X1098000Y388000D01*
X1087000Y399000D01*
G54D29*
X1070000Y401000D02*
X1085000Y401000D01*
X1087000Y399000D01*
G54D19*
X1253500Y474500D02*
X1253500Y395500D01*
X1209000Y351000D01*
X443000Y351000D01*
G36*
X407750Y508484D02*
X423750Y508484D01*
X423751Y476484D01*
X407751Y476484D01*
X407750Y508484D01*
G37*
X428450Y492484D02*
G54D31*
D03*
X441150Y492484D02*
G54D31*
D03*
G36*
X445850Y508484D02*
X461850Y508484D01*
X461850Y476484D01*
X445850Y476484D01*
X445850Y508484D01*
G37*
X466550Y492484D02*
G54D31*
D03*
X479250Y492484D02*
G54D31*
D03*
X491950Y492484D02*
G54D31*
D03*
G36*
X496649Y508484D02*
X512649Y508484D01*
X512650Y476484D01*
X496650Y476484D01*
X496649Y508484D01*
G37*
X504650Y542484D02*
G54D31*
D03*
X491950Y542484D02*
G54D31*
D03*
X479250Y542484D02*
G54D31*
D03*
X466550Y542484D02*
G54D31*
D03*
X453850Y542484D02*
G54D31*
D03*
G36*
X433149Y558484D02*
X449149Y558484D01*
X449150Y526484D01*
X433150Y526484D01*
X433149Y558484D01*
G37*
X428450Y542484D02*
G54D31*
D03*
X415750Y542484D02*
G54D31*
D03*
G54D29*
X466550Y542484D02*
X479250Y542484D01*
X873000Y468000D02*
G54D15*
D03*
X873000Y496000D02*
G54D15*
D03*
G54D30*
X937169Y486237D02*
X923797Y486237D01*
X913518Y496515D01*
G54D29*
X937168Y473536D02*
X919464Y473536D01*
X911000Y482000D01*
G54D24*
X889000Y482000D02*
X862000Y482000D01*
G54D29*
X911000Y482000D02*
X889000Y482000D01*
G54D19*
X896518Y496515D02*
X873515Y496515D01*
X873000Y496000D01*
G54D29*
X1070000Y373000D02*
X1070000Y351000D01*
G54D29*
X204000Y373500D02*
X237000Y373500D01*
X238000Y372500D01*
G54D19*
X204000Y401500D02*
X217500Y401500D01*
X223000Y396000D01*
G54D19*
X280000Y395000D02*
X224000Y395000D01*
X223000Y396000D01*
G54D19*
X280000Y395000D02*
X412000Y395000D01*
X429000Y378000D01*
G54D19*
X429000Y378000D02*
X429000Y365000D01*
X443000Y351000D01*
G54D29*
X649000Y419000D02*
X688000Y419000D01*
X710000Y397000D01*
G54D29*
X710000Y369000D02*
X710000Y351000D01*
G54D29*
X910000Y369000D02*
X910000Y351000D01*
G54D29*
X849000Y419000D02*
X888000Y419000D01*
X910000Y397000D01*
G36*
X824798Y979556D02*
X841757Y962575D01*
X824776Y945615D01*
X807816Y962597D01*
X824798Y979556D01*
G37*
G36*
X844598Y959757D02*
X861556Y942774D01*
X844574Y925816D01*
X827615Y942799D01*
X844598Y959757D01*
G37*
G54D24*
X844000Y962000D02*
X824402Y942402D01*
G54D24*
X960812Y911485D02*
X978515Y911485D01*
X1004000Y886000D01*
G54D19*
X962000Y955000D02*
X1048000Y955000D01*
G54D19*
X962000Y955000D02*
X856799Y955000D01*
X844586Y942787D01*
G54D19*
X1086000Y830000D02*
X1086000Y798000D01*
X1082000Y794000D01*
G54D19*
X1086000Y830000D02*
X1086000Y942000D01*
X1098000Y954000D01*
G54D19*
X1113000Y955000D02*
X1099000Y955000D01*
X1098000Y954000D01*
X1084000Y634000D02*
G54D32*
D03*
X1084000Y606000D02*
G54D32*
D03*
G54D20*
X1084000Y606000D02*
X1112526Y606000D01*
X1113212Y606685D01*
G54D19*
X1113212Y657485D02*
X1107485Y657485D01*
X1084000Y634000D01*
G54D29*
X504650Y542484D02*
X561516Y542484D01*
X596000Y508000D01*
X842000Y508000D01*
X857000Y493000D01*
X396018Y528015D02*
G54D33*
D03*
X396018Y545015D02*
G54D33*
D03*
G54D19*
X396018Y545015D02*
X413219Y545015D01*
X415750Y542484D01*
G54D29*
X479250Y542484D02*
X479250Y558250D01*
X487000Y566000D01*
X538000Y566000D01*
G54D29*
X1098000Y417500D02*
X916500Y417500D01*
X901000Y433000D01*
X868000Y433000D01*
X833000Y468000D01*
G54D29*
X491950Y492484D02*
X491950Y478050D01*
X499000Y471000D01*
X830000Y471000D01*
X833000Y468000D01*
G54D29*
X526000Y461000D02*
X492000Y461000D01*
X481000Y472000D01*
G54D29*
X479250Y492484D02*
X479250Y473750D01*
X481000Y472000D01*
G54D29*
X526000Y461000D02*
X729000Y461000D01*
X771000Y419000D01*
G54D29*
X516000Y451000D02*
X539000Y451000D01*
X571000Y419000D01*
G54D29*
X516000Y451000D02*
X485000Y451000D01*
X467000Y469000D01*
G54D29*
X466550Y492484D02*
X466550Y469450D01*
X467000Y469000D01*
G54D29*
X322000Y417500D02*
X425500Y417500D01*
X453000Y445000D01*
G54D29*
X453850Y492484D02*
X453850Y445850D01*
X453000Y445000D01*
G54D29*
X252000Y757500D02*
X347500Y757500D01*
X424000Y681000D01*
G54D29*
X428450Y542484D02*
X428450Y676550D01*
X424000Y681000D01*
G54D29*
X168000Y712500D02*
X151000Y712500D01*
X134500Y729000D01*
X54500Y677000D02*
G54D15*
D03*
X54500Y649000D02*
G54D15*
D03*
G54D29*
X88000Y632500D02*
X71000Y632500D01*
X54500Y649000D01*
G54D19*
X134500Y757000D02*
X86000Y757000D01*
X56000Y727000D01*
G54D19*
X54500Y677000D02*
X54500Y725500D01*
X56000Y727000D01*
G54D19*
X54500Y677000D02*
X44000Y677000D01*
X35000Y668000D01*
X35000Y530000D01*
X163000Y402000D01*
G54D19*
X204000Y401500D02*
X163500Y401500D01*
X163000Y402000D01*
G54D24*
X474000Y582000D02*
X450000Y582000D01*
G54D29*
X441150Y542484D02*
X441150Y573150D01*
X450000Y582000D01*
G54D29*
X453850Y542484D02*
X453850Y560850D01*
X461000Y568000D01*
G54D29*
X461000Y596000D02*
X461000Y653000D01*
X510000Y673000D01*
G54D19*
X978000Y759000D02*
X978000Y775000D01*
X970000Y783000D01*
G54D19*
X960812Y784485D02*
X968515Y784485D01*
X970000Y783000D01*
G54D19*
X978000Y759000D02*
X978000Y573000D01*
G54D19*
X978000Y573000D02*
X978000Y571000D01*
X971000Y564000D01*
G54D19*
X756000Y966000D02*
X821373Y966000D01*
X824787Y962586D01*
G54D19*
X798000Y520000D02*
X849000Y520000D01*
X873000Y496000D01*
G54D19*
X798000Y520000D02*
X609000Y520000D01*
X588000Y541000D01*
G54D19*
X168000Y552500D02*
X150000Y552500D01*
X133500Y569000D01*
G54D19*
X133500Y597000D02*
X102000Y597000D01*
X35000Y530000D01*
X525000Y490000D02*
G54D27*
D03*
G54D19*
X504650Y492484D02*
X522516Y492484D01*
X525000Y490000D01*
G54D29*
X415750Y542484D02*
X415750Y672250D01*
X344000Y744000D01*
X340000Y740000D02*
G54D27*
D03*
G54D29*
X254000Y615000D02*
X209000Y615000D01*
X196000Y628000D01*
X196000Y653500D01*
X172000Y677500D01*
G54D19*
X248000Y632500D02*
X230500Y632500D01*
X214000Y649000D01*
G54D19*
X171000Y694000D02*
X197000Y694000D01*
X214000Y677000D01*
G54D19*
X171000Y694000D02*
X71500Y694000D01*
X54500Y677000D01*
G54D29*
X332000Y677500D02*
X349500Y677500D01*
X358000Y669000D01*
X358000Y523000D01*
X388000Y493000D01*
G54D29*
X415750Y492484D02*
X388516Y492484D01*
X388000Y493000D01*
G54D29*
X254000Y615000D02*
X328000Y615000D01*
X347000Y596000D01*
X347000Y517000D01*
X393000Y471000D01*
G54D29*
X428450Y492484D02*
X428450Y474450D01*
X425000Y471000D01*
X393000Y471000D01*
G54D29*
X252000Y597500D02*
X327500Y597500D01*
X336000Y589000D01*
X336000Y511000D01*
X383000Y464000D01*
G54D29*
X408000Y460000D02*
X387000Y460000D01*
X383000Y464000D01*
G54D29*
X441150Y492484D02*
X441150Y470150D01*
X431000Y460000D01*
X408000Y460000D01*
X349000Y711000D02*
G54D27*
D03*
G54D19*
X251000Y695000D02*
X232000Y695000D01*
X214000Y677000D01*
G54D19*
X251000Y695000D02*
X333000Y695000D01*
X349000Y711000D01*
X982812Y860685D02*
G54D33*
D03*
X982812Y843685D02*
G54D33*
D03*
G54D19*
X960812Y860685D02*
X982812Y860685D01*
X575000Y826000D02*
G54D27*
D03*
G54D19*
X588000Y623000D02*
X588000Y813000D01*
X575000Y826000D01*
X574000Y577000D02*
G54D15*
D03*
X602000Y577000D02*
G54D15*
D03*
G54D24*
X588000Y565000D02*
X588000Y589000D01*
G54D19*
X588000Y541000D02*
X588000Y565000D01*
G54D29*
X538000Y566000D02*
X563000Y566000D01*
X574000Y577000D01*
X818000Y615000D02*
G54D27*
D03*
G54D19*
X602000Y577000D02*
X780000Y577000D01*
X818000Y615000D01*
X885000Y528000D02*
G54D15*
D03*
X913000Y528000D02*
G54D15*
D03*
G54D24*
X899000Y528000D02*
X899000Y517000D01*
G54D24*
X937168Y511636D02*
X904364Y511636D01*
X899000Y517000D01*
G54D24*
X899000Y528000D02*
X899000Y540000D01*
X897000Y542000D01*
X830000Y542000D01*
G54D19*
X873000Y496000D02*
X873000Y516000D01*
X885000Y528000D01*
G54D29*
X937168Y524337D02*
X916663Y524337D01*
X913000Y528000D01*
X528000Y524000D02*
G54D27*
D03*
G54D19*
X504650Y492484D02*
X504650Y507350D01*
X502000Y510000D01*
G54D19*
X478000Y512000D02*
X500000Y512000D01*
X504650Y507350D01*
G54D19*
X478000Y512000D02*
X412033Y512000D01*
X396018Y528015D01*
G54D19*
X453850Y542484D02*
X453850Y512150D01*
X454000Y512000D01*
G54D19*
X493000Y523000D02*
X527000Y523000D01*
X528000Y524000D01*
G54D19*
X491950Y542484D02*
X491950Y524050D01*
X493000Y523000D01*
X399000Y569000D02*
G54D27*
D03*
G54D29*
X415750Y542484D02*
X415750Y552250D01*
X399000Y569000D01*
X574000Y611000D02*
G54D15*
D03*
X602000Y611000D02*
G54D15*
D03*
G54D24*
X588000Y599000D02*
X588000Y623000D01*
G54D19*
X588000Y589000D02*
X588000Y599000D01*
G54D19*
X474000Y582000D02*
X545000Y582000D01*
X574000Y611000D01*
X785000Y615000D02*
G54D27*
D03*
G54D19*
X602000Y611000D02*
X781000Y611000D01*
X785000Y615000D01*
G54D20*
X381300Y369400D02*
X356400Y369400D01*
X356000Y369000D01*
G54D20*
X525000Y490000D02*
X553000Y490000D01*
G54D20*
X525000Y490000D02*
X525000Y505000D01*
G54D20*
X610000Y398250D02*
X610000Y381000D01*
G54D20*
X610000Y439750D02*
X610000Y449000D01*
G54D20*
X610000Y398250D02*
X595750Y398250D01*
X590000Y393000D01*
G54D20*
X610000Y398250D02*
X626750Y398250D01*
X627000Y398000D01*
G54D20*
X610000Y439750D02*
X594250Y439750D01*
X594000Y440000D01*
G54D20*
X610000Y439750D02*
X625750Y439750D01*
X627000Y441000D01*
G54D20*
X810000Y398250D02*
X810000Y383000D01*
G54D20*
X810000Y439750D02*
X810000Y455000D01*
G54D20*
X810000Y439750D02*
X795250Y439750D01*
X795000Y440000D01*
G54D20*
X810000Y439750D02*
X826250Y439750D01*
X830000Y441000D01*
G54D20*
X810000Y398250D02*
X797250Y398250D01*
X794000Y395000D01*
G54D20*
X810000Y398250D02*
X827250Y398250D01*
X833000Y395000D01*
G54D20*
X1084000Y499000D02*
X1058000Y499000D01*
G54D19*
X1084000Y499000D02*
X1084000Y478000D01*
G54D20*
X617600Y879300D02*
X617600Y904600D01*
X619000Y906000D01*
G54D20*
X649500Y904700D02*
X617700Y904700D01*
X617600Y904600D01*
G54D20*
X649500Y904700D02*
X649500Y880500D01*
X650000Y880000D01*
G54D20*
X837262Y901900D02*
X837262Y871738D01*
X839000Y870000D01*
G54D20*
X837262Y901900D02*
X837262Y924738D01*
X837000Y925000D01*
G54D20*
X837262Y901900D02*
X816100Y901900D01*
X815000Y903000D01*
G54D20*
X837262Y901900D02*
X864900Y901900D01*
X865000Y902000D01*
G54D20*
X649500Y904700D02*
X675300Y904700D01*
X677000Y903000D01*
X677000Y890000D01*
X685000Y882000D01*
X702000Y882000D01*
G54D20*
X509500Y904700D02*
X509500Y936200D01*
X508800Y931900D01*
G54D20*
X509500Y904700D02*
X509500Y875500D01*
X508000Y874000D01*
G54D20*
X451550Y931700D02*
X490300Y931700D01*
G54D20*
X490300Y931700D02*
X508800Y931900D01*
G54D20*
X509500Y904700D02*
X484300Y904700D01*
X484000Y905000D01*
G54D20*
X509500Y701500D02*
X509500Y730500D01*
X508000Y732000D01*
G54D20*
X509500Y701500D02*
X537500Y701500D01*
X538000Y701000D01*
G54D19*
X509500Y701500D02*
X509500Y673500D01*
X510000Y673000D01*
G54D20*
X509500Y701500D02*
X482500Y701500D01*
X481000Y703000D01*
G54D20*
X381300Y382800D02*
X381300Y369400D01*
G54D20*
X528500Y904700D02*
X509500Y904700D01*
G54D20*
X617600Y879300D02*
X648300Y879300D01*
X649500Y880500D01*
G54D30*
X798900Y947900D02*
X813550Y947900D01*
G54D30*
X798900Y947900D02*
X798900Y933230D01*
G54D30*
X837262Y724100D02*
X858900Y724100D01*
X859000Y724000D01*
G54D30*
X837262Y724100D02*
X837262Y704262D01*
X837000Y704000D01*
G54D30*
X837262Y724100D02*
X825150Y724100D01*
G54D20*
X1226612Y934194D02*
X1226612Y950178D01*
X1226612Y934194D01*
G54D20*
X1226612Y934194D02*
X1226610Y922030D01*
G54D19*
X1149000Y902000D02*
X1179000Y902000D01*
X1199000Y882000D01*
G54D19*
X1149000Y902000D02*
X1147000Y902000D01*
X1135000Y914000D01*
G54D21*
X1189412Y733685D02*
X1189412Y708285D01*
G54D19*
X273750Y957100D02*
X235750Y957100D01*
X621100Y947900D02*
G54D14*
D03*
X621100Y541500D02*
G54D14*
D03*
X646500Y947900D02*
G54D14*
D03*
X646500Y541500D02*
G54D14*
D03*
X671900Y947900D02*
G54D14*
D03*
X671900Y541500D02*
G54D14*
D03*
X697300Y947900D02*
G54D14*
D03*
X697300Y541500D02*
G54D14*
D03*
X722700Y947900D02*
G54D14*
D03*
X722700Y541500D02*
G54D14*
D03*
X748100Y947900D02*
G54D14*
D03*
X748100Y541500D02*
G54D14*
D03*
X773500Y947900D02*
G54D14*
D03*
X773500Y541500D02*
G54D14*
D03*
X798900Y947900D02*
G54D14*
D03*
X798900Y541500D02*
G54D14*
D03*
X451550Y779300D02*
G54D14*
D03*
X451550Y804700D02*
G54D14*
D03*
X451550Y830100D02*
G54D14*
D03*
X451550Y855500D02*
G54D14*
D03*
X451550Y880900D02*
G54D14*
D03*
X451550Y906300D02*
G54D14*
D03*
X451550Y931700D02*
G54D14*
D03*
X451550Y957100D02*
G54D14*
D03*
X273750Y779300D02*
G54D14*
D03*
X273750Y804700D02*
G54D14*
D03*
X273750Y830100D02*
G54D14*
D03*
X273750Y855500D02*
G54D14*
D03*
X273750Y880900D02*
G54D14*
D03*
X273750Y906300D02*
G54D14*
D03*
X273750Y931700D02*
G54D14*
D03*
X273750Y957100D02*
G54D14*
D03*
X273750Y957100D02*
G54D14*
D03*
G54D19*
X444000Y747000D02*
X432000Y747000D01*
X431000Y748000D01*
G54D19*
X756000Y966000D02*
X589000Y966000D01*
X543000Y920000D01*
X1052000Y951000D02*
G54D25*
D03*
G54D24*
X1054000Y798000D02*
X1054000Y863000D01*
X989000Y928000D01*
G54D24*
X960812Y936885D02*
X980115Y936885D01*
X989000Y928000D01*
G54D19*
X1013000Y955000D02*
X1048000Y955000D01*
X1052000Y951000D01*
G54D19*
X1086000Y942000D02*
X1061000Y942000D01*
X1052000Y951000D01*
X1014000Y844000D02*
G54D25*
D03*
G54D19*
X982812Y843685D02*
X1013685Y843685D01*
X1014000Y844000D01*
G54D19*
X971000Y564000D02*
X950000Y564000D01*
X933000Y581000D01*
X836000Y581000D01*
X821000Y566000D01*
X821000Y551000D01*
X830000Y542000D01*
X872000Y568000D02*
G54D25*
D03*
X845000Y559000D02*
G54D25*
D03*
X930000Y549000D02*
G54D25*
D03*
X964000Y532000D02*
G54D25*
D03*
G54D24*
X960812Y936885D02*
X947885Y936885D01*
X936000Y925000D01*
X936000Y631897D01*
X946812Y620085D02*
G54D25*
D03*
X1102000Y485000D02*
G54D25*
D03*
X1115000Y485000D02*
G54D25*
D03*
X1128000Y485000D02*
G54D25*
D03*
X1141000Y485000D02*
G54D25*
D03*
X1129000Y535000D02*
G54D25*
D03*
X1142000Y535000D02*
G54D25*
D03*
X1155000Y550000D02*
G54D25*
D03*
G54D26*
X1102000Y485000D02*
X1102000Y486000D01*
X1129000Y513000D01*
X1129000Y535000D01*
G54D26*
X1115000Y485000D02*
X1115000Y488000D01*
X1142000Y515000D01*
X1142000Y535000D01*
G54D26*
X1128000Y485000D02*
X1128000Y489000D01*
X1155000Y516000D01*
X1155000Y550000D01*
G54D26*
X1141000Y485000D02*
X1141000Y487000D01*
X1168000Y514000D01*
X1168000Y535000D01*
X1174000Y631000D02*
G54D25*
D03*
X1170000Y567000D02*
G54D25*
D03*
G54D26*
X1170000Y567000D02*
X1170000Y537000D01*
X1168000Y535000D01*
G54D26*
X1157000Y614000D02*
X1157000Y608000D01*
X1156000Y607000D01*
G54D26*
X1174000Y631000D02*
X1174000Y616000D01*
X1165000Y607000D01*
X1165000Y605000D01*
X1152000Y592000D01*
G54D26*
X1135000Y570000D02*
X1135000Y575000D01*
X1152000Y592000D01*
X1169000Y593000D02*
G54D25*
D03*
G54D20*
X1169000Y593000D02*
X1182000Y593000D01*
X1204000Y615000D01*
X1204000Y637000D01*
X1205000Y642000D01*
X962000Y476000D02*
G54D25*
D03*
G54D20*
X962000Y476000D02*
X962000Y481518D01*
X956382Y487136D01*
X861000Y520000D02*
G54D25*
D03*
G54D20*
X649500Y904700D02*
X649500Y927500D01*
G54D24*
X857000Y493000D02*
X857000Y487000D01*
X862000Y482000D01*
X843000Y491000D02*
G54D25*
D03*
G54D29*
X873000Y468000D02*
X901000Y468000D01*
X920864Y448136D01*
G54D29*
X937168Y448136D02*
X920864Y448136D01*
X901000Y468000D01*
G54D26*
X843000Y491000D02*
X843000Y472000D01*
X872000Y443000D01*
X910000Y443000D01*
X920000Y433000D01*
X954000Y433000D02*
G54D25*
D03*
G54D26*
X954000Y433000D02*
X920000Y433000D01*
X910000Y443000D01*
X1037000Y474000D02*
G54D25*
D03*
G54D26*
X1135000Y570000D02*
X1132000Y567000D01*
G54D34*
X1116000Y545000D02*
X1122000Y545000D01*
X1131000Y554000D01*
G54D34*
X1131000Y554000D02*
X1161000Y584000D01*
G54D34*
X1169000Y593000D02*
X1169000Y592000D01*
X1161000Y584000D01*
G54D34*
X1084000Y521000D02*
X1092000Y521000D01*
X1116000Y545000D01*
X1024000Y520000D02*
G54D25*
D03*
G54D24*
X1024000Y520000D02*
X1024000Y487000D01*
X1037000Y474000D01*
G54D19*
X861000Y520000D02*
X849000Y520000D01*
G54D19*
X861000Y520000D02*
X861000Y508000D01*
X866000Y503000D01*
X1232000Y843000D02*
G54D25*
D03*
G54D24*
X936000Y631897D02*
X936000Y630897D01*
X946812Y620085D01*
G54D26*
X1090000Y561000D02*
X1088000Y563000D01*
G54D24*
X871000Y554000D02*
X925000Y554000D01*
X930000Y549000D01*
G54D24*
X871000Y554000D02*
X850000Y554000D01*
X845000Y559000D01*
G54D24*
X872000Y568000D02*
X928000Y568000D01*
X943000Y553000D01*
X1035000Y553000D01*
X1042000Y560000D01*
G54D19*
X1199000Y882000D02*
X1211000Y870000D01*
X1211000Y842000D01*
X1205000Y836000D01*
X1190126Y836000D01*
X1189412Y835285D01*
G54D19*
X1193000Y907000D02*
X1186000Y914000D01*
G54D19*
X1183112Y922494D02*
X1183112Y916888D01*
X1186000Y914000D01*
X1246000Y891000D02*
G54D25*
D03*
G54D19*
X1246000Y891000D02*
X1209000Y891000D01*
X1193000Y907000D01*
X1265000Y924000D02*
G54D25*
D03*
G54D19*
X1265000Y924000D02*
X1265000Y932000D01*
X1217000Y980000D01*
G54D20*
X1226612Y934194D02*
X1243806Y934194D01*
X1244000Y934000D01*
X1109000Y980000D02*
G54D25*
D03*
G54D19*
X1217000Y980000D02*
X1109000Y980000D01*
X1205000Y642000D02*
G54D25*
D03*
G54D20*
X837262Y724100D02*
X837262Y901900D01*
X1078212Y682885D02*
G54D23*
D03*
X1095212Y682885D02*
G54D23*
D03*
G54D19*
X1113212Y682885D02*
X1095212Y682885D01*
G54D19*
X1078212Y682885D02*
X1066115Y682885D01*
X1066000Y683000D01*
G54D35*
X135628Y461334D02*
X135628Y505778D01*
G54D35*
X135628Y479111D02*
X138961Y484667D01*
X145628Y486334D01*
X152295Y484667D01*
X155628Y479111D01*
X155628Y468000D01*
X152295Y462445D01*
X145628Y461334D01*
X138961Y462445D01*
X135628Y468000D01*
G54D35*
X171184Y486334D02*
X184517Y461334D01*
X197851Y486334D01*
G54D35*
X184517Y461334D02*
X181184Y453000D01*
X177851Y450222D01*
X174517Y450222D01*
G54D35*
X229630Y505778D02*
X246297Y483556D01*
X246297Y461334D01*
G54D35*
X246297Y483556D02*
X262963Y505778D01*
G54D35*
X278519Y461334D02*
X278519Y461334D01*
G54D35*
X317408Y461334D02*
X294075Y461334D01*
X294075Y505778D01*
X317408Y505778D01*
G54D35*
X294075Y483556D02*
X317408Y483556D01*
G54D35*
X332964Y461334D02*
X332964Y461334D01*
G54D19*
X1232000Y843000D02*
X1325000Y843000D01*
X1390000Y778000D01*
G54D19*
X1232000Y843000D02*
X1229000Y843000D01*
X1225000Y839000D01*
G54D21*
X1189412Y860685D02*
X1189412Y868588D01*
X1174000Y884000D01*
G54D21*
X1113212Y886085D02*
X1171915Y886085D01*
X1174000Y884000D01*
%LPD*%
X168000Y597500D02*
G54D36*
D03*
X168000Y552500D02*
G54D36*
D03*
X252000Y597500D02*
G54D36*
D03*
X252000Y552500D02*
G54D36*
D03*
X571000Y419000D02*
G54D37*
D03*
X649000Y419000D02*
G54D37*
D03*
X610000Y439750D02*
G54D38*
D03*
X610000Y398250D02*
G54D38*
D03*
X960812Y936885D02*
G54D39*
D03*
X960812Y911485D02*
G54D39*
D03*
X960812Y886085D02*
G54D39*
D03*
X960812Y860685D02*
G54D39*
D03*
X960812Y835285D02*
G54D39*
D03*
X960812Y809885D02*
G54D39*
D03*
X960812Y784485D02*
G54D39*
D03*
X960812Y759085D02*
G54D39*
D03*
X960812Y733685D02*
G54D39*
D03*
X960812Y708285D02*
G54D39*
D03*
X960812Y682885D02*
G54D39*
D03*
X960812Y657485D02*
G54D39*
D03*
X960812Y632085D02*
G54D39*
D03*
X960812Y606685D02*
G54D39*
D03*
X960812Y581285D02*
G54D39*
D03*
X1113212Y936885D02*
G54D39*
D03*
X1113212Y911485D02*
G54D39*
D03*
X1113212Y886085D02*
G54D39*
D03*
X1113212Y860685D02*
G54D39*
D03*
X1113212Y835285D02*
G54D39*
D03*
X1113212Y809885D02*
G54D39*
D03*
X1113212Y784485D02*
G54D39*
D03*
X1113212Y759085D02*
G54D39*
D03*
X1113212Y733685D02*
G54D39*
D03*
X1113212Y708285D02*
G54D39*
D03*
X1113212Y682885D02*
G54D39*
D03*
X1113212Y657485D02*
G54D39*
D03*
X1113212Y632085D02*
G54D39*
D03*
X1113212Y606685D02*
G54D39*
D03*
X1113212Y581285D02*
G54D39*
D03*
X168000Y757500D02*
G54D36*
D03*
X168000Y712500D02*
G54D36*
D03*
X252000Y757500D02*
G54D36*
D03*
X252000Y712500D02*
G54D36*
D03*
X88000Y677500D02*
G54D36*
D03*
X88000Y632500D02*
G54D36*
D03*
X172000Y677500D02*
G54D36*
D03*
X172000Y632500D02*
G54D36*
D03*
X248000Y677500D02*
G54D36*
D03*
X248000Y632500D02*
G54D36*
D03*
X332000Y677500D02*
G54D36*
D03*
X332000Y632500D02*
G54D36*
D03*
X771000Y419000D02*
G54D37*
D03*
X849000Y419000D02*
G54D37*
D03*
X810000Y439750D02*
G54D38*
D03*
X810000Y398250D02*
G54D38*
D03*
X1098000Y417500D02*
G54D36*
D03*
X1098000Y372500D02*
G54D36*
D03*
X1182000Y417500D02*
G54D36*
D03*
X1182000Y372500D02*
G54D36*
D03*
X1228000Y677500D02*
G54D36*
D03*
X1228000Y632500D02*
G54D36*
D03*
X1312000Y677500D02*
G54D36*
D03*
X1312000Y632500D02*
G54D36*
D03*
X1228000Y547500D02*
G54D36*
D03*
X1228000Y502500D02*
G54D36*
D03*
X1312000Y547500D02*
G54D36*
D03*
X1312000Y502500D02*
G54D36*
D03*
X1228000Y807500D02*
G54D36*
D03*
X1228000Y762500D02*
G54D36*
D03*
X1312000Y807500D02*
G54D36*
D03*
X1312000Y762500D02*
G54D36*
D03*
X700738Y901900D02*
G54D40*
D03*
X700738Y724100D02*
G54D40*
D03*
X837262Y901900D02*
G54D40*
D03*
X837262Y724100D02*
G54D40*
D03*
X238000Y417500D02*
G54D36*
D03*
X238000Y372500D02*
G54D36*
D03*
X322000Y417500D02*
G54D36*
D03*
X322000Y372500D02*
G54D36*
D03*
X204000Y401500D02*
G54D41*
D03*
X204000Y373500D02*
G54D41*
D03*
X214000Y677000D02*
G54D41*
D03*
X214000Y649000D02*
G54D41*
D03*
X133500Y597000D02*
G54D41*
D03*
X133500Y569000D02*
G54D41*
D03*
X1253500Y474500D02*
G54D41*
D03*
X1225500Y474500D02*
G54D41*
D03*
X710000Y369000D02*
G54D41*
D03*
X710000Y397000D02*
G54D41*
D03*
X134500Y757000D02*
G54D41*
D03*
X134500Y729000D02*
G54D41*
D03*
X1285000Y733000D02*
G54D41*
D03*
X1257000Y733000D02*
G54D41*
D03*
X1070000Y373000D02*
G54D41*
D03*
X1070000Y401000D02*
G54D41*
D03*
X1285000Y707000D02*
G54D41*
D03*
X1257000Y707000D02*
G54D41*
D03*
X910000Y369000D02*
G54D41*
D03*
X910000Y397000D02*
G54D41*
D03*
X649500Y701500D02*
G54D39*
D03*
X649500Y904700D02*
G54D14*
D03*
X509500Y701500D02*
G54D39*
D03*
X509500Y904700D02*
G54D14*
D03*
X541400Y879300D02*
G54D39*
D03*
X566800Y879300D02*
G54D39*
D03*
X592200Y879300D02*
G54D39*
D03*
X617600Y879300D02*
G54D39*
D03*
X1163112Y947894D02*
G54D42*
D03*
X1163112Y922494D02*
G54D42*
D03*
X1183112Y947894D02*
G54D42*
D03*
X1183112Y922494D02*
G54D42*
D03*
X1203112Y947894D02*
G54D42*
D03*
X1203112Y922494D02*
G54D42*
D03*
X1139612Y934194D02*
G54D43*
D03*
X1226612Y934194D02*
G54D43*
D03*
G54D20*
X589000Y966000D02*
X543000Y920000D01*
G54D20*
X541400Y879300D02*
X541400Y918400D01*
X543000Y920000D01*
G54D20*
X1113212Y657485D02*
X1075515Y657485D01*
X1066000Y667000D01*
X1066000Y778000D01*
X1082000Y794000D01*
G54D20*
X1113000Y955000D02*
X1156006Y955000D01*
X1163112Y947894D01*
G54D20*
X1115000Y967000D02*
X1177000Y967000D01*
X1182000Y962000D01*
G54D20*
X1183112Y947894D02*
X1183112Y960888D01*
X1182000Y962000D01*
G54D20*
X1115000Y967000D02*
X849000Y967000D01*
X844000Y962000D01*
G54D20*
X752000Y916000D02*
X798000Y916000D01*
X824402Y942402D01*
G54D20*
X752000Y916000D02*
X714838Y916000D01*
X700738Y901900D01*
G54D20*
X702000Y882000D02*
X817362Y882000D01*
X839000Y870000D01*
X1164012Y860685D02*
G54D39*
D03*
X1189412Y860685D02*
G54D39*
D03*
X1189412Y835285D02*
G54D39*
D03*
X1164012Y835285D02*
G54D39*
D03*
X1164012Y809885D02*
G54D39*
D03*
X1189412Y809885D02*
G54D39*
D03*
X1189412Y784485D02*
G54D39*
D03*
X1164012Y759085D02*
G54D39*
D03*
X1164012Y784485D02*
G54D39*
D03*
X1189412Y759085D02*
G54D39*
D03*
X1164012Y733685D02*
G54D39*
D03*
X1189412Y733685D02*
G54D39*
D03*
X1189412Y708285D02*
G54D39*
D03*
X1164012Y708285D02*
G54D39*
D03*
X1189412Y682885D02*
G54D39*
D03*
X1164012Y682885D02*
G54D39*
D03*
G54D20*
X1242000Y910000D02*
X1215606Y910000D01*
X1203112Y922494D01*
G54D20*
X1242000Y910000D02*
X1276000Y910000D01*
X1401000Y785000D01*
X1401000Y525000D01*
X1215000Y339000D01*
X419400Y339000D01*
G54D24*
X1113212Y759085D02*
X1164012Y759085D01*
G54D24*
X1164012Y733685D02*
X1113212Y733685D01*
G54D24*
X1113212Y784485D02*
X1164012Y784485D01*
G54D24*
X1113212Y809885D02*
X1164012Y809885D01*
G54D44*
X1113212Y936885D02*
X1113212Y935788D01*
X1139000Y910000D01*
G54D24*
X1113212Y835285D02*
X1164012Y835285D01*
G54D24*
X1113212Y860685D02*
X1164012Y860685D01*
G54D24*
X1113212Y708285D02*
X1164012Y708285D01*
G54D24*
X1113212Y657485D02*
X1138612Y657485D01*
X1164012Y682885D01*
G54D20*
X1209000Y682000D02*
X1209000Y697000D01*
X1198000Y708000D01*
G54D20*
X1189412Y708285D02*
X1197715Y708285D01*
X1198000Y708000D01*
G54D20*
X315750Y830100D02*
X416900Y830100D01*
X430000Y818000D01*
X430000Y768000D01*
X440000Y758000D01*
G54D20*
X315750Y804700D02*
X404300Y804700D01*
X418000Y791000D01*
X418000Y761000D01*
X431000Y748000D01*
G54D20*
X464250Y931700D02*
X273750Y931700D01*
X298750Y830100D02*
G54D45*
D03*
X315750Y830100D02*
G54D45*
D03*
X298750Y804700D02*
G54D45*
D03*
X315750Y804700D02*
G54D45*
D03*
G54D20*
X298750Y830100D02*
X273750Y830100D01*
G54D20*
X298750Y804700D02*
X273750Y804700D01*
X211750Y957100D02*
G54D39*
D03*
X235750Y957100D02*
G54D39*
D03*
X461000Y568000D02*
G54D41*
D03*
X461000Y596000D02*
G54D41*
D03*
X381300Y369400D02*
G54D40*
D03*
X406700Y369400D02*
G54D40*
D03*
G54D20*
X406700Y369400D02*
X406700Y351700D01*
X419400Y339000D01*
G54D20*
X381300Y369400D02*
X381300Y351700D01*
X368600Y339000D01*
G54D20*
X368600Y339000D02*
X203000Y339000D01*
X18000Y524000D01*
X18000Y784000D01*
X161000Y927000D01*
G54D20*
X273750Y931700D02*
X165700Y931700D01*
X161000Y927000D01*
G54D34*
X1054000Y863000D02*
X1054000Y597000D01*
X1089000Y562000D01*
X1157000Y614000D02*
G54D46*
D03*
G54D20*
X1113212Y606685D02*
X1119685Y606685D01*
X1130000Y617000D01*
X1130000Y623474D01*
X1189412Y682885D01*
G54D20*
X1113212Y581285D02*
X1114285Y581285D01*
X1144000Y611000D01*
X1144000Y619000D01*
X1190000Y665000D01*
X1206000Y665000D01*
X1209000Y668000D01*
X1209000Y697000D01*
X1198000Y708000D01*
X1189697Y708000D01*
X1189412Y708285D01*
G54D47*
X1090000Y561000D02*
X1116000Y561000D01*
X1128000Y573000D01*
X1128000Y579000D01*
X1156000Y607000D01*
G54D47*
X1042000Y608000D02*
X1042000Y591000D01*
X1080000Y553000D01*
X1118000Y553000D01*
X1132000Y567000D01*
X1310000Y461000D02*
G54D48*
D03*
G54D20*
X1310000Y461000D02*
X1320000Y461000D01*
X1390000Y531000D01*
X1390000Y778000D01*
X1325000Y843000D01*
G54D20*
X1189412Y835285D02*
X1204285Y835285D01*
X1205000Y836000D01*
G54D20*
X1189412Y809885D02*
X1195885Y809885D01*
X1225000Y839000D01*
G54D20*
X440000Y758000D02*
X472000Y758000D01*
X541400Y827400D01*
X541400Y845400D01*
X557000Y861000D01*
X674000Y861000D01*
X814000Y721000D01*
X814000Y667000D01*
X871000Y610000D01*
G54D20*
X960812Y606685D02*
X874315Y606685D01*
X871000Y610000D01*
G54D20*
X464000Y747000D02*
X444000Y747000D01*
G54D20*
X464000Y747000D02*
X480000Y747000D01*
X552000Y819000D01*
G54D20*
X588000Y850000D02*
X563000Y850000D01*
X553000Y840000D01*
X553000Y820000D01*
X552000Y819000D01*
G54D20*
X588000Y850000D02*
X667000Y850000D01*
X803000Y714000D01*
X803000Y659000D01*
X864000Y598000D01*
G54D20*
X888000Y595000D02*
X867000Y595000D01*
X864000Y598000D01*
G54D20*
X888000Y595000D02*
X941000Y595000D01*
X960000Y576000D01*
X987169Y448137D02*
G54D49*
D03*
X987168Y460837D02*
G54D49*
D03*
X987168Y473537D02*
G54D49*
D03*
X987168Y486237D02*
G54D49*
D03*
X987168Y498936D02*
G54D49*
D03*
X987168Y511637D02*
G54D49*
D03*
X987168Y524337D02*
G54D49*
D03*
X987169Y537036D02*
G54D49*
D03*
X937168Y537037D02*
G54D49*
D03*
X937168Y524337D02*
G54D49*
D03*
X937168Y511636D02*
G54D49*
D03*
X937169Y498936D02*
G54D49*
D03*
X937169Y486237D02*
G54D49*
D03*
X937168Y473536D02*
G54D49*
D03*
X937169Y460837D02*
G54D49*
D03*
X937168Y448136D02*
G54D49*
D03*
G54D20*
X987169Y537036D02*
X970282Y537036D01*
X958382Y525136D01*
G54D20*
X957582Y524336D02*
X957582Y488336D01*
X956382Y487136D01*
G54D20*
X937168Y486236D02*
X955482Y486236D01*
X956382Y487136D01*
G54D30*
X937168Y498937D02*
X937168Y511636D01*
X896518Y496515D02*
G54D45*
D03*
G36*
X908018Y502515D02*
X919018Y502515D01*
X919018Y490515D01*
X908018Y490515D01*
X908018Y502515D01*
G37*
G54D34*
X1004000Y886000D02*
X1042000Y848000D01*
X1042000Y560000D01*
G54D30*
X937169Y460837D02*
X964279Y460837D01*
X967897Y457219D01*
X967897Y441219D01*
X970897Y438219D01*
G54D30*
X994897Y437219D02*
X971896Y437219D01*
X970897Y438219D01*
G54D30*
X987168Y460837D02*
X1135836Y460837D01*
X1183000Y508000D01*
X1183000Y569000D01*
X1224000Y610000D01*
X1304000Y610000D01*
X1312000Y618000D01*
X1312000Y632500D01*
G54D30*
X1257000Y733000D02*
X1239000Y733000D01*
X1229000Y743000D01*
G54D30*
X1228000Y762500D02*
X1228000Y744000D01*
X1229000Y743000D01*
G54D30*
X1257000Y707000D02*
X1239000Y707000D01*
X1229000Y697000D01*
G54D30*
X1228000Y677500D02*
X1228000Y696000D01*
X1229000Y697000D01*
G54D30*
X1285000Y733000D02*
X1324000Y733000D01*
X1352000Y705000D01*
G54D30*
X1285000Y707000D02*
X1350000Y707000D01*
X1352000Y705000D01*
G54D30*
X1352000Y509000D02*
X1324000Y481000D01*
X1303000Y481000D01*
G54D30*
X994897Y437219D02*
X1146219Y437219D01*
X1207000Y498000D01*
X1207000Y526500D01*
X1228000Y547500D01*
X1352000Y581000D02*
G54D41*
D03*
X1352000Y553000D02*
G54D41*
D03*
G54D34*
X1364000Y567000D02*
X1337000Y567000D01*
G54D30*
X987169Y448137D02*
X1140136Y448137D01*
X1195000Y503000D01*
X1195000Y547000D01*
X1215000Y567000D01*
X1340000Y567000D01*
G54D30*
X1364000Y567000D02*
X1378000Y581000D01*
X1378000Y765000D01*
X1336000Y807000D01*
X1312500Y807000D01*
X1312000Y807500D01*
G54D30*
X1352000Y581000D02*
X1352000Y705000D01*
X1324000Y733000D01*
G54D30*
X1352000Y553000D02*
X1352000Y509000D01*
X1324000Y481000D01*
G54D30*
X1225500Y474500D02*
X1225500Y500000D01*
X1228000Y502500D01*
G54D30*
X1253500Y474500D02*
X1296500Y474500D01*
X1303000Y481000D01*
X1084000Y499000D02*
G54D48*
D03*
G54D30*
X987169Y537036D02*
X1045964Y537036D01*
X1084000Y521000D01*
X1084000Y499000D01*
G54D30*
X1098000Y372500D02*
X1098000Y388000D01*
X1087000Y399000D01*
G54D30*
X1070000Y401000D02*
X1085000Y401000D01*
X1087000Y399000D01*
G54D20*
X1253500Y474500D02*
X1253500Y395500D01*
X1209000Y351000D01*
X443000Y351000D01*
G36*
X411750Y504484D02*
X419750Y504484D01*
X419750Y480484D01*
X411750Y480484D01*
X411750Y504484D01*
G37*
X428450Y492484D02*
G54D50*
D03*
X441150Y492484D02*
G54D50*
D03*
G36*
X449850Y504484D02*
X457850Y504484D01*
X457850Y480484D01*
X449850Y480484D01*
X449850Y504484D01*
G37*
X466550Y492484D02*
G54D50*
D03*
X479250Y492484D02*
G54D50*
D03*
X491950Y492484D02*
G54D50*
D03*
G36*
X500649Y504484D02*
X508649Y504484D01*
X508650Y480484D01*
X500650Y480484D01*
X500649Y504484D01*
G37*
X504650Y542484D02*
G54D50*
D03*
X491950Y542484D02*
G54D50*
D03*
X479250Y542484D02*
G54D50*
D03*
X466550Y542484D02*
G54D50*
D03*
X453850Y542484D02*
G54D50*
D03*
G36*
X437150Y554484D02*
X445150Y554484D01*
X445150Y530484D01*
X437150Y530484D01*
X437150Y554484D01*
G37*
X428450Y542484D02*
G54D50*
D03*
X415750Y542484D02*
G54D50*
D03*
G54D30*
X466550Y542484D02*
X479250Y542484D01*
X873000Y468000D02*
G54D41*
D03*
X873000Y496000D02*
G54D41*
D03*
G54D30*
X937169Y486237D02*
X923797Y486237D01*
X913518Y496515D01*
G54D30*
X937168Y473536D02*
X919464Y473536D01*
X911000Y482000D01*
G54D34*
X889000Y482000D02*
X862000Y482000D01*
G54D30*
X911000Y482000D02*
X889000Y482000D01*
G54D20*
X896518Y496515D02*
X873515Y496515D01*
X873000Y496000D01*
G54D30*
X1070000Y373000D02*
X1070000Y351000D01*
G54D30*
X204000Y373500D02*
X237000Y373500D01*
X238000Y372500D01*
G54D20*
X204000Y401500D02*
X217500Y401500D01*
X223000Y396000D01*
G54D20*
X280000Y395000D02*
X224000Y395000D01*
X223000Y396000D01*
G54D20*
X280000Y395000D02*
X412000Y395000D01*
X429000Y378000D01*
G54D20*
X429000Y378000D02*
X429000Y365000D01*
X443000Y351000D01*
G54D30*
X649000Y419000D02*
X688000Y419000D01*
X710000Y397000D01*
G54D30*
X710000Y369000D02*
X710000Y351000D01*
G54D30*
X910000Y369000D02*
X910000Y351000D01*
G54D30*
X849000Y419000D02*
X888000Y419000D01*
X910000Y397000D01*
G36*
X824794Y973900D02*
X836100Y962579D01*
X824780Y951272D01*
X813473Y962593D01*
X824794Y973900D01*
G37*
G36*
X844594Y954100D02*
X855900Y942779D01*
X844578Y931473D01*
X833272Y942795D01*
X844594Y954100D01*
G37*
G54D34*
X844000Y962000D02*
X824402Y942402D01*
G54D34*
X960812Y911485D02*
X978515Y911485D01*
X1004000Y886000D01*
G54D20*
X962000Y955000D02*
X1048000Y955000D01*
G54D20*
X962000Y955000D02*
X856799Y955000D01*
X844586Y942787D01*
G54D20*
X1086000Y830000D02*
X1086000Y798000D01*
X1082000Y794000D01*
G54D20*
X1086000Y830000D02*
X1086000Y942000D01*
X1098000Y954000D01*
G54D20*
X1113000Y955000D02*
X1099000Y955000D01*
X1098000Y954000D01*
X1084000Y634000D02*
G54D51*
D03*
X1084000Y606000D02*
G54D51*
D03*
G54D20*
X1084000Y606000D02*
X1112526Y606000D01*
X1113212Y606685D01*
G54D20*
X1113212Y657485D02*
X1107485Y657485D01*
X1084000Y634000D01*
G54D30*
X504650Y542484D02*
X561516Y542484D01*
X596000Y508000D01*
X842000Y508000D01*
X857000Y493000D01*
X396018Y528015D02*
G54D52*
D03*
X396018Y545015D02*
G54D52*
D03*
G54D20*
X396018Y545015D02*
X413219Y545015D01*
X415750Y542484D01*
G54D30*
X479250Y542484D02*
X479250Y558250D01*
X487000Y566000D01*
X538000Y566000D01*
G54D30*
X1098000Y417500D02*
X916500Y417500D01*
X901000Y433000D01*
X868000Y433000D01*
X833000Y468000D01*
G54D30*
X491950Y492484D02*
X491950Y478050D01*
X499000Y471000D01*
X830000Y471000D01*
X833000Y468000D01*
G54D30*
X526000Y461000D02*
X492000Y461000D01*
X481000Y472000D01*
G54D30*
X479250Y492484D02*
X479250Y473750D01*
X481000Y472000D01*
G54D30*
X526000Y461000D02*
X729000Y461000D01*
X771000Y419000D01*
G54D30*
X516000Y451000D02*
X539000Y451000D01*
X571000Y419000D01*
G54D30*
X516000Y451000D02*
X485000Y451000D01*
X467000Y469000D01*
G54D30*
X466550Y492484D02*
X466550Y469450D01*
X467000Y469000D01*
G54D30*
X322000Y417500D02*
X425500Y417500D01*
X453000Y445000D01*
G54D30*
X453850Y492484D02*
X453850Y445850D01*
X453000Y445000D01*
G54D30*
X252000Y757500D02*
X347500Y757500D01*
X424000Y681000D01*
G54D30*
X428450Y542484D02*
X428450Y676550D01*
X424000Y681000D01*
G54D30*
X168000Y712500D02*
X151000Y712500D01*
X134500Y729000D01*
X54500Y677000D02*
G54D41*
D03*
X54500Y649000D02*
G54D41*
D03*
G54D30*
X88000Y632500D02*
X71000Y632500D01*
X54500Y649000D01*
G54D20*
X134500Y757000D02*
X86000Y757000D01*
X56000Y727000D01*
G54D20*
X54500Y677000D02*
X54500Y725500D01*
X56000Y727000D01*
G54D20*
X54500Y677000D02*
X44000Y677000D01*
X35000Y668000D01*
X35000Y530000D01*
X163000Y402000D01*
G54D20*
X204000Y401500D02*
X163500Y401500D01*
X163000Y402000D01*
G54D34*
X474000Y582000D02*
X450000Y582000D01*
G54D30*
X441150Y542484D02*
X441150Y573150D01*
X450000Y582000D01*
G54D30*
X453850Y542484D02*
X453850Y560850D01*
X461000Y568000D01*
G54D30*
X461000Y596000D02*
X461000Y653000D01*
X510000Y673000D01*
G54D20*
X978000Y759000D02*
X978000Y775000D01*
X970000Y783000D01*
G54D20*
X960812Y784485D02*
X968515Y784485D01*
X970000Y783000D01*
G54D20*
X978000Y759000D02*
X978000Y573000D01*
G54D20*
X978000Y573000D02*
X978000Y571000D01*
X971000Y564000D01*
G54D20*
X756000Y966000D02*
X821373Y966000D01*
X824787Y962586D01*
G54D20*
X798000Y520000D02*
X849000Y520000D01*
X873000Y496000D01*
G54D20*
X798000Y520000D02*
X609000Y520000D01*
X588000Y541000D01*
G54D20*
X168000Y552500D02*
X150000Y552500D01*
X133500Y569000D01*
G54D20*
X133500Y597000D02*
X102000Y597000D01*
X35000Y530000D01*
X525000Y490000D02*
G54D48*
D03*
G54D20*
X504650Y492484D02*
X522516Y492484D01*
X525000Y490000D01*
G54D30*
X415750Y542484D02*
X415750Y672250D01*
X344000Y744000D01*
X340000Y740000D02*
G54D48*
D03*
G54D30*
X254000Y615000D02*
X209000Y615000D01*
X196000Y628000D01*
X196000Y653500D01*
X172000Y677500D01*
G54D20*
X248000Y632500D02*
X230500Y632500D01*
X214000Y649000D01*
G54D20*
X171000Y694000D02*
X197000Y694000D01*
X214000Y677000D01*
G54D20*
X171000Y694000D02*
X71500Y694000D01*
X54500Y677000D01*
G54D30*
X332000Y677500D02*
X349500Y677500D01*
X358000Y669000D01*
X358000Y523000D01*
X388000Y493000D01*
G54D30*
X415750Y492484D02*
X388516Y492484D01*
X388000Y493000D01*
G54D30*
X254000Y615000D02*
X328000Y615000D01*
X347000Y596000D01*
X347000Y517000D01*
X393000Y471000D01*
G54D30*
X428450Y492484D02*
X428450Y474450D01*
X425000Y471000D01*
X393000Y471000D01*
G54D30*
X252000Y597500D02*
X327500Y597500D01*
X336000Y589000D01*
X336000Y511000D01*
X383000Y464000D01*
G54D30*
X408000Y460000D02*
X387000Y460000D01*
X383000Y464000D01*
G54D30*
X441150Y492484D02*
X441150Y470150D01*
X431000Y460000D01*
X408000Y460000D01*
X349000Y711000D02*
G54D48*
D03*
G54D20*
X251000Y695000D02*
X232000Y695000D01*
X214000Y677000D01*
G54D20*
X251000Y695000D02*
X333000Y695000D01*
X349000Y711000D01*
X982812Y860685D02*
G54D52*
D03*
X982812Y843685D02*
G54D52*
D03*
G54D20*
X960812Y860685D02*
X982812Y860685D01*
X575000Y826000D02*
G54D48*
D03*
G54D20*
X588000Y623000D02*
X588000Y813000D01*
X575000Y826000D01*
X574000Y577000D02*
G54D41*
D03*
X602000Y577000D02*
G54D41*
D03*
G54D34*
X588000Y565000D02*
X588000Y589000D01*
G54D20*
X588000Y541000D02*
X588000Y565000D01*
G54D30*
X538000Y566000D02*
X563000Y566000D01*
X574000Y577000D01*
X818000Y615000D02*
G54D48*
D03*
G54D20*
X602000Y577000D02*
X780000Y577000D01*
X818000Y615000D01*
X885000Y528000D02*
G54D41*
D03*
X913000Y528000D02*
G54D41*
D03*
G54D34*
X899000Y528000D02*
X899000Y517000D01*
G54D34*
X937168Y511636D02*
X904364Y511636D01*
X899000Y517000D01*
G54D34*
X899000Y528000D02*
X899000Y540000D01*
X897000Y542000D01*
X830000Y542000D01*
G54D20*
X873000Y496000D02*
X873000Y516000D01*
X885000Y528000D01*
G54D30*
X937168Y524337D02*
X916663Y524337D01*
X913000Y528000D01*
X528000Y524000D02*
G54D48*
D03*
G54D20*
X504650Y492484D02*
X504650Y507350D01*
X502000Y510000D01*
G54D20*
X478000Y512000D02*
X500000Y512000D01*
X504650Y507350D01*
G54D20*
X478000Y512000D02*
X412033Y512000D01*
X396018Y528015D01*
G54D20*
X453850Y542484D02*
X453850Y512150D01*
X454000Y512000D01*
G54D20*
X493000Y523000D02*
X527000Y523000D01*
X528000Y524000D01*
G54D20*
X491950Y542484D02*
X491950Y524050D01*
X493000Y523000D01*
X399000Y569000D02*
G54D48*
D03*
G54D30*
X415750Y542484D02*
X415750Y552250D01*
X399000Y569000D01*
X574000Y611000D02*
G54D41*
D03*
X602000Y611000D02*
G54D41*
D03*
G54D34*
X588000Y599000D02*
X588000Y623000D01*
G54D20*
X588000Y589000D02*
X588000Y599000D01*
G54D20*
X474000Y582000D02*
X545000Y582000D01*
X574000Y611000D01*
X785000Y615000D02*
G54D48*
D03*
G54D20*
X602000Y611000D02*
X781000Y611000D01*
X785000Y615000D01*
G54D20*
X381300Y369400D02*
X356400Y369400D01*
X356000Y369000D01*
G54D20*
X525000Y490000D02*
X553000Y490000D01*
G54D20*
X525000Y490000D02*
X525000Y505000D01*
G54D20*
X610000Y398250D02*
X610000Y381000D01*
G54D20*
X610000Y439750D02*
X610000Y449000D01*
G54D20*
X610000Y398250D02*
X595750Y398250D01*
X590000Y393000D01*
G54D20*
X610000Y398250D02*
X626750Y398250D01*
X627000Y398000D01*
G54D20*
X610000Y439750D02*
X594250Y439750D01*
X594000Y440000D01*
G54D20*
X610000Y439750D02*
X625750Y439750D01*
X627000Y441000D01*
G54D20*
X810000Y398250D02*
X810000Y383000D01*
G54D20*
X810000Y439750D02*
X810000Y455000D01*
G54D20*
X810000Y439750D02*
X795250Y439750D01*
X795000Y440000D01*
G54D20*
X810000Y439750D02*
X826250Y439750D01*
X830000Y441000D01*
G54D20*
X810000Y398250D02*
X797250Y398250D01*
X794000Y395000D01*
G54D20*
X810000Y398250D02*
X827250Y398250D01*
X833000Y395000D01*
G54D20*
X1084000Y499000D02*
X1058000Y499000D01*
G54D20*
X1084000Y499000D02*
X1084000Y478000D01*
G54D20*
X617600Y879300D02*
X617600Y904600D01*
X619000Y906000D01*
G54D20*
X649500Y904700D02*
X617700Y904700D01*
X617600Y904600D01*
G54D20*
X649500Y904700D02*
X649500Y880500D01*
X650000Y880000D01*
G54D20*
X837262Y901900D02*
X837262Y871738D01*
X839000Y870000D01*
G54D20*
X837262Y901900D02*
X837262Y924738D01*
X837000Y925000D01*
G54D20*
X837262Y901900D02*
X816100Y901900D01*
X815000Y903000D01*
G54D20*
X837262Y901900D02*
X864900Y901900D01*
X865000Y902000D01*
G54D20*
X649500Y904700D02*
X675300Y904700D01*
X677000Y903000D01*
X677000Y890000D01*
X685000Y882000D01*
X702000Y882000D01*
G54D20*
X509500Y904700D02*
X509500Y936200D01*
X508800Y931900D01*
G54D20*
X509500Y904700D02*
X509500Y875500D01*
X508000Y874000D01*
G54D20*
X451550Y931700D02*
X490300Y931700D01*
G54D20*
X490300Y931700D02*
X508800Y931900D01*
G54D20*
X509500Y904700D02*
X484300Y904700D01*
X484000Y905000D01*
G54D20*
X509500Y701500D02*
X509500Y730500D01*
X508000Y732000D01*
G54D20*
X509500Y701500D02*
X537500Y701500D01*
X538000Y701000D01*
G54D20*
X509500Y701500D02*
X509500Y673500D01*
X510000Y673000D01*
G54D20*
X509500Y701500D02*
X482500Y701500D01*
X481000Y703000D01*
G54D20*
X381300Y382800D02*
X381300Y369400D01*
G54D20*
X528500Y904700D02*
X509500Y904700D01*
G54D20*
X617600Y879300D02*
X648300Y879300D01*
X649500Y880500D01*
G54D30*
X798900Y947900D02*
X813550Y947900D01*
G54D30*
X798900Y947900D02*
X798900Y933230D01*
G54D30*
X837262Y724100D02*
X858900Y724100D01*
X859000Y724000D01*
G54D30*
X837262Y724100D02*
X837262Y704262D01*
X837000Y704000D01*
G54D30*
X837262Y724100D02*
X825150Y724100D01*
G54D20*
X1226612Y934194D02*
X1226612Y950178D01*
X1226612Y934194D01*
G54D20*
X1226612Y934194D02*
X1226610Y922030D01*
G54D20*
X1149000Y902000D02*
X1179000Y902000D01*
X1199000Y882000D01*
G54D20*
X1149000Y902000D02*
X1147000Y902000D01*
X1135000Y914000D01*
G54D24*
X1189412Y733685D02*
X1189412Y708285D01*
G54D20*
X273750Y957100D02*
X235750Y957100D01*
X621100Y947900D02*
G54D40*
D03*
X621100Y541500D02*
G54D40*
D03*
X646500Y947900D02*
G54D40*
D03*
X646500Y541500D02*
G54D40*
D03*
X671900Y947900D02*
G54D40*
D03*
X671900Y541500D02*
G54D40*
D03*
X697300Y947900D02*
G54D40*
D03*
X697300Y541500D02*
G54D40*
D03*
X722700Y947900D02*
G54D40*
D03*
X722700Y541500D02*
G54D40*
D03*
X748100Y947900D02*
G54D40*
D03*
X748100Y541500D02*
G54D40*
D03*
X773500Y947900D02*
G54D40*
D03*
X773500Y541500D02*
G54D40*
D03*
X798900Y947900D02*
G54D40*
D03*
X798900Y541500D02*
G54D40*
D03*
X451550Y779300D02*
G54D40*
D03*
X451550Y804700D02*
G54D40*
D03*
X451550Y830100D02*
G54D40*
D03*
X451550Y855500D02*
G54D40*
D03*
X451550Y880900D02*
G54D40*
D03*
X451550Y906300D02*
G54D40*
D03*
X451550Y931700D02*
G54D40*
D03*
X451550Y957100D02*
G54D40*
D03*
X273750Y779300D02*
G54D40*
D03*
X273750Y804700D02*
G54D40*
D03*
X273750Y830100D02*
G54D40*
D03*
X273750Y855500D02*
G54D40*
D03*
X273750Y880900D02*
G54D40*
D03*
X273750Y906300D02*
G54D40*
D03*
X273750Y931700D02*
G54D40*
D03*
X273750Y957100D02*
G54D40*
D03*
X273750Y957100D02*
G54D40*
D03*
G54D20*
X444000Y747000D02*
X432000Y747000D01*
X431000Y748000D01*
G54D20*
X756000Y966000D02*
X589000Y966000D01*
X543000Y920000D01*
X1052000Y951000D02*
G54D46*
D03*
G54D34*
X1054000Y798000D02*
X1054000Y863000D01*
X989000Y928000D01*
G54D34*
X960812Y936885D02*
X980115Y936885D01*
X989000Y928000D01*
G54D20*
X1013000Y955000D02*
X1048000Y955000D01*
X1052000Y951000D01*
G54D20*
X1086000Y942000D02*
X1061000Y942000D01*
X1052000Y951000D01*
X1014000Y844000D02*
G54D46*
D03*
G54D20*
X982812Y843685D02*
X1013685Y843685D01*
X1014000Y844000D01*
G54D20*
X971000Y564000D02*
X950000Y564000D01*
X933000Y581000D01*
X836000Y581000D01*
X821000Y566000D01*
X821000Y551000D01*
X830000Y542000D01*
X872000Y568000D02*
G54D46*
D03*
X845000Y559000D02*
G54D46*
D03*
X930000Y549000D02*
G54D46*
D03*
X964000Y532000D02*
G54D46*
D03*
G54D34*
X960812Y936885D02*
X947885Y936885D01*
X936000Y925000D01*
X936000Y631897D01*
X946812Y620085D02*
G54D46*
D03*
X1102000Y485000D02*
G54D46*
D03*
X1115000Y485000D02*
G54D46*
D03*
X1128000Y485000D02*
G54D46*
D03*
X1141000Y485000D02*
G54D46*
D03*
X1129000Y535000D02*
G54D46*
D03*
X1142000Y535000D02*
G54D46*
D03*
X1155000Y550000D02*
G54D46*
D03*
G54D47*
X1102000Y485000D02*
X1102000Y486000D01*
X1129000Y513000D01*
X1129000Y535000D01*
G54D47*
X1115000Y485000D02*
X1115000Y488000D01*
X1142000Y515000D01*
X1142000Y535000D01*
G54D47*
X1128000Y485000D02*
X1128000Y489000D01*
X1155000Y516000D01*
X1155000Y550000D01*
G54D47*
X1141000Y485000D02*
X1141000Y487000D01*
X1168000Y514000D01*
X1168000Y535000D01*
X1174000Y631000D02*
G54D46*
D03*
X1170000Y567000D02*
G54D46*
D03*
G54D47*
X1170000Y567000D02*
X1170000Y537000D01*
X1168000Y535000D01*
G54D47*
X1157000Y614000D02*
X1157000Y608000D01*
X1156000Y607000D01*
G54D47*
X1174000Y631000D02*
X1174000Y616000D01*
X1165000Y607000D01*
X1165000Y605000D01*
X1152000Y592000D01*
G54D47*
X1135000Y570000D02*
X1135000Y575000D01*
X1152000Y592000D01*
X1169000Y593000D02*
G54D46*
D03*
G54D20*
X1169000Y593000D02*
X1182000Y593000D01*
X1204000Y615000D01*
X1204000Y637000D01*
X1205000Y642000D01*
X962000Y476000D02*
G54D46*
D03*
G54D20*
X962000Y476000D02*
X962000Y481518D01*
X956382Y487136D01*
X861000Y520000D02*
G54D46*
D03*
G54D20*
X649500Y904700D02*
X649500Y927500D01*
G54D34*
X857000Y493000D02*
X857000Y487000D01*
X862000Y482000D01*
X843000Y491000D02*
G54D46*
D03*
G54D30*
X873000Y468000D02*
X901000Y468000D01*
X920864Y448136D01*
G54D30*
X937168Y448136D02*
X920864Y448136D01*
X901000Y468000D01*
G54D47*
X843000Y491000D02*
X843000Y472000D01*
X872000Y443000D01*
X910000Y443000D01*
X920000Y433000D01*
X954000Y433000D02*
G54D46*
D03*
G54D47*
X954000Y433000D02*
X920000Y433000D01*
X910000Y443000D01*
X1037000Y474000D02*
G54D46*
D03*
G54D47*
X1135000Y570000D02*
X1132000Y567000D01*
G54D34*
X1116000Y545000D02*
X1122000Y545000D01*
X1131000Y554000D01*
G54D34*
X1131000Y554000D02*
X1161000Y584000D01*
G54D34*
X1169000Y593000D02*
X1169000Y592000D01*
X1161000Y584000D01*
G54D34*
X1084000Y521000D02*
X1092000Y521000D01*
X1116000Y545000D01*
X1024000Y520000D02*
G54D46*
D03*
G54D34*
X1024000Y520000D02*
X1024000Y487000D01*
X1037000Y474000D01*
G54D20*
X861000Y520000D02*
X849000Y520000D01*
G54D20*
X861000Y520000D02*
X861000Y508000D01*
X866000Y503000D01*
X1232000Y843000D02*
G54D46*
D03*
G54D34*
X936000Y631897D02*
X936000Y630897D01*
X946812Y620085D01*
G54D47*
X1090000Y561000D02*
X1088000Y563000D01*
G54D34*
X871000Y554000D02*
X925000Y554000D01*
X930000Y549000D01*
G54D34*
X871000Y554000D02*
X850000Y554000D01*
X845000Y559000D01*
G54D34*
X872000Y568000D02*
X928000Y568000D01*
X943000Y553000D01*
X1035000Y553000D01*
X1042000Y560000D01*
G54D20*
X1199000Y882000D02*
X1211000Y870000D01*
X1211000Y842000D01*
X1205000Y836000D01*
X1190126Y836000D01*
X1189412Y835285D01*
G54D20*
X1193000Y907000D02*
X1186000Y914000D01*
G54D20*
X1183112Y922494D02*
X1183112Y916888D01*
X1186000Y914000D01*
X1246000Y891000D02*
G54D46*
D03*
G54D20*
X1246000Y891000D02*
X1209000Y891000D01*
X1193000Y907000D01*
X1265000Y924000D02*
G54D46*
D03*
G54D20*
X1265000Y924000D02*
X1265000Y932000D01*
X1217000Y980000D01*
G54D20*
X1226612Y934194D02*
X1243806Y934194D01*
X1244000Y934000D01*
X1109000Y980000D02*
G54D46*
D03*
G54D20*
X1217000Y980000D02*
X1109000Y980000D01*
X1205000Y642000D02*
G54D46*
D03*
G54D20*
X837262Y724100D02*
X837262Y901900D01*
X1078212Y682885D02*
G54D45*
D03*
X1095212Y682885D02*
G54D45*
D03*
G54D20*
X1113212Y682885D02*
X1095212Y682885D01*
G54D20*
X1078212Y682885D02*
X1066115Y682885D01*
X1066000Y683000D01*
G54D53*
X135628Y461334D02*
X135628Y505778D01*
G54D53*
X135628Y479111D02*
X138961Y484667D01*
X145628Y486334D01*
X152295Y484667D01*
X155628Y479111D01*
X155628Y468000D01*
X152295Y462445D01*
X145628Y461334D01*
X138961Y462445D01*
X135628Y468000D01*
G54D53*
X171184Y486334D02*
X184517Y461334D01*
X197851Y486334D01*
G54D53*
X184517Y461334D02*
X181184Y453000D01*
X177851Y450222D01*
X174517Y450222D01*
G54D53*
X229630Y505778D02*
X246297Y483556D01*
X246297Y461334D01*
G54D53*
X246297Y483556D02*
X262963Y505778D01*
G54D53*
X278519Y461334D02*
X278519Y461334D01*
G54D53*
X317408Y461334D02*
X294075Y461334D01*
X294075Y505778D01*
X317408Y505778D01*
G54D53*
X294075Y483556D02*
X317408Y483556D01*
G54D53*
X332964Y461334D02*
X332964Y461334D01*
G54D20*
X1232000Y843000D02*
X1325000Y843000D01*
X1390000Y778000D01*
G54D20*
X1232000Y843000D02*
X1229000Y843000D01*
X1225000Y839000D01*
G54D24*
X1189412Y860685D02*
X1189412Y868588D01*
X1174000Y884000D01*
G54D24*
X1113212Y886085D02*
X1171915Y886085D01*
X1174000Y884000D01*
M02*
