%FSLAX34Y34*%
%MOMM*%
%LNSOLDERMASK_TOP*%
G71*
G01*
%ADD10R, 2.60X1.90*%
%ADD11R, 1.90X1.80*%
%ADD12R, 1.40X1.55*%
%ADD13C, 2.40*%
%ADD14C, 2.60*%
%ADD15R, 2.00X2.00*%
%ADD16C, 3.40*%
%ADD17C, 2.10*%
%ADD18C, 2.60*%
%ADD19R, 1.50X1.60*%
%ADD20C, 1.40*%
%ADD21C, 2.40*%
%ADD22R, 2.80X1.20*%
%ADD23R, 1.20X2.80*%
%ADD24R, 2.40X2.00*%
%ADD25R, 1.60X1.50*%
%LPD*%
X168000Y597500D02*
G54D10*
D03*
X168000Y552500D02*
G54D10*
D03*
X252000Y597500D02*
G54D10*
D03*
X252000Y552500D02*
G54D10*
D03*
X571000Y419000D02*
G54D11*
D03*
X649000Y419000D02*
G54D11*
D03*
X610000Y439750D02*
G54D12*
D03*
X610000Y398250D02*
G54D12*
D03*
X960812Y936885D02*
G54D13*
D03*
X960812Y911485D02*
G54D13*
D03*
X960812Y886085D02*
G54D13*
D03*
X960812Y860685D02*
G54D13*
D03*
X960812Y835285D02*
G54D13*
D03*
X960812Y809885D02*
G54D13*
D03*
X960812Y784485D02*
G54D13*
D03*
X960812Y759085D02*
G54D13*
D03*
X960812Y733685D02*
G54D13*
D03*
X960812Y708285D02*
G54D13*
D03*
X960812Y682885D02*
G54D13*
D03*
X960812Y657485D02*
G54D13*
D03*
X960812Y632085D02*
G54D13*
D03*
X960812Y606685D02*
G54D13*
D03*
X960812Y581285D02*
G54D13*
D03*
X1113212Y936885D02*
G54D13*
D03*
X1113212Y911485D02*
G54D13*
D03*
X1113212Y886085D02*
G54D13*
D03*
X1113212Y860685D02*
G54D13*
D03*
X1113212Y835285D02*
G54D13*
D03*
X1113212Y809885D02*
G54D13*
D03*
X1113212Y784485D02*
G54D13*
D03*
X1113212Y759085D02*
G54D13*
D03*
X1113212Y733685D02*
G54D13*
D03*
X1113212Y708285D02*
G54D13*
D03*
X1113212Y682885D02*
G54D13*
D03*
X1113212Y657485D02*
G54D13*
D03*
X1113212Y632085D02*
G54D13*
D03*
X1113212Y606685D02*
G54D13*
D03*
X1113212Y581285D02*
G54D13*
D03*
X168000Y757500D02*
G54D10*
D03*
X168000Y712500D02*
G54D10*
D03*
X252000Y757500D02*
G54D10*
D03*
X252000Y712500D02*
G54D10*
D03*
X88000Y677500D02*
G54D10*
D03*
X88000Y632500D02*
G54D10*
D03*
X172000Y677500D02*
G54D10*
D03*
X172000Y632500D02*
G54D10*
D03*
X248000Y677500D02*
G54D10*
D03*
X248000Y632500D02*
G54D10*
D03*
X332000Y677500D02*
G54D10*
D03*
X332000Y632500D02*
G54D10*
D03*
X771000Y419000D02*
G54D11*
D03*
X849000Y419000D02*
G54D11*
D03*
X810000Y439750D02*
G54D12*
D03*
X810000Y398250D02*
G54D12*
D03*
X1098000Y417500D02*
G54D10*
D03*
X1098000Y372500D02*
G54D10*
D03*
X1182000Y417500D02*
G54D10*
D03*
X1182000Y372500D02*
G54D10*
D03*
X1228000Y677500D02*
G54D10*
D03*
X1228000Y632500D02*
G54D10*
D03*
X1312000Y677500D02*
G54D10*
D03*
X1312000Y632500D02*
G54D10*
D03*
X1228000Y547500D02*
G54D10*
D03*
X1228000Y502500D02*
G54D10*
D03*
X1312000Y547500D02*
G54D10*
D03*
X1312000Y502500D02*
G54D10*
D03*
X1228000Y807500D02*
G54D10*
D03*
X1228000Y762500D02*
G54D10*
D03*
X1312000Y807500D02*
G54D10*
D03*
X1312000Y762500D02*
G54D10*
D03*
X700738Y901900D02*
G54D14*
D03*
X700738Y724100D02*
G54D14*
D03*
X837262Y901900D02*
G54D14*
D03*
X837262Y724100D02*
G54D14*
D03*
X238000Y417500D02*
G54D10*
D03*
X238000Y372500D02*
G54D10*
D03*
X322000Y417500D02*
G54D10*
D03*
X322000Y372500D02*
G54D10*
D03*
X204000Y401500D02*
G54D15*
D03*
X204000Y373500D02*
G54D15*
D03*
X214000Y677000D02*
G54D15*
D03*
X214000Y649000D02*
G54D15*
D03*
X133500Y597000D02*
G54D15*
D03*
X133500Y569000D02*
G54D15*
D03*
X1253500Y474500D02*
G54D15*
D03*
X1225500Y474500D02*
G54D15*
D03*
X710000Y369000D02*
G54D15*
D03*
X710000Y397000D02*
G54D15*
D03*
X134500Y757000D02*
G54D15*
D03*
X134500Y729000D02*
G54D15*
D03*
X1285000Y733000D02*
G54D15*
D03*
X1257000Y733000D02*
G54D15*
D03*
X1070000Y373000D02*
G54D15*
D03*
X1070000Y401000D02*
G54D15*
D03*
X1285000Y707000D02*
G54D15*
D03*
X1257000Y707000D02*
G54D15*
D03*
X910000Y369000D02*
G54D15*
D03*
X910000Y397000D02*
G54D15*
D03*
X649500Y701500D02*
G54D13*
D03*
X649500Y904700D02*
G54D16*
D03*
X509500Y701500D02*
G54D13*
D03*
X509500Y904700D02*
G54D16*
D03*
X541400Y879300D02*
G54D13*
D03*
X566800Y879300D02*
G54D13*
D03*
X592200Y879300D02*
G54D13*
D03*
X617600Y879300D02*
G54D13*
D03*
X1163112Y947894D02*
G54D17*
D03*
X1163112Y922494D02*
G54D17*
D03*
X1183112Y947894D02*
G54D17*
D03*
X1183112Y922494D02*
G54D17*
D03*
X1203112Y947894D02*
G54D17*
D03*
X1203112Y922494D02*
G54D17*
D03*
X1139612Y934194D02*
G54D18*
D03*
X1226612Y934194D02*
G54D18*
D03*
X1164012Y860685D02*
G54D13*
D03*
X1189412Y860685D02*
G54D13*
D03*
X1189412Y835285D02*
G54D13*
D03*
X1164012Y835285D02*
G54D13*
D03*
X1164012Y809885D02*
G54D13*
D03*
X1189412Y809885D02*
G54D13*
D03*
X1189412Y784485D02*
G54D13*
D03*
X1164012Y759085D02*
G54D13*
D03*
X1164012Y784485D02*
G54D13*
D03*
X1189412Y759085D02*
G54D13*
D03*
X1164012Y733685D02*
G54D13*
D03*
X1189412Y733685D02*
G54D13*
D03*
X1189412Y708285D02*
G54D13*
D03*
X1164012Y708285D02*
G54D13*
D03*
X1189412Y682885D02*
G54D13*
D03*
X1164012Y682885D02*
G54D13*
D03*
X298750Y830100D02*
G54D19*
D03*
X315750Y830100D02*
G54D19*
D03*
X298750Y804700D02*
G54D19*
D03*
X315750Y804700D02*
G54D19*
D03*
X211750Y957100D02*
G54D13*
D03*
X235750Y957100D02*
G54D13*
D03*
X461000Y568000D02*
G54D15*
D03*
X461000Y596000D02*
G54D15*
D03*
X381300Y369400D02*
G54D14*
D03*
X406700Y369400D02*
G54D14*
D03*
X1157000Y614000D02*
G54D20*
D03*
X1310000Y461000D02*
G54D21*
D03*
X987169Y448137D02*
G54D22*
D03*
X987168Y460837D02*
G54D22*
D03*
X987168Y473537D02*
G54D22*
D03*
X987168Y486237D02*
G54D22*
D03*
X987168Y498936D02*
G54D22*
D03*
X987168Y511637D02*
G54D22*
D03*
X987168Y524337D02*
G54D22*
D03*
X987169Y537036D02*
G54D22*
D03*
X937168Y537037D02*
G54D22*
D03*
X937168Y524337D02*
G54D22*
D03*
X937168Y511636D02*
G54D22*
D03*
X937169Y498936D02*
G54D22*
D03*
X937169Y486237D02*
G54D22*
D03*
X937168Y473536D02*
G54D22*
D03*
X937169Y460837D02*
G54D22*
D03*
X937168Y448136D02*
G54D22*
D03*
X896518Y496515D02*
G54D19*
D03*
G36*
X906018Y504515D02*
X921018Y504515D01*
X921018Y488515D01*
X906018Y488515D01*
X906018Y504515D01*
G37*
X1352000Y581000D02*
G54D15*
D03*
X1352000Y553000D02*
G54D15*
D03*
X1084000Y499000D02*
G54D21*
D03*
G36*
X409750Y506484D02*
X421750Y506484D01*
X421750Y478484D01*
X409750Y478484D01*
X409750Y506484D01*
G37*
X428450Y492484D02*
G54D23*
D03*
X441150Y492484D02*
G54D23*
D03*
G36*
X447850Y506484D02*
X459850Y506484D01*
X459850Y478484D01*
X447850Y478484D01*
X447850Y506484D01*
G37*
X466550Y492484D02*
G54D23*
D03*
X479250Y492484D02*
G54D23*
D03*
X491950Y492484D02*
G54D23*
D03*
G36*
X498649Y506484D02*
X510649Y506484D01*
X510650Y478484D01*
X498650Y478484D01*
X498649Y506484D01*
G37*
X504650Y542484D02*
G54D23*
D03*
X491950Y542484D02*
G54D23*
D03*
X479250Y542484D02*
G54D23*
D03*
X466550Y542484D02*
G54D23*
D03*
X453850Y542484D02*
G54D23*
D03*
G36*
X435150Y556484D02*
X447150Y556484D01*
X447150Y528484D01*
X435150Y528484D01*
X435150Y556484D01*
G37*
X428450Y542484D02*
G54D23*
D03*
X415750Y542484D02*
G54D23*
D03*
X873000Y468000D02*
G54D15*
D03*
X873000Y496000D02*
G54D15*
D03*
G36*
X824796Y976728D02*
X838929Y962577D01*
X824778Y948444D01*
X810645Y962595D01*
X824796Y976728D01*
G37*
G36*
X844596Y956929D02*
X858728Y942777D01*
X844576Y928645D01*
X830444Y942797D01*
X844596Y956929D01*
G37*
X1084000Y634000D02*
G54D24*
D03*
X1084000Y606000D02*
G54D24*
D03*
X396018Y528015D02*
G54D25*
D03*
X396018Y545015D02*
G54D25*
D03*
X54500Y677000D02*
G54D15*
D03*
X54500Y649000D02*
G54D15*
D03*
X525000Y490000D02*
G54D21*
D03*
X340000Y740000D02*
G54D21*
D03*
X349000Y711000D02*
G54D21*
D03*
X982812Y860685D02*
G54D25*
D03*
X982812Y843685D02*
G54D25*
D03*
X575000Y826000D02*
G54D21*
D03*
X574000Y577000D02*
G54D15*
D03*
X602000Y577000D02*
G54D15*
D03*
X818000Y615000D02*
G54D21*
D03*
X885000Y528000D02*
G54D15*
D03*
X913000Y528000D02*
G54D15*
D03*
X528000Y524000D02*
G54D21*
D03*
X399000Y569000D02*
G54D21*
D03*
X574000Y611000D02*
G54D15*
D03*
X602000Y611000D02*
G54D15*
D03*
X785000Y615000D02*
G54D21*
D03*
X621100Y947900D02*
G54D14*
D03*
X621100Y541500D02*
G54D14*
D03*
X646500Y947900D02*
G54D14*
D03*
X646500Y541500D02*
G54D14*
D03*
X671900Y947900D02*
G54D14*
D03*
X671900Y541500D02*
G54D14*
D03*
X697300Y947900D02*
G54D14*
D03*
X697300Y541500D02*
G54D14*
D03*
X722700Y947900D02*
G54D14*
D03*
X722700Y541500D02*
G54D14*
D03*
X748100Y947900D02*
G54D14*
D03*
X748100Y541500D02*
G54D14*
D03*
X773500Y947900D02*
G54D14*
D03*
X773500Y541500D02*
G54D14*
D03*
X798900Y947900D02*
G54D14*
D03*
X798900Y541500D02*
G54D14*
D03*
X451550Y779300D02*
G54D14*
D03*
X451550Y804700D02*
G54D14*
D03*
X451550Y830100D02*
G54D14*
D03*
X451550Y855500D02*
G54D14*
D03*
X451550Y880900D02*
G54D14*
D03*
X451550Y906300D02*
G54D14*
D03*
X451550Y931700D02*
G54D14*
D03*
X451550Y957100D02*
G54D14*
D03*
X273750Y779300D02*
G54D14*
D03*
X273750Y804700D02*
G54D14*
D03*
X273750Y830100D02*
G54D14*
D03*
X273750Y855500D02*
G54D14*
D03*
X273750Y880900D02*
G54D14*
D03*
X273750Y906300D02*
G54D14*
D03*
X273750Y931700D02*
G54D14*
D03*
X273750Y957100D02*
G54D14*
D03*
X273750Y957100D02*
G54D14*
D03*
X1052000Y951000D02*
G54D20*
D03*
X1014000Y844000D02*
G54D20*
D03*
X872000Y568000D02*
G54D20*
D03*
X845000Y559000D02*
G54D20*
D03*
X930000Y549000D02*
G54D20*
D03*
X964000Y532000D02*
G54D20*
D03*
X946812Y620085D02*
G54D20*
D03*
X1102000Y485000D02*
G54D20*
D03*
X1115000Y485000D02*
G54D20*
D03*
X1128000Y485000D02*
G54D20*
D03*
X1141000Y485000D02*
G54D20*
D03*
X1129000Y535000D02*
G54D20*
D03*
X1142000Y535000D02*
G54D20*
D03*
X1155000Y550000D02*
G54D20*
D03*
X1174000Y631000D02*
G54D20*
D03*
X1170000Y567000D02*
G54D20*
D03*
X1169000Y593000D02*
G54D20*
D03*
X962000Y476000D02*
G54D20*
D03*
X861000Y520000D02*
G54D20*
D03*
X843000Y491000D02*
G54D20*
D03*
X954000Y433000D02*
G54D20*
D03*
X1037000Y474000D02*
G54D20*
D03*
X1024000Y520000D02*
G54D20*
D03*
X1232000Y843000D02*
G54D20*
D03*
X1246000Y891000D02*
G54D20*
D03*
X1265000Y924000D02*
G54D20*
D03*
X1109000Y980000D02*
G54D20*
D03*
X1205000Y642000D02*
G54D20*
D03*
X1078212Y682885D02*
G54D19*
D03*
X1095212Y682885D02*
G54D19*
D03*
M02*
