%FSLAX34Y34*%
%MOMM*%
%LNSILK_TOP*%
G71*
G01*
%ADD10C, 2.80*%
%ADD11C, 3.00*%
%ADD12C, 3.80*%
%ADD13R, 2.60X2.00*%
%ADD14R, 3.00X2.00*%
%ADD15R, 2.20X1.30*%
%ADD16C, 0.85*%
%ADD17C, 1.30*%
%ADD18C, 2.50*%
%ADD19C, 3.00*%
%ADD20R, 1.90X2.00*%
%ADD21C, 1.40*%
%ADD22C, 1.60*%
%ADD23R, 2.20X2.00*%
%ADD24R, 2.20X4.30*%
%ADD25R, 2.00X1.90*%
%ADD26R, 2.80X2.40*%
%ADD27R, 2.40X2.40*%
%ADD28C, 1.80*%
%ADD29C, 0.80*%
%ADD30R, 1.70X4.80*%
%ADD31C, 1.80*%
%ADD32C, 2.80*%
%ADD33C, 2.20*%
%ADD34C, 1.59*%
%ADD35C, 1.15*%
%ADD36R, 1.60X1.70*%
%ADD37C, 0.60*%
%ADD38C, 1.20*%
%ADD39R, 1.20X2.60*%
%ADD40C, 1.00*%
%ADD41C, 0.35*%
%ADD42R, 2.70X2.80*%
%ADD43C, 0.90*%
%ADD44C, 2.00*%
%ADD45C, 2.20*%
%ADD46R, 1.80X1.20*%
%ADD47R, 2.20X1.20*%
%ADD48R, 1.40X0.50*%
%ADD49C, 0.05*%
%ADD50C, 0.50*%
%ADD51C, 1.70*%
%ADD52C, 2.20*%
%ADD53R, 1.10X1.20*%
%ADD54R, 1.40X1.20*%
%ADD55R, 1.40X3.50*%
%ADD56R, 1.20X1.10*%
%ADD57R, 2.00X1.60*%
%ADD58R, 1.60X1.60*%
%ADD59R, 0.90X4.00*%
%ADD60C, 1.00*%
%ADD61C, 2.00*%
%ADD62C, 0.79*%
%ADD63R, 0.80X0.90*%
%ADD64C, 0.40*%
%ADD65R, 0.40X1.80*%
%ADD66C, 0.10*%
%LPD*%
G36*
X0Y1000000D02*
X1420000Y1000000D01*
X1420000Y320000D01*
X0Y320000D01*
X0Y1000000D01*
G37*
%LPC*%
X960812Y936885D02*
G54D10*
D03*
X960812Y911485D02*
G54D10*
D03*
X960812Y886085D02*
G54D10*
D03*
X960812Y860685D02*
G54D10*
D03*
X960812Y835285D02*
G54D10*
D03*
X960812Y809885D02*
G54D10*
D03*
X960812Y784485D02*
G54D10*
D03*
X960812Y759085D02*
G54D10*
D03*
X960812Y733685D02*
G54D10*
D03*
X960812Y708285D02*
G54D10*
D03*
X960812Y682885D02*
G54D10*
D03*
X960812Y657485D02*
G54D10*
D03*
X960812Y632085D02*
G54D10*
D03*
X960812Y606685D02*
G54D10*
D03*
X960812Y581285D02*
G54D10*
D03*
X1113212Y936885D02*
G54D10*
D03*
X1113212Y911485D02*
G54D10*
D03*
X1113212Y886085D02*
G54D10*
D03*
X1113212Y860685D02*
G54D10*
D03*
X1113212Y835285D02*
G54D10*
D03*
X1113212Y809885D02*
G54D10*
D03*
X1113212Y784485D02*
G54D10*
D03*
X1113212Y759085D02*
G54D10*
D03*
X1113212Y733685D02*
G54D10*
D03*
X1113212Y708285D02*
G54D10*
D03*
X1113212Y682885D02*
G54D10*
D03*
X1113212Y657485D02*
G54D10*
D03*
X1113212Y632085D02*
G54D10*
D03*
X1113212Y606685D02*
G54D10*
D03*
X1113212Y581285D02*
G54D10*
D03*
X700738Y901900D02*
G54D11*
D03*
X700738Y724100D02*
G54D11*
D03*
X837262Y901900D02*
G54D11*
D03*
X837262Y724100D02*
G54D11*
D03*
X649500Y701500D02*
G54D10*
D03*
X649500Y904700D02*
G54D12*
D03*
X509500Y701500D02*
G54D10*
D03*
X509500Y904700D02*
G54D12*
D03*
X541400Y879300D02*
G54D10*
D03*
X566800Y879300D02*
G54D10*
D03*
X592200Y879300D02*
G54D10*
D03*
X617600Y879300D02*
G54D10*
D03*
X1272500Y734500D02*
G54D13*
D03*
X1366000Y577000D02*
G54D14*
D03*
X1272500Y585500D02*
G54D13*
D03*
X1366000Y733000D02*
G54D14*
D03*
X1259500Y655000D02*
G54D15*
D03*
X1259500Y666000D02*
G54D15*
D03*
X1259500Y677000D02*
G54D15*
D03*
X1259500Y688000D02*
G54D15*
D03*
X1259500Y699000D02*
G54D15*
D03*
X1259500Y710000D02*
G54D15*
D03*
X1259500Y721000D02*
G54D15*
D03*
X1259500Y633000D02*
G54D15*
D03*
X1259500Y644000D02*
G54D15*
D03*
G36*
X1376688Y582333D02*
X1376688Y727833D01*
X1282188Y727833D01*
X1279688Y730333D01*
X1272188Y730333D01*
X1272188Y582333D01*
X1376688Y582333D01*
G37*
G54D16*
X1376688Y582333D02*
X1376688Y727833D01*
X1282188Y727833D01*
X1279688Y730333D01*
X1272188Y730333D01*
X1272188Y582333D01*
X1376688Y582333D01*
G54D17*
X1259500Y688000D02*
X1277530Y688000D01*
X1277592Y688063D01*
X1163112Y947894D02*
G54D18*
D03*
X1163112Y922494D02*
G54D18*
D03*
X1183112Y947894D02*
G54D18*
D03*
X1183112Y922494D02*
G54D18*
D03*
X1203112Y947894D02*
G54D18*
D03*
X1203112Y922494D02*
G54D18*
D03*
X1139612Y934194D02*
G54D19*
D03*
X1226612Y934194D02*
G54D19*
D03*
X900488Y886085D02*
G54D20*
D03*
X917488Y886085D02*
G54D20*
D03*
X1164012Y860685D02*
G54D10*
D03*
X1189412Y860685D02*
G54D10*
D03*
X1189412Y835285D02*
G54D10*
D03*
X1164012Y835285D02*
G54D10*
D03*
X1164012Y809885D02*
G54D10*
D03*
X1189412Y809885D02*
G54D10*
D03*
X1189412Y784485D02*
G54D10*
D03*
X1164012Y759085D02*
G54D10*
D03*
X1164012Y784485D02*
G54D10*
D03*
X1189412Y759085D02*
G54D10*
D03*
X1164012Y733685D02*
G54D10*
D03*
X1189412Y733685D02*
G54D10*
D03*
X1189412Y708285D02*
G54D10*
D03*
X1164012Y708285D02*
G54D10*
D03*
X1189412Y682885D02*
G54D10*
D03*
X1164012Y682885D02*
G54D10*
D03*
G54D21*
X1074885Y936885D02*
X1066000Y928000D01*
X1066000Y584000D01*
X1035000Y553000D01*
X975000Y553000D01*
G54D22*
X541400Y879300D02*
X541400Y827400D01*
X473000Y759000D01*
X443000Y759000D01*
X424000Y778000D01*
X275050Y778000D01*
X273750Y779300D01*
X1287684Y515934D02*
G54D23*
D03*
X1287684Y538934D02*
G54D23*
D03*
X1287684Y561934D02*
G54D23*
D03*
X1349684Y538934D02*
G54D24*
D03*
X1270500Y572500D02*
G54D25*
D03*
X1270500Y555500D02*
G54D25*
D03*
G54D22*
X1270500Y538500D02*
X1287250Y538500D01*
X1287684Y538934D01*
X1270500Y533500D02*
G54D25*
D03*
X1270500Y516500D02*
G54D25*
D03*
G54D22*
X1270500Y516500D02*
X1287118Y516500D01*
X1287684Y515934D01*
G36*
X1216000Y676000D02*
X1235000Y676000D01*
X1235000Y656000D01*
X1216000Y656000D01*
X1216000Y676000D01*
G37*
X1242500Y666000D02*
G54D20*
D03*
G54D17*
X1259500Y666000D02*
X1242500Y666000D01*
X1243250Y541750D02*
G54D26*
D03*
X1243250Y513750D02*
G54D26*
D03*
G54D22*
X1270500Y538500D02*
X1248000Y538500D01*
X1243250Y541750D01*
X1088885Y950885D02*
G54D27*
D03*
X1088885Y922885D02*
G54D27*
D03*
G54D21*
X1113212Y936885D02*
X1074885Y936885D01*
G54D28*
X1088885Y950885D02*
X1088885Y965885D01*
X1089000Y966000D01*
G54D28*
X1088885Y922885D02*
X1088885Y691115D01*
X1096000Y684000D01*
G54D28*
X1113212Y682885D02*
X1097115Y682885D01*
X1096000Y684000D01*
G54D22*
X1113212Y657485D02*
X1103485Y657485D01*
X1096000Y650000D01*
X1096000Y538000D01*
G54D29*
X394000Y339000D02*
X1215000Y339000D01*
X1372000Y496000D01*
X1372000Y584000D01*
X211750Y957100D02*
G54D10*
D03*
X235750Y957100D02*
G54D10*
D03*
G54D22*
X211750Y957100D02*
X211750Y949250D01*
X222000Y939000D01*
X244000Y939000D01*
X256000Y927000D01*
X256000Y914000D01*
X261000Y909000D01*
G54D22*
X273750Y906300D02*
X263700Y906300D01*
X261000Y909000D01*
X348000Y808000D02*
G54D25*
D03*
X348000Y791000D02*
G54D25*
D03*
X324652Y944660D02*
G54D30*
D03*
X324652Y894660D02*
G54D30*
D03*
X400652Y944660D02*
G54D30*
D03*
X400652Y894660D02*
G54D30*
D03*
G54D29*
X451550Y931700D02*
X430912Y931700D01*
X422360Y944660D01*
G54D22*
X324652Y894660D02*
X324752Y816752D01*
X287300Y779300D01*
G54D22*
X273750Y779300D02*
X287300Y779300D01*
G54D22*
X400652Y894660D02*
X400652Y894369D01*
X393603Y887321D01*
X331991Y887321D01*
X324652Y894660D01*
G36*
X824798Y979556D02*
X841757Y962574D01*
X824775Y945615D01*
X807816Y962597D01*
X824798Y979556D01*
G37*
G36*
X844598Y959757D02*
X861556Y942775D01*
X844574Y925816D01*
X827615Y942799D01*
X844598Y959757D01*
G37*
G54D21*
X806402Y924402D02*
X849000Y967000D01*
X381300Y369400D02*
G54D11*
D03*
X406700Y369400D02*
G54D11*
D03*
G54D29*
X381300Y351400D02*
X381300Y351700D01*
X394000Y339000D01*
G54D22*
X406700Y369400D02*
X449400Y369400D01*
X571000Y491000D01*
X571000Y656000D01*
X582000Y667000D01*
X373000Y808000D02*
G54D25*
D03*
X373000Y791000D02*
G54D25*
D03*
G54D22*
X348000Y791000D02*
X348000Y779000D01*
G54D22*
X373000Y791000D02*
X373000Y779000D01*
G54D29*
X388000Y828000D02*
X392000Y808000D01*
X415000Y831000D01*
G54D29*
X430912Y931700D02*
X419912Y835912D01*
X415000Y831000D01*
X1157000Y614000D02*
G54D31*
D03*
G54D29*
X1130000Y617000D02*
X1130000Y878000D01*
X1144000Y892000D01*
X1205000Y892000D01*
X1270000Y827000D01*
X1344000Y827000D01*
X1367000Y804000D01*
X1367000Y709000D01*
X1023000Y567000D02*
G54D27*
D03*
X1023000Y539000D02*
G54D27*
D03*
G54D22*
X1048115Y809885D02*
X1054000Y804000D01*
X1054000Y598000D01*
X1023000Y567000D01*
X1310000Y461000D02*
G54D32*
D03*
G54D33*
X1189412Y708285D02*
X1189412Y733685D01*
G54D22*
X649500Y701500D02*
X649500Y859300D01*
X672200Y882000D01*
X764000Y882000D01*
X824402Y942402D01*
G54D22*
X849000Y967000D02*
X844000Y962000D01*
G54D22*
X1074885Y936885D02*
X1066000Y928000D01*
X1066000Y584000D01*
X1039000Y557000D01*
X1084000Y499000D02*
G54D32*
D03*
G54D22*
X700738Y712100D02*
X700738Y692738D01*
X675000Y667000D01*
X582000Y667000D01*
X571000Y656000D01*
G54D22*
X917488Y886085D02*
X960812Y886085D01*
G54D22*
X780000Y966000D02*
X821373Y966000D01*
X824787Y962586D01*
G54D22*
X773500Y947900D02*
X773500Y959500D01*
X780000Y966000D01*
G54D29*
X509500Y904700D02*
X649500Y904700D01*
X525000Y490000D02*
G54D32*
D03*
X340000Y740000D02*
G54D32*
D03*
G54D22*
X340000Y740000D02*
X340000Y771000D01*
X348000Y779000D01*
X349000Y711000D02*
G54D32*
D03*
G54D22*
X349000Y711000D02*
X414000Y711000D01*
X450000Y747000D01*
X587000Y747000D01*
X630000Y704000D01*
G54D22*
X630000Y704000D02*
X630000Y691000D01*
X638000Y683000D01*
X663000Y683000D01*
X670000Y690000D01*
X670000Y841000D01*
X689285Y860285D01*
G54D22*
X960812Y860685D02*
X689285Y860285D01*
X670000Y841000D01*
G54D22*
X960812Y809885D02*
X1048115Y809885D01*
X1054000Y804000D01*
X575000Y826000D02*
G54D32*
D03*
X818000Y615000D02*
G54D32*
D03*
G54D22*
X818000Y615000D02*
X887000Y615000D01*
X906000Y634000D01*
X906000Y750000D01*
X939000Y783000D01*
G54D22*
X960812Y784485D02*
X940485Y784485D01*
X939000Y783000D01*
X528000Y524000D02*
G54D32*
D03*
X399000Y569000D02*
G54D32*
D03*
G54D22*
X399000Y569000D02*
X483000Y569000D01*
X528000Y524000D01*
X785000Y615000D02*
G54D32*
D03*
G54D22*
X785000Y615000D02*
X785000Y625000D01*
X794000Y634000D01*
X886000Y634000D01*
X894000Y642000D01*
X894000Y779000D01*
X947000Y832000D01*
G54D22*
X960812Y835285D02*
X950285Y835285D01*
X947000Y832000D01*
G54D29*
X381300Y369400D02*
X352600Y369400D01*
X352000Y370000D01*
G54D29*
X381300Y369400D02*
X381300Y407300D01*
X382000Y408000D01*
G54D29*
X525000Y490000D02*
X547000Y490000D01*
G54D29*
X525000Y490000D02*
X525000Y505000D01*
G54D29*
X525000Y490000D02*
X525000Y469000D01*
G54D29*
X451550Y931700D02*
X482500Y931700D01*
X510000Y934000D01*
G54D29*
X509500Y904700D02*
X509500Y933500D01*
X510000Y934000D01*
G54D29*
X509500Y904700D02*
X509500Y875500D01*
X510000Y875000D01*
G54D29*
X509500Y904700D02*
X485700Y904700D01*
X485000Y904000D01*
G54D29*
X649500Y904700D02*
X649500Y927500D01*
X649000Y928000D01*
G54D29*
X649500Y904700D02*
X649500Y881500D01*
X649000Y881000D01*
G54D29*
X837262Y901900D02*
X816100Y901900D01*
X816000Y902000D01*
G54D29*
X837262Y901900D02*
X859100Y901900D01*
X861000Y900000D01*
G54D29*
X837262Y901900D02*
X837262Y919738D01*
X837000Y920000D01*
G54D29*
X837262Y901900D02*
X837262Y876738D01*
X838000Y876000D01*
G54D29*
X509500Y701500D02*
X531500Y701500D01*
X532000Y701000D01*
G54D29*
X509500Y701500D02*
X487500Y701500D01*
X486000Y700000D01*
G54D29*
X509500Y701500D02*
X509500Y723500D01*
X511000Y725000D01*
G54D29*
X509500Y701500D02*
X509500Y671500D01*
X507000Y669000D01*
G54D29*
X837262Y724100D02*
X801900Y724100D01*
X797000Y729000D01*
G54D29*
X837262Y724100D02*
X864900Y724100D01*
X867000Y722000D01*
G54D29*
X837262Y724100D02*
X837262Y750738D01*
X835000Y753000D01*
G54D29*
X837262Y724100D02*
X837262Y702262D01*
X836000Y701000D01*
G54D29*
X960812Y657485D02*
X992515Y657485D01*
X994000Y656000D01*
G54D29*
X381300Y369400D02*
X381300Y351700D01*
G54D29*
X1366000Y577000D02*
X1385000Y577000D01*
G54D29*
X1366000Y733000D02*
X1386000Y733000D01*
G54D29*
X1273000Y747000D02*
X1273000Y735000D01*
X1272500Y734500D01*
G54D29*
X1257000Y734000D02*
X1272000Y734000D01*
X1272500Y734500D01*
G54D29*
X649500Y904700D02*
X673700Y904700D01*
X674000Y905000D01*
G54D29*
X798900Y947900D02*
X798900Y940900D01*
X778000Y920000D01*
G54D29*
X674000Y905000D02*
X674000Y912000D01*
X685000Y923000D01*
X775000Y923000D01*
X778000Y920000D01*
G54D22*
X541400Y879300D02*
X541400Y859600D01*
X575000Y826000D01*
G54D29*
X348000Y808000D02*
X348000Y828000D01*
G54D29*
X373000Y808000D02*
X373000Y827000D01*
G54D29*
X388000Y828000D02*
X374000Y828000D01*
X373000Y827000D01*
X349000Y827000D01*
X348000Y828000D01*
G54D29*
X400652Y944660D02*
X422360Y944660D01*
X422700Y945000D01*
G54D29*
X324652Y944660D02*
X304040Y944660D01*
X303700Y945000D01*
G54D29*
X617600Y879300D02*
X617600Y853400D01*
X618000Y853000D01*
X621000Y853000D01*
X649000Y881000D01*
G54D29*
X617600Y879300D02*
X617600Y892600D01*
G54D29*
X617600Y879300D02*
X647300Y879300D01*
X649000Y881000D01*
G54D29*
X381300Y369400D02*
X381300Y448900D01*
X412400Y480000D01*
G54D29*
X525000Y490000D02*
X422400Y490000D01*
X412400Y480000D01*
G54D29*
X798900Y541500D02*
X798900Y514300D01*
X798800Y515200D01*
G54D29*
X817570Y541500D02*
X798900Y541500D01*
G54D29*
X1272500Y585500D02*
X1272500Y573260D01*
G54D29*
X1139612Y934194D02*
X1139612Y954052D01*
X1139660Y954100D01*
G54D29*
X1139612Y934194D02*
X1139612Y907348D01*
X1140300Y906660D01*
G54D29*
X324652Y944660D02*
X400652Y944660D01*
X749590Y514070D02*
G54D20*
D03*
X766590Y514070D02*
G54D20*
D03*
G54D22*
X748100Y541500D02*
X748100Y515560D01*
X749590Y514070D01*
G54D29*
X766590Y514070D02*
X798070Y514070D01*
G54D22*
X273750Y957100D02*
X235750Y957100D01*
X621100Y947900D02*
G54D11*
D03*
X621100Y541500D02*
G54D11*
D03*
X646500Y947900D02*
G54D11*
D03*
X646500Y541500D02*
G54D11*
D03*
X671900Y947900D02*
G54D11*
D03*
X671900Y541500D02*
G54D11*
D03*
X697300Y947900D02*
G54D11*
D03*
X697300Y541500D02*
G54D11*
D03*
X722700Y947900D02*
G54D11*
D03*
X722700Y541500D02*
G54D11*
D03*
X748100Y947900D02*
G54D11*
D03*
X748100Y541500D02*
G54D11*
D03*
X773500Y947900D02*
G54D11*
D03*
X773500Y541500D02*
G54D11*
D03*
X798900Y947900D02*
G54D11*
D03*
X798900Y541500D02*
G54D11*
D03*
G54D34*
X304770Y494334D02*
X304770Y538778D01*
G54D34*
X304770Y512111D02*
X301437Y517667D01*
X294770Y519334D01*
X288103Y517667D01*
X284770Y512111D01*
X284770Y501000D01*
X288103Y495445D01*
X294770Y494334D01*
X301437Y495445D01*
X304770Y501000D01*
G54D34*
X269214Y519334D02*
X255881Y494334D01*
X242547Y519334D01*
G54D34*
X255881Y494334D02*
X259214Y486000D01*
X262547Y483222D01*
X265881Y483222D01*
G54D34*
X210768Y538778D02*
X194101Y516556D01*
X194101Y494334D01*
G54D34*
X194101Y516556D02*
X177435Y538778D01*
G54D34*
X161879Y494334D02*
X161879Y494334D01*
G54D34*
X122990Y494334D02*
X146323Y494334D01*
X146323Y538778D01*
X122990Y538778D01*
G54D34*
X146323Y516556D02*
X122990Y516556D01*
G54D34*
X107434Y494334D02*
X107434Y494334D01*
G54D29*
X273750Y931700D02*
X304700Y931700D01*
X305000Y932000D01*
X451550Y779300D02*
G54D11*
D03*
X451550Y804700D02*
G54D11*
D03*
X451550Y830100D02*
G54D11*
D03*
X451550Y855500D02*
G54D11*
D03*
X451550Y880900D02*
G54D11*
D03*
X451550Y906300D02*
G54D11*
D03*
X451550Y931700D02*
G54D11*
D03*
X451550Y957100D02*
G54D11*
D03*
X273750Y779300D02*
G54D11*
D03*
X273750Y804700D02*
G54D11*
D03*
X273750Y830100D02*
G54D11*
D03*
X273750Y855500D02*
G54D11*
D03*
X273750Y880900D02*
G54D11*
D03*
X273750Y906300D02*
G54D11*
D03*
X273750Y931700D02*
G54D11*
D03*
X273750Y957100D02*
G54D11*
D03*
X273750Y957100D02*
G54D11*
D03*
G54D29*
X303700Y945000D02*
X303700Y932700D01*
X304700Y931700D01*
G54D22*
X1270500Y555500D02*
X1281250Y555500D01*
X1287684Y561934D01*
G54D21*
X1250000Y562000D02*
X1257000Y562000D01*
X1264000Y555000D01*
X1270000Y555000D01*
X1270500Y555500D01*
G54D29*
X1243250Y513750D02*
X1267750Y513750D01*
X1270500Y516500D01*
G54D35*
X960812Y759085D02*
X931085Y759085D01*
X917000Y745000D01*
X917000Y622000D01*
X895000Y600000D01*
G54D35*
X960812Y733685D02*
X938685Y733685D01*
X924000Y719000D01*
X924000Y616000D01*
X902000Y594000D01*
G54D35*
X960812Y708285D02*
X947285Y708285D01*
X931000Y692000D01*
X931000Y610000D01*
X908000Y587000D01*
X884271Y913760D02*
G54D36*
D03*
G36*
X896271Y922260D02*
X912271Y922260D01*
X912271Y905260D01*
X896271Y905260D01*
X896271Y922260D01*
G37*
G36*
X886271Y942259D02*
X902271Y942260D01*
X902271Y925260D01*
X886271Y925259D01*
X886271Y942259D01*
G37*
G54D21*
X900488Y886085D02*
X900488Y900488D01*
X904000Y904000D01*
G54D21*
X904271Y913760D02*
X904271Y904271D01*
X904000Y904000D01*
G54D37*
X837262Y901900D02*
X872412Y901900D01*
X884271Y913760D01*
G54D21*
X844586Y942787D02*
X885244Y942787D01*
X894271Y933760D01*
X1052000Y951000D02*
G54D31*
D03*
X1014000Y844000D02*
G54D31*
D03*
G54D22*
X1052000Y951000D02*
X1052000Y882000D01*
X1014000Y844000D01*
G54D35*
X697300Y541500D02*
X697300Y526700D01*
X741000Y483000D01*
X826000Y483000D01*
X847000Y462000D01*
X867000Y462000D01*
X873000Y468000D01*
G54D35*
X874867Y482567D02*
X874867Y469867D01*
X873000Y468000D01*
G54D35*
X671900Y541500D02*
X671900Y534100D01*
X730000Y476000D01*
X822000Y476000D01*
X843000Y455000D01*
X873000Y455000D01*
X881000Y463000D01*
G54D35*
X881367Y482567D02*
X881367Y463367D01*
X881000Y463000D01*
G54D35*
X646500Y541500D02*
X646500Y536500D01*
X715000Y468000D01*
X819000Y468000D01*
X841000Y446000D01*
X877000Y446000D01*
X887000Y456000D01*
G54D35*
X887866Y482567D02*
X887866Y456866D01*
X887000Y456000D01*
G54D35*
X621100Y541500D02*
X621100Y533900D01*
X695000Y460000D01*
X817000Y460000D01*
X840000Y437000D01*
X881727Y437000D01*
X892864Y448136D01*
G54D35*
X894367Y482567D02*
X894367Y449639D01*
X892864Y448136D01*
G54D35*
X881367Y538567D02*
X881367Y586367D01*
X917000Y622000D01*
G54D35*
X887867Y538567D02*
X887867Y579867D01*
X923000Y615000D01*
G54D35*
X894367Y538567D02*
X894367Y573367D01*
X931000Y610000D01*
X872000Y568000D02*
G54D31*
D03*
X845000Y559000D02*
G54D31*
D03*
G54D35*
X874867Y538567D02*
X874867Y565133D01*
X872000Y568000D01*
G54D35*
X861867Y538567D02*
X861867Y551133D01*
X855000Y558000D01*
G54D35*
X845000Y559000D02*
X854000Y559000D01*
X855000Y558000D01*
X930000Y549000D02*
G54D31*
D03*
X964000Y532000D02*
G54D31*
D03*
X946812Y620085D02*
G54D31*
D03*
G54D35*
X975000Y553000D02*
X934000Y553000D01*
X930000Y549000D01*
G54D35*
X937500Y619500D02*
X937500Y659574D01*
X960812Y682885D01*
G54D35*
X937500Y619500D02*
X937500Y602500D01*
X908000Y573000D01*
G54D35*
X900867Y565867D02*
X908000Y573000D01*
G54D35*
X945000Y606000D02*
X945000Y618274D01*
X946812Y620085D01*
G54D35*
X945000Y606000D02*
X945000Y594000D01*
X916500Y565500D01*
G54D35*
X913867Y538567D02*
X913867Y562867D01*
X916500Y565500D01*
X981168Y527336D02*
G54D20*
D03*
X998168Y527336D02*
G54D20*
D03*
G54D29*
X1084000Y499000D02*
X1188500Y499000D01*
G54D22*
X1243250Y541750D02*
X1233250Y541750D01*
X1203000Y511500D01*
X1103500Y511500D01*
X1096000Y519000D01*
X1072500Y519000D01*
X1064500Y511000D01*
G54D29*
X964000Y532000D02*
X976504Y532000D01*
X981168Y527336D01*
G54D22*
X998168Y527336D02*
X1011336Y527336D01*
X1023000Y539000D01*
G54D22*
X972000Y498000D02*
X1051500Y498000D01*
X1064500Y511000D01*
X941867Y489567D02*
G54D25*
D03*
X941867Y472567D02*
G54D25*
D03*
G54D38*
X586000Y553000D02*
X586000Y529000D01*
G54D38*
X600000Y553000D02*
X600000Y529000D01*
G54D38*
X697300Y541500D02*
X697300Y556700D01*
X693000Y561000D01*
X608000Y561000D01*
X600000Y553000D01*
G54D38*
X722700Y541500D02*
X722700Y566300D01*
X718000Y571000D01*
X604000Y571000D01*
X586000Y553000D01*
G54D38*
X600000Y529000D02*
X600000Y525000D01*
X674000Y451000D01*
X813000Y451000D01*
X834000Y430000D01*
G54D38*
X586000Y529000D02*
X586000Y523000D01*
X668000Y441000D01*
X807000Y441000D01*
X829000Y419000D01*
G54D35*
X768000Y502000D02*
X756000Y502000D01*
X747000Y511000D01*
G54D29*
X1113212Y606685D02*
X1119685Y606685D01*
X1130000Y617000D01*
G54D29*
X1130000Y648000D02*
X1130000Y617000D01*
G54D35*
X1189412Y784485D02*
X1201485Y784485D01*
X1205000Y788000D01*
X1205000Y868000D01*
X1198000Y875000D01*
X1157000Y875000D01*
X1149000Y867000D01*
X1149000Y846000D01*
G54D35*
X1149000Y846000D02*
X1149000Y672000D01*
X1174000Y647000D01*
X1174000Y631000D01*
G54D35*
X1142000Y679000D02*
X1142000Y668000D01*
X1157000Y653000D01*
G54D35*
X1142000Y679000D02*
X1142000Y870000D01*
X1153000Y881000D01*
G54D35*
X1166000Y882000D02*
X1154000Y882000D01*
X1153000Y881000D01*
G54D35*
X1166000Y882000D02*
X1201000Y882000D01*
X1211000Y872000D01*
G54D35*
X1212000Y862000D02*
X1212000Y871000D01*
X1211000Y872000D01*
G54D35*
X1212000Y812000D02*
X1212000Y781674D01*
X1189412Y759085D01*
G54D35*
X1212000Y862000D02*
X1212000Y812000D01*
G54D29*
X1367000Y804000D02*
X1367000Y709000D01*
X1369000Y707000D01*
X1102000Y485000D02*
G54D31*
D03*
X1115000Y485000D02*
G54D31*
D03*
X1128000Y485000D02*
G54D31*
D03*
X1141000Y485000D02*
G54D31*
D03*
X1129000Y535000D02*
G54D31*
D03*
X1142000Y535000D02*
G54D31*
D03*
X1155000Y550000D02*
G54D31*
D03*
G54D38*
X1141000Y485000D02*
X1141000Y440000D01*
X1100000Y399000D01*
G54D38*
X1128000Y485000D02*
X1128000Y441000D01*
X1094000Y407000D01*
G54D38*
X1115000Y485000D02*
X1115000Y441000D01*
X1089000Y415000D01*
G54D38*
X1102000Y485000D02*
X1102000Y446000D01*
X1079000Y423000D01*
G54D29*
X1372000Y496000D02*
X1294000Y496000D01*
X1287684Y502316D01*
G54D29*
X1287684Y515934D02*
X1287684Y502316D01*
X1294000Y496000D01*
G54D22*
X1179000Y523000D02*
X1111000Y523000D01*
X1097000Y537000D01*
G54D22*
X1096000Y573000D02*
X1096000Y538000D01*
X1097000Y537000D01*
X1174000Y631000D02*
G54D31*
D03*
X1170000Y567000D02*
G54D31*
D03*
G54D38*
X1212000Y685000D02*
X1212000Y668000D01*
X1200000Y656000D01*
G54D38*
X1142000Y535000D02*
X1166000Y535000D01*
X1244000Y613000D01*
X1244000Y637000D01*
X1250000Y643000D01*
G54D38*
X1259500Y644000D02*
X1251000Y644000D01*
X1250000Y643000D01*
G54D38*
X1155000Y550000D02*
X1168000Y550000D01*
X1237000Y619000D01*
X1237000Y641000D01*
X1251000Y655000D01*
G54D38*
X1259500Y655000D02*
X1251000Y655000D01*
X1237000Y641000D01*
G54D38*
X1191000Y647000D02*
X1191000Y588000D01*
X1170000Y567000D01*
G54D38*
X1200000Y656000D02*
X1191000Y647000D01*
G54D38*
X1184000Y626000D02*
X1184000Y652000D01*
X1205000Y673000D01*
G54D38*
X1129000Y535000D02*
X1129000Y543000D01*
X1166000Y580000D01*
X1172000Y580000D01*
X1184000Y592000D01*
X1184000Y626000D01*
G54D35*
X1157000Y614000D02*
X1157000Y653000D01*
X1142000Y668000D01*
X1169000Y593000D02*
G54D31*
D03*
G54D29*
X1113212Y606685D02*
X1130315Y606685D01*
X1144000Y593000D01*
X1169000Y593000D01*
X855367Y538567D02*
G54D39*
D03*
X861867Y538567D02*
G54D39*
D03*
X868367Y538567D02*
G54D39*
D03*
X874867Y538567D02*
G54D39*
D03*
X881367Y538567D02*
G54D39*
D03*
X887867Y538567D02*
G54D39*
D03*
X894367Y538567D02*
G54D39*
D03*
X900867Y538567D02*
G54D39*
D03*
X907367Y538567D02*
G54D39*
D03*
X913867Y538567D02*
G54D39*
D03*
X855367Y482567D02*
G54D39*
D03*
X861867Y482567D02*
G54D39*
D03*
X868367Y482567D02*
G54D39*
D03*
X874867Y482567D02*
G54D39*
D03*
X881367Y482567D02*
G54D39*
D03*
X887867Y482567D02*
G54D39*
D03*
X894367Y482567D02*
G54D39*
D03*
X900867Y482567D02*
G54D39*
D03*
X907367Y482567D02*
G54D39*
D03*
X913867Y482567D02*
G54D39*
D03*
X962000Y476000D02*
G54D31*
D03*
G54D35*
X900867Y538567D02*
X900867Y565867D01*
X908000Y573000D01*
G54D35*
X907367Y538567D02*
X907367Y526367D01*
X905000Y524000D01*
X866000Y524000D01*
X861000Y520000D01*
G54D35*
X722700Y541500D02*
X722700Y512300D01*
X744000Y491000D01*
X828000Y491000D01*
G54D35*
X861867Y482567D02*
X861867Y470867D01*
X860000Y469000D01*
X850000Y469000D01*
X841000Y478000D01*
G54D35*
X828000Y491000D02*
X841000Y478000D01*
G54D35*
X907367Y482567D02*
X907367Y495633D01*
X907000Y496000D01*
X861000Y520000D02*
G54D31*
D03*
G54D35*
X856000Y502000D02*
X859000Y499000D01*
X904000Y499000D01*
X907000Y496000D01*
G54D40*
X798900Y541500D02*
X798900Y561100D01*
X760000Y600000D01*
X760000Y663000D01*
X787000Y690000D01*
X825000Y690000D01*
X837262Y702262D01*
X843000Y491000D02*
G54D31*
D03*
X954000Y433000D02*
G54D31*
D03*
G54D38*
X963000Y423000D02*
X944000Y423000D01*
G54D38*
X963000Y415000D02*
X944000Y415000D01*
G54D38*
X963000Y407000D02*
X944000Y407000D01*
G54D38*
X963000Y399000D02*
X944000Y399000D01*
G54D38*
X963000Y423000D02*
X1079000Y423000D01*
X1102000Y446000D01*
G54D35*
X913867Y482567D02*
X913867Y453133D01*
X944000Y423000D01*
G54D38*
X963000Y415000D02*
X1089000Y415000D01*
X1110000Y436000D01*
G54D35*
X900867Y482567D02*
X900867Y452133D01*
X938000Y415000D01*
X944000Y415000D01*
G54D38*
X944000Y407000D02*
X857000Y407000D01*
X834000Y430000D01*
G54D38*
X944000Y399000D02*
X849000Y399000D01*
X829000Y419000D01*
G54D38*
X963000Y407000D02*
X1094000Y407000D01*
X1115000Y428000D01*
G54D38*
X963000Y399000D02*
X1100000Y399000D01*
X1120000Y419000D01*
G54D22*
X954000Y433000D02*
X954000Y447000D01*
X975000Y468000D01*
X1028000Y468000D01*
X1037000Y474000D02*
G54D31*
D03*
G54D38*
X1028000Y468000D02*
X1031000Y468000D01*
X1037000Y474000D01*
X1024000Y520000D02*
G54D31*
D03*
G54D21*
X1023000Y539000D02*
X1023000Y521000D01*
X1024000Y520000D01*
G54D35*
X843000Y491000D02*
X846934Y491000D01*
X855367Y482567D01*
G54D41*
X855367Y538567D02*
X820503Y538567D01*
X817570Y541500D01*
G54D35*
X768000Y502000D02*
X856000Y502000D01*
X859000Y499000D01*
X941867Y525567D02*
G54D25*
D03*
X941867Y508567D02*
G54D25*
D03*
G54D35*
X904000Y499000D02*
X919000Y499000D01*
X925000Y493000D01*
X925000Y478000D01*
X930000Y473000D01*
X941434Y473000D01*
X941867Y472567D01*
G54D29*
X941867Y489567D02*
X941867Y508567D01*
G54D41*
X859000Y510000D02*
X940434Y510000D01*
X941867Y508567D01*
G54D41*
X839000Y538000D02*
X839000Y520000D01*
X849000Y510000D01*
X859000Y510000D01*
G54D29*
X964000Y532000D02*
X964000Y513000D01*
X960000Y509000D01*
X942300Y509000D01*
X941867Y508567D01*
G54D35*
X945000Y476000D02*
X949000Y476000D01*
X952000Y479000D01*
X952000Y481000D01*
X966000Y495000D01*
G54D35*
X972000Y498000D02*
X969000Y498000D01*
X966000Y495000D01*
G54D35*
X905000Y524000D02*
X940300Y524000D01*
X941867Y525567D01*
G54D22*
X1028000Y468000D02*
X1031000Y468000D01*
X1037000Y474000D01*
X1227000Y714000D02*
G54D27*
D03*
X1227000Y686000D02*
G54D27*
D03*
G54D38*
X1237000Y700000D02*
X1217000Y700000D01*
X1227000Y764000D02*
G54D27*
D03*
X1227000Y736000D02*
G54D27*
D03*
G54D38*
X1237000Y750000D02*
X1217000Y750000D01*
G54D38*
X1212000Y685000D02*
X1212000Y695000D01*
X1217000Y700000D01*
G54D38*
X1259500Y677000D02*
X1253000Y677000D01*
X1247000Y683000D01*
X1247000Y690000D01*
X1237000Y700000D01*
G54D38*
X1242500Y666000D02*
X1242500Y675500D01*
X1232000Y686000D01*
G54D38*
X1205000Y673000D02*
X1205000Y745000D01*
X1210000Y750000D01*
X1217000Y750000D01*
G54D38*
X1259500Y699000D02*
X1252000Y699000D01*
X1245000Y706000D01*
X1245000Y747000D01*
X1242000Y750000D01*
X1237000Y750000D01*
G54D22*
X1227000Y736000D02*
X1227000Y714000D01*
X1232000Y843000D02*
G54D31*
D03*
G54D22*
X1227000Y764000D02*
X1227000Y838000D01*
X1232000Y843000D01*
G54D22*
X1310000Y461000D02*
X1234500Y461000D01*
X1210500Y485000D01*
G54D22*
X1179000Y523000D02*
X1185000Y523000D01*
X1224000Y562000D01*
X1250000Y562000D01*
G54D37*
X1038000Y486000D02*
X1047000Y486000D01*
X1058000Y475000D01*
X1081000Y475000D01*
X1084000Y478000D01*
G54D37*
X1038000Y486000D02*
X972000Y486000D01*
X962000Y476000D01*
G54D29*
X1084000Y499000D02*
X1084000Y478000D01*
G54D29*
X1196000Y892000D02*
X1205000Y892000D01*
X1270000Y827000D01*
X1344000Y827000D01*
X1367000Y804000D01*
X1246000Y891000D02*
G54D31*
D03*
X1265000Y924000D02*
G54D31*
D03*
G54D22*
X1265000Y924000D02*
X1265000Y910000D01*
X1246000Y891000D01*
G54D22*
X844000Y962000D02*
X849000Y967000D01*
X1105000Y967000D01*
X1109000Y980000D02*
G54D31*
D03*
G54D22*
X1109000Y980000D02*
X1109000Y971000D01*
X1105000Y967000D01*
G54D29*
X1226612Y934194D02*
X1226612Y956388D01*
X1226000Y957000D01*
G54D29*
X1226612Y934194D02*
X1226612Y902388D01*
X1227000Y902000D01*
G54D29*
X1226612Y934194D02*
X1248806Y934194D01*
X1249000Y934000D01*
G54D21*
X975000Y553000D02*
X934000Y553000D01*
X930000Y549000D01*
X1205000Y642000D02*
G54D31*
D03*
G54D21*
X1205000Y642000D02*
X1205000Y645500D01*
X1225500Y666000D01*
G36*
X330850Y866350D02*
X357850Y866350D01*
X357850Y838350D01*
X330850Y838350D01*
X330850Y866350D01*
G37*
X383650Y852350D02*
G54D42*
D03*
G54D29*
X383650Y852350D02*
X383650Y832350D01*
X388000Y828000D01*
G54D22*
X344350Y852350D02*
X325000Y833000D01*
G54D22*
X861000Y520000D02*
X923000Y520000D01*
X926000Y523000D01*
G54D22*
X941867Y525567D02*
X928567Y525567D01*
X926000Y523000D01*
G54D29*
X865000Y508000D02*
X941300Y508000D01*
X941867Y508567D01*
G36*
X1335184Y506434D02*
X1300184Y506434D01*
X1300184Y571434D01*
X1335184Y571434D01*
X1335184Y506434D01*
G37*
G54D43*
X1335184Y506434D02*
X1300184Y506434D01*
X1300184Y571434D01*
X1335184Y571434D01*
X1335184Y506434D01*
G54D29*
X1272500Y585500D02*
X1246500Y585500D01*
X1246000Y585000D01*
G54D22*
X1210500Y485000D02*
X1210500Y504000D01*
X1203000Y511500D01*
G54D29*
X1188500Y499000D02*
X1188500Y467500D01*
X1265000Y391000D01*
G54D29*
X1243250Y513750D02*
X1243250Y494250D01*
X1243000Y494000D01*
%LPD*%
X960812Y936885D02*
G54D44*
D03*
X960812Y911485D02*
G54D44*
D03*
X960812Y886085D02*
G54D44*
D03*
X960812Y860685D02*
G54D44*
D03*
X960812Y835285D02*
G54D44*
D03*
X960812Y809885D02*
G54D44*
D03*
X960812Y784485D02*
G54D44*
D03*
X960812Y759085D02*
G54D44*
D03*
X960812Y733685D02*
G54D44*
D03*
X960812Y708285D02*
G54D44*
D03*
X960812Y682885D02*
G54D44*
D03*
X960812Y657485D02*
G54D44*
D03*
X960812Y632085D02*
G54D44*
D03*
X960812Y606685D02*
G54D44*
D03*
X960812Y581285D02*
G54D44*
D03*
X1113212Y936885D02*
G54D44*
D03*
X1113212Y911485D02*
G54D44*
D03*
X1113212Y886085D02*
G54D44*
D03*
X1113212Y860685D02*
G54D44*
D03*
X1113212Y835285D02*
G54D44*
D03*
X1113212Y809885D02*
G54D44*
D03*
X1113212Y784485D02*
G54D44*
D03*
X1113212Y759085D02*
G54D44*
D03*
X1113212Y733685D02*
G54D44*
D03*
X1113212Y708285D02*
G54D44*
D03*
X1113212Y682885D02*
G54D44*
D03*
X1113212Y657485D02*
G54D44*
D03*
X1113212Y632085D02*
G54D44*
D03*
X1113212Y606685D02*
G54D44*
D03*
X1113212Y581285D02*
G54D44*
D03*
X700738Y901900D02*
G54D45*
D03*
X700738Y724100D02*
G54D45*
D03*
X837262Y901900D02*
G54D45*
D03*
X837262Y724100D02*
G54D45*
D03*
X649500Y701500D02*
G54D44*
D03*
X649500Y904700D02*
G54D11*
D03*
X509500Y701500D02*
G54D44*
D03*
X509500Y904700D02*
G54D11*
D03*
X541400Y879300D02*
G54D44*
D03*
X566800Y879300D02*
G54D44*
D03*
X592200Y879300D02*
G54D44*
D03*
X617600Y879300D02*
G54D44*
D03*
X1272500Y734500D02*
G54D46*
D03*
X1366000Y577000D02*
G54D47*
D03*
X1272500Y585500D02*
G54D46*
D03*
X1366000Y733000D02*
G54D47*
D03*
X1259500Y655000D02*
G54D48*
D03*
X1259500Y666000D02*
G54D48*
D03*
X1259500Y677000D02*
G54D48*
D03*
X1259500Y688000D02*
G54D48*
D03*
X1259500Y699000D02*
G54D48*
D03*
X1259500Y710000D02*
G54D48*
D03*
X1259500Y721000D02*
G54D48*
D03*
X1259500Y633000D02*
G54D48*
D03*
X1259500Y644000D02*
G54D48*
D03*
G36*
X1376688Y582333D02*
X1376688Y727833D01*
X1282188Y727833D01*
X1279688Y730333D01*
X1272188Y730333D01*
X1272188Y582333D01*
X1376688Y582333D01*
G37*
G54D49*
X1376688Y582333D02*
X1376688Y727833D01*
X1282188Y727833D01*
X1279688Y730333D01*
X1272188Y730333D01*
X1272188Y582333D01*
X1376688Y582333D01*
G54D50*
X1259500Y688000D02*
X1277530Y688000D01*
X1277592Y688063D01*
X1163112Y947894D02*
G54D51*
D03*
X1163112Y922494D02*
G54D51*
D03*
X1183112Y947894D02*
G54D51*
D03*
X1183112Y922494D02*
G54D51*
D03*
X1203112Y947894D02*
G54D51*
D03*
X1203112Y922494D02*
G54D51*
D03*
X1139612Y934194D02*
G54D52*
D03*
X1226612Y934194D02*
G54D52*
D03*
X900488Y886085D02*
G54D53*
D03*
X917488Y886085D02*
G54D53*
D03*
X1164012Y860685D02*
G54D44*
D03*
X1189412Y860685D02*
G54D44*
D03*
X1189412Y835285D02*
G54D44*
D03*
X1164012Y835285D02*
G54D44*
D03*
X1164012Y809885D02*
G54D44*
D03*
X1189412Y809885D02*
G54D44*
D03*
X1189412Y784485D02*
G54D44*
D03*
X1164012Y759085D02*
G54D44*
D03*
X1164012Y784485D02*
G54D44*
D03*
X1189412Y759085D02*
G54D44*
D03*
X1164012Y733685D02*
G54D44*
D03*
X1189412Y733685D02*
G54D44*
D03*
X1189412Y708285D02*
G54D44*
D03*
X1164012Y708285D02*
G54D44*
D03*
X1189412Y682885D02*
G54D44*
D03*
X1164012Y682885D02*
G54D44*
D03*
G54D37*
X1074885Y936885D02*
X1066000Y928000D01*
X1066000Y584000D01*
X1035000Y553000D01*
X975000Y553000D01*
G54D29*
X541400Y879300D02*
X541400Y827400D01*
X473000Y759000D01*
X443000Y759000D01*
X424000Y778000D01*
X275050Y778000D01*
X273750Y779300D01*
X1287684Y515934D02*
G54D54*
D03*
X1287684Y538934D02*
G54D54*
D03*
X1287684Y561934D02*
G54D54*
D03*
X1349684Y538934D02*
G54D55*
D03*
X1270500Y572500D02*
G54D56*
D03*
X1270500Y555500D02*
G54D56*
D03*
G54D29*
X1270500Y538500D02*
X1287250Y538500D01*
X1287684Y538934D01*
X1270500Y533500D02*
G54D56*
D03*
X1270500Y516500D02*
G54D56*
D03*
G54D29*
X1270500Y516500D02*
X1287118Y516500D01*
X1287684Y515934D01*
G36*
X1220000Y672000D02*
X1231000Y672000D01*
X1231000Y660000D01*
X1220000Y660000D01*
X1220000Y672000D01*
G37*
X1242500Y666000D02*
G54D53*
D03*
G54D50*
X1259500Y666000D02*
X1242500Y666000D01*
X1243250Y541750D02*
G54D57*
D03*
X1243250Y513750D02*
G54D57*
D03*
G54D29*
X1270500Y538500D02*
X1248000Y538500D01*
X1243250Y541750D01*
X1088885Y950885D02*
G54D58*
D03*
X1088885Y922885D02*
G54D58*
D03*
G54D37*
X1113212Y936885D02*
X1074885Y936885D01*
G54D40*
X1088885Y950885D02*
X1088885Y965885D01*
X1089000Y966000D01*
G54D40*
X1088885Y922885D02*
X1088885Y691115D01*
X1096000Y684000D01*
G54D40*
X1113212Y682885D02*
X1097115Y682885D01*
X1096000Y684000D01*
G54D29*
X1113212Y657485D02*
X1103485Y657485D01*
X1096000Y650000D01*
X1096000Y538000D01*
G54D29*
X394000Y339000D02*
X1215000Y339000D01*
X1372000Y496000D01*
X1372000Y584000D01*
X211750Y957100D02*
G54D44*
D03*
X235750Y957100D02*
G54D44*
D03*
G54D29*
X211750Y957100D02*
X211750Y949250D01*
X222000Y939000D01*
X244000Y939000D01*
X256000Y927000D01*
X256000Y914000D01*
X261000Y909000D01*
G54D29*
X273750Y906300D02*
X263700Y906300D01*
X261000Y909000D01*
X348000Y808000D02*
G54D56*
D03*
X348000Y791000D02*
G54D56*
D03*
X324652Y944660D02*
G54D59*
D03*
X324652Y894660D02*
G54D59*
D03*
X400652Y944660D02*
G54D59*
D03*
X400652Y894660D02*
G54D59*
D03*
G54D29*
X451550Y931700D02*
X430912Y931700D01*
X422360Y944660D01*
G54D29*
X324652Y894660D02*
X324752Y816752D01*
X287300Y779300D01*
G54D29*
X273750Y779300D02*
X287300Y779300D01*
G54D29*
X400652Y894660D02*
X400652Y894369D01*
X393603Y887321D01*
X331991Y887321D01*
X324652Y894660D01*
G36*
X824795Y973900D02*
X836100Y962578D01*
X824779Y951272D01*
X813473Y962594D01*
X824795Y973900D01*
G37*
G36*
X844594Y954101D02*
X855900Y942779D01*
X844578Y931473D01*
X833272Y942795D01*
X844594Y954101D01*
G37*
G54D37*
X806402Y924402D02*
X849000Y967000D01*
X381300Y369400D02*
G54D45*
D03*
X406700Y369400D02*
G54D45*
D03*
G54D29*
X381300Y351400D02*
X381300Y351700D01*
X394000Y339000D01*
G54D29*
X406700Y369400D02*
X449400Y369400D01*
X571000Y491000D01*
X571000Y656000D01*
X582000Y667000D01*
X373000Y808000D02*
G54D56*
D03*
X373000Y791000D02*
G54D56*
D03*
G54D29*
X348000Y791000D02*
X348000Y779000D01*
G54D29*
X373000Y791000D02*
X373000Y779000D01*
G54D29*
X388000Y828000D02*
X392000Y808000D01*
X415000Y831000D01*
G54D29*
X430912Y931700D02*
X419912Y835912D01*
X415000Y831000D01*
X1157000Y614000D02*
G54D60*
D03*
G54D29*
X1130000Y617000D02*
X1130000Y878000D01*
X1144000Y892000D01*
X1205000Y892000D01*
X1270000Y827000D01*
X1344000Y827000D01*
X1367000Y804000D01*
X1367000Y709000D01*
X1023000Y567000D02*
G54D58*
D03*
X1023000Y539000D02*
G54D58*
D03*
G54D29*
X1048115Y809885D02*
X1054000Y804000D01*
X1054000Y598000D01*
X1023000Y567000D01*
X1310000Y461000D02*
G54D61*
D03*
G54D21*
X1189412Y708285D02*
X1189412Y733685D01*
G54D29*
X649500Y701500D02*
X649500Y859300D01*
X672200Y882000D01*
X764000Y882000D01*
X824402Y942402D01*
G54D29*
X849000Y967000D02*
X844000Y962000D01*
G54D29*
X1074885Y936885D02*
X1066000Y928000D01*
X1066000Y584000D01*
X1039000Y557000D01*
X1084000Y499000D02*
G54D61*
D03*
G54D29*
X700738Y712100D02*
X700738Y692738D01*
X675000Y667000D01*
X582000Y667000D01*
X571000Y656000D01*
G54D29*
X917488Y886085D02*
X960812Y886085D01*
G54D29*
X780000Y966000D02*
X821373Y966000D01*
X824787Y962586D01*
G54D29*
X773500Y947900D02*
X773500Y959500D01*
X780000Y966000D01*
G54D29*
X509500Y904700D02*
X649500Y904700D01*
X525000Y490000D02*
G54D61*
D03*
X340000Y740000D02*
G54D61*
D03*
G54D29*
X340000Y740000D02*
X340000Y771000D01*
X348000Y779000D01*
X349000Y711000D02*
G54D61*
D03*
G54D29*
X349000Y711000D02*
X414000Y711000D01*
X450000Y747000D01*
X587000Y747000D01*
X630000Y704000D01*
G54D29*
X630000Y704000D02*
X630000Y691000D01*
X638000Y683000D01*
X663000Y683000D01*
X670000Y690000D01*
X670000Y841000D01*
X689285Y860285D01*
G54D29*
X960812Y860685D02*
X689285Y860285D01*
X670000Y841000D01*
G54D29*
X960812Y809885D02*
X1048115Y809885D01*
X1054000Y804000D01*
X575000Y826000D02*
G54D61*
D03*
X818000Y615000D02*
G54D61*
D03*
G54D29*
X818000Y615000D02*
X887000Y615000D01*
X906000Y634000D01*
X906000Y750000D01*
X939000Y783000D01*
G54D29*
X960812Y784485D02*
X940485Y784485D01*
X939000Y783000D01*
X528000Y524000D02*
G54D61*
D03*
X399000Y569000D02*
G54D61*
D03*
G54D29*
X399000Y569000D02*
X483000Y569000D01*
X528000Y524000D01*
X785000Y615000D02*
G54D61*
D03*
G54D29*
X785000Y615000D02*
X785000Y625000D01*
X794000Y634000D01*
X886000Y634000D01*
X894000Y642000D01*
X894000Y779000D01*
X947000Y832000D01*
G54D29*
X960812Y835285D02*
X950285Y835285D01*
X947000Y832000D01*
G54D29*
X381300Y369400D02*
X352600Y369400D01*
X352000Y370000D01*
G54D29*
X381300Y369400D02*
X381300Y407300D01*
X382000Y408000D01*
G54D29*
X525000Y490000D02*
X547000Y490000D01*
G54D29*
X525000Y490000D02*
X525000Y505000D01*
G54D29*
X525000Y490000D02*
X525000Y469000D01*
G54D29*
X451550Y931700D02*
X482500Y931700D01*
X510000Y934000D01*
G54D29*
X509500Y904700D02*
X509500Y933500D01*
X510000Y934000D01*
G54D29*
X509500Y904700D02*
X509500Y875500D01*
X510000Y875000D01*
G54D29*
X509500Y904700D02*
X485700Y904700D01*
X485000Y904000D01*
G54D29*
X649500Y904700D02*
X649500Y927500D01*
X649000Y928000D01*
G54D29*
X649500Y904700D02*
X649500Y881500D01*
X649000Y881000D01*
G54D29*
X837262Y901900D02*
X816100Y901900D01*
X816000Y902000D01*
G54D29*
X837262Y901900D02*
X859100Y901900D01*
X861000Y900000D01*
G54D29*
X837262Y901900D02*
X837262Y919738D01*
X837000Y920000D01*
G54D29*
X837262Y901900D02*
X837262Y876738D01*
X838000Y876000D01*
G54D29*
X509500Y701500D02*
X531500Y701500D01*
X532000Y701000D01*
G54D29*
X509500Y701500D02*
X487500Y701500D01*
X486000Y700000D01*
G54D29*
X509500Y701500D02*
X509500Y723500D01*
X511000Y725000D01*
G54D29*
X509500Y701500D02*
X509500Y671500D01*
X507000Y669000D01*
G54D29*
X837262Y724100D02*
X801900Y724100D01*
X797000Y729000D01*
G54D29*
X837262Y724100D02*
X864900Y724100D01*
X867000Y722000D01*
G54D29*
X837262Y724100D02*
X837262Y750738D01*
X835000Y753000D01*
G54D29*
X837262Y724100D02*
X837262Y702262D01*
X836000Y701000D01*
G54D29*
X960812Y657485D02*
X992515Y657485D01*
X994000Y656000D01*
G54D29*
X381300Y369400D02*
X381300Y351700D01*
G54D29*
X1366000Y577000D02*
X1385000Y577000D01*
G54D29*
X1366000Y733000D02*
X1386000Y733000D01*
G54D29*
X1273000Y747000D02*
X1273000Y735000D01*
X1272500Y734500D01*
G54D29*
X1257000Y734000D02*
X1272000Y734000D01*
X1272500Y734500D01*
G54D29*
X649500Y904700D02*
X673700Y904700D01*
X674000Y905000D01*
G54D29*
X798900Y947900D02*
X798900Y940900D01*
X778000Y920000D01*
G54D29*
X674000Y905000D02*
X674000Y912000D01*
X685000Y923000D01*
X775000Y923000D01*
X778000Y920000D01*
G54D29*
X541400Y879300D02*
X541400Y859600D01*
X575000Y826000D01*
G54D29*
X348000Y808000D02*
X348000Y828000D01*
G54D29*
X373000Y808000D02*
X373000Y827000D01*
G54D29*
X388000Y828000D02*
X374000Y828000D01*
X373000Y827000D01*
X349000Y827000D01*
X348000Y828000D01*
G54D29*
X400652Y944660D02*
X422360Y944660D01*
X422700Y945000D01*
G54D29*
X324652Y944660D02*
X304040Y944660D01*
X303700Y945000D01*
G54D29*
X617600Y879300D02*
X617600Y853400D01*
X618000Y853000D01*
X621000Y853000D01*
X649000Y881000D01*
G54D29*
X617600Y879300D02*
X617600Y892600D01*
G54D29*
X617600Y879300D02*
X647300Y879300D01*
X649000Y881000D01*
G54D29*
X381300Y369400D02*
X381300Y448900D01*
X412400Y480000D01*
G54D29*
X525000Y490000D02*
X422400Y490000D01*
X412400Y480000D01*
G54D29*
X798900Y541500D02*
X798900Y514300D01*
X798800Y515200D01*
G54D29*
X817570Y541500D02*
X798900Y541500D01*
G54D29*
X1272500Y585500D02*
X1272500Y573260D01*
G54D29*
X1139612Y934194D02*
X1139612Y954052D01*
X1139660Y954100D01*
G54D29*
X1139612Y934194D02*
X1139612Y907348D01*
X1140300Y906660D01*
G54D29*
X324652Y944660D02*
X400652Y944660D01*
X749590Y514070D02*
G54D53*
D03*
X766590Y514070D02*
G54D53*
D03*
G54D29*
X748100Y541500D02*
X748100Y515560D01*
X749590Y514070D01*
G54D29*
X766590Y514070D02*
X798070Y514070D01*
G54D29*
X273750Y957100D02*
X235750Y957100D01*
X621100Y947900D02*
G54D45*
D03*
X621100Y541500D02*
G54D45*
D03*
X646500Y947900D02*
G54D45*
D03*
X646500Y541500D02*
G54D45*
D03*
X671900Y947900D02*
G54D45*
D03*
X671900Y541500D02*
G54D45*
D03*
X697300Y947900D02*
G54D45*
D03*
X697300Y541500D02*
G54D45*
D03*
X722700Y947900D02*
G54D45*
D03*
X722700Y541500D02*
G54D45*
D03*
X748100Y947900D02*
G54D45*
D03*
X748100Y541500D02*
G54D45*
D03*
X773500Y947900D02*
G54D45*
D03*
X773500Y541500D02*
G54D45*
D03*
X798900Y947900D02*
G54D45*
D03*
X798900Y541500D02*
G54D45*
D03*
G54D62*
X304770Y494334D02*
X304770Y538778D01*
G54D62*
X304770Y512111D02*
X301437Y517667D01*
X294770Y519334D01*
X288103Y517667D01*
X284770Y512111D01*
X284770Y501000D01*
X288103Y495445D01*
X294770Y494334D01*
X301437Y495445D01*
X304770Y501000D01*
G54D62*
X269214Y519334D02*
X255881Y494334D01*
X242547Y519334D01*
G54D62*
X255881Y494334D02*
X259214Y486000D01*
X262547Y483222D01*
X265881Y483222D01*
G54D62*
X210768Y538778D02*
X194101Y516556D01*
X194101Y494334D01*
G54D62*
X194101Y516556D02*
X177435Y538778D01*
G54D62*
X161879Y494334D02*
X161879Y494334D01*
G54D62*
X122990Y494334D02*
X146323Y494334D01*
X146323Y538778D01*
X122990Y538778D01*
G54D62*
X146323Y516556D02*
X122990Y516556D01*
G54D62*
X107434Y494334D02*
X107434Y494334D01*
G54D29*
X273750Y931700D02*
X304700Y931700D01*
X305000Y932000D01*
X451550Y779300D02*
G54D45*
D03*
X451550Y804700D02*
G54D45*
D03*
X451550Y830100D02*
G54D45*
D03*
X451550Y855500D02*
G54D45*
D03*
X451550Y880900D02*
G54D45*
D03*
X451550Y906300D02*
G54D45*
D03*
X451550Y931700D02*
G54D45*
D03*
X451550Y957100D02*
G54D45*
D03*
X273750Y779300D02*
G54D45*
D03*
X273750Y804700D02*
G54D45*
D03*
X273750Y830100D02*
G54D45*
D03*
X273750Y855500D02*
G54D45*
D03*
X273750Y880900D02*
G54D45*
D03*
X273750Y906300D02*
G54D45*
D03*
X273750Y931700D02*
G54D45*
D03*
X273750Y957100D02*
G54D45*
D03*
X273750Y957100D02*
G54D45*
D03*
G54D29*
X303700Y945000D02*
X303700Y932700D01*
X304700Y931700D01*
G54D29*
X1270500Y555500D02*
X1281250Y555500D01*
X1287684Y561934D01*
G54D37*
X1250000Y562000D02*
X1257000Y562000D01*
X1264000Y555000D01*
X1270000Y555000D01*
X1270500Y555500D01*
G54D29*
X1243250Y513750D02*
X1267750Y513750D01*
X1270500Y516500D01*
G54D41*
X960812Y759085D02*
X931085Y759085D01*
X917000Y745000D01*
X917000Y622000D01*
X895000Y600000D01*
G54D41*
X960812Y733685D02*
X938685Y733685D01*
X924000Y719000D01*
X924000Y616000D01*
X902000Y594000D01*
G54D41*
X960812Y708285D02*
X947285Y708285D01*
X931000Y692000D01*
X931000Y610000D01*
X908000Y587000D01*
X884271Y913760D02*
G54D63*
D03*
G36*
X900271Y918260D02*
X908271Y918260D01*
X908271Y909260D01*
X900271Y909260D01*
X900271Y918260D01*
G37*
G36*
X890271Y938260D02*
X898271Y938260D01*
X898271Y929260D01*
X890271Y929260D01*
X890271Y938260D01*
G37*
G54D37*
X900488Y886085D02*
X900488Y900488D01*
X904000Y904000D01*
G54D37*
X904271Y913760D02*
X904271Y904271D01*
X904000Y904000D01*
G54D37*
X837262Y901900D02*
X872412Y901900D01*
X884271Y913760D01*
G54D37*
X844586Y942787D02*
X885244Y942787D01*
X894271Y933760D01*
X1052000Y951000D02*
G54D60*
D03*
X1014000Y844000D02*
G54D60*
D03*
G54D29*
X1052000Y951000D02*
X1052000Y882000D01*
X1014000Y844000D01*
G54D41*
X697300Y541500D02*
X697300Y526700D01*
X741000Y483000D01*
X826000Y483000D01*
X847000Y462000D01*
X867000Y462000D01*
X873000Y468000D01*
G54D41*
X874867Y482567D02*
X874867Y469867D01*
X873000Y468000D01*
G54D41*
X671900Y541500D02*
X671900Y534100D01*
X730000Y476000D01*
X822000Y476000D01*
X843000Y455000D01*
X873000Y455000D01*
X881000Y463000D01*
G54D41*
X881367Y482567D02*
X881367Y463367D01*
X881000Y463000D01*
G54D41*
X646500Y541500D02*
X646500Y536500D01*
X715000Y468000D01*
X819000Y468000D01*
X841000Y446000D01*
X877000Y446000D01*
X887000Y456000D01*
G54D41*
X887866Y482567D02*
X887866Y456866D01*
X887000Y456000D01*
G54D41*
X621100Y541500D02*
X621100Y533900D01*
X695000Y460000D01*
X817000Y460000D01*
X840000Y437000D01*
X881727Y437000D01*
X892864Y448136D01*
G54D41*
X894367Y482567D02*
X894367Y449639D01*
X892864Y448136D01*
G54D41*
X881367Y538567D02*
X881367Y586367D01*
X917000Y622000D01*
G54D41*
X887867Y538567D02*
X887867Y579867D01*
X923000Y615000D01*
G54D41*
X894367Y538567D02*
X894367Y573367D01*
X931000Y610000D01*
X872000Y568000D02*
G54D60*
D03*
X845000Y559000D02*
G54D60*
D03*
G54D41*
X874867Y538567D02*
X874867Y565133D01*
X872000Y568000D01*
G54D41*
X861867Y538567D02*
X861867Y551133D01*
X855000Y558000D01*
G54D41*
X845000Y559000D02*
X854000Y559000D01*
X855000Y558000D01*
X930000Y549000D02*
G54D60*
D03*
X964000Y532000D02*
G54D60*
D03*
X946812Y620085D02*
G54D60*
D03*
G54D41*
X975000Y553000D02*
X934000Y553000D01*
X930000Y549000D01*
G54D41*
X937500Y619500D02*
X937500Y659574D01*
X960812Y682885D01*
G54D41*
X937500Y619500D02*
X937500Y602500D01*
X908000Y573000D01*
G54D41*
X900867Y565867D02*
X908000Y573000D01*
G54D41*
X945000Y606000D02*
X945000Y618274D01*
X946812Y620085D01*
G54D41*
X945000Y606000D02*
X945000Y594000D01*
X916500Y565500D01*
G54D41*
X913867Y538567D02*
X913867Y562867D01*
X916500Y565500D01*
X981168Y527336D02*
G54D53*
D03*
X998168Y527336D02*
G54D53*
D03*
G54D29*
X1084000Y499000D02*
X1188500Y499000D01*
G54D29*
X1243250Y541750D02*
X1233250Y541750D01*
X1203000Y511500D01*
X1103500Y511500D01*
X1096000Y519000D01*
X1072500Y519000D01*
X1064500Y511000D01*
G54D29*
X964000Y532000D02*
X976504Y532000D01*
X981168Y527336D01*
G54D29*
X998168Y527336D02*
X1011336Y527336D01*
X1023000Y539000D01*
G54D29*
X972000Y498000D02*
X1051500Y498000D01*
X1064500Y511000D01*
X941867Y489567D02*
G54D56*
D03*
X941867Y472567D02*
G54D56*
D03*
G54D64*
X586000Y553000D02*
X586000Y529000D01*
G54D64*
X600000Y553000D02*
X600000Y529000D01*
G54D64*
X697300Y541500D02*
X697300Y556700D01*
X693000Y561000D01*
X608000Y561000D01*
X600000Y553000D01*
G54D64*
X722700Y541500D02*
X722700Y566300D01*
X718000Y571000D01*
X604000Y571000D01*
X586000Y553000D01*
G54D64*
X600000Y529000D02*
X600000Y525000D01*
X674000Y451000D01*
X813000Y451000D01*
X834000Y430000D01*
G54D64*
X586000Y529000D02*
X586000Y523000D01*
X668000Y441000D01*
X807000Y441000D01*
X829000Y419000D01*
G54D41*
X768000Y502000D02*
X756000Y502000D01*
X747000Y511000D01*
G54D29*
X1113212Y606685D02*
X1119685Y606685D01*
X1130000Y617000D01*
G54D29*
X1130000Y648000D02*
X1130000Y617000D01*
G54D41*
X1189412Y784485D02*
X1201485Y784485D01*
X1205000Y788000D01*
X1205000Y868000D01*
X1198000Y875000D01*
X1157000Y875000D01*
X1149000Y867000D01*
X1149000Y846000D01*
G54D41*
X1149000Y846000D02*
X1149000Y672000D01*
X1174000Y647000D01*
X1174000Y631000D01*
G54D41*
X1142000Y679000D02*
X1142000Y668000D01*
X1157000Y653000D01*
G54D41*
X1142000Y679000D02*
X1142000Y870000D01*
X1153000Y881000D01*
G54D41*
X1166000Y882000D02*
X1154000Y882000D01*
X1153000Y881000D01*
G54D41*
X1166000Y882000D02*
X1201000Y882000D01*
X1211000Y872000D01*
G54D41*
X1212000Y862000D02*
X1212000Y871000D01*
X1211000Y872000D01*
G54D41*
X1212000Y812000D02*
X1212000Y781674D01*
X1189412Y759085D01*
G54D41*
X1212000Y862000D02*
X1212000Y812000D01*
G54D29*
X1367000Y804000D02*
X1367000Y709000D01*
X1369000Y707000D01*
X1102000Y485000D02*
G54D60*
D03*
X1115000Y485000D02*
G54D60*
D03*
X1128000Y485000D02*
G54D60*
D03*
X1141000Y485000D02*
G54D60*
D03*
X1129000Y535000D02*
G54D60*
D03*
X1142000Y535000D02*
G54D60*
D03*
X1155000Y550000D02*
G54D60*
D03*
G54D64*
X1141000Y485000D02*
X1141000Y440000D01*
X1100000Y399000D01*
G54D64*
X1128000Y485000D02*
X1128000Y441000D01*
X1094000Y407000D01*
G54D64*
X1115000Y485000D02*
X1115000Y441000D01*
X1089000Y415000D01*
G54D64*
X1102000Y485000D02*
X1102000Y446000D01*
X1079000Y423000D01*
G54D29*
X1372000Y496000D02*
X1294000Y496000D01*
X1287684Y502316D01*
G54D29*
X1287684Y515934D02*
X1287684Y502316D01*
X1294000Y496000D01*
G54D29*
X1179000Y523000D02*
X1111000Y523000D01*
X1097000Y537000D01*
G54D29*
X1096000Y573000D02*
X1096000Y538000D01*
X1097000Y537000D01*
X1174000Y631000D02*
G54D60*
D03*
X1170000Y567000D02*
G54D60*
D03*
G54D64*
X1212000Y685000D02*
X1212000Y668000D01*
X1200000Y656000D01*
G54D64*
X1142000Y535000D02*
X1166000Y535000D01*
X1244000Y613000D01*
X1244000Y637000D01*
X1250000Y643000D01*
G54D64*
X1259500Y644000D02*
X1251000Y644000D01*
X1250000Y643000D01*
G54D64*
X1155000Y550000D02*
X1168000Y550000D01*
X1237000Y619000D01*
X1237000Y641000D01*
X1251000Y655000D01*
G54D64*
X1259500Y655000D02*
X1251000Y655000D01*
X1237000Y641000D01*
G54D64*
X1191000Y647000D02*
X1191000Y588000D01*
X1170000Y567000D01*
G54D64*
X1200000Y656000D02*
X1191000Y647000D01*
G54D64*
X1184000Y626000D02*
X1184000Y652000D01*
X1205000Y673000D01*
G54D64*
X1129000Y535000D02*
X1129000Y543000D01*
X1166000Y580000D01*
X1172000Y580000D01*
X1184000Y592000D01*
X1184000Y626000D01*
G54D41*
X1157000Y614000D02*
X1157000Y653000D01*
X1142000Y668000D01*
X1169000Y593000D02*
G54D60*
D03*
G54D29*
X1113212Y606685D02*
X1130315Y606685D01*
X1144000Y593000D01*
X1169000Y593000D01*
X855367Y538567D02*
G54D65*
D03*
X861867Y538567D02*
G54D65*
D03*
X868367Y538567D02*
G54D65*
D03*
X874867Y538567D02*
G54D65*
D03*
X881367Y538567D02*
G54D65*
D03*
X887867Y538567D02*
G54D65*
D03*
X894367Y538567D02*
G54D65*
D03*
X900867Y538567D02*
G54D65*
D03*
X907367Y538567D02*
G54D65*
D03*
X913867Y538567D02*
G54D65*
D03*
X855367Y482567D02*
G54D65*
D03*
X861867Y482567D02*
G54D65*
D03*
X868367Y482567D02*
G54D65*
D03*
X874867Y482567D02*
G54D65*
D03*
X881367Y482567D02*
G54D65*
D03*
X887867Y482567D02*
G54D65*
D03*
X894367Y482567D02*
G54D65*
D03*
X900867Y482567D02*
G54D65*
D03*
X907367Y482567D02*
G54D65*
D03*
X913867Y482567D02*
G54D65*
D03*
X962000Y476000D02*
G54D60*
D03*
G54D41*
X900867Y538567D02*
X900867Y565867D01*
X908000Y573000D01*
G54D41*
X907367Y538567D02*
X907367Y526367D01*
X905000Y524000D01*
X866000Y524000D01*
X861000Y520000D01*
G54D41*
X722700Y541500D02*
X722700Y512300D01*
X744000Y491000D01*
X828000Y491000D01*
G54D41*
X861867Y482567D02*
X861867Y470867D01*
X860000Y469000D01*
X850000Y469000D01*
X841000Y478000D01*
G54D41*
X828000Y491000D02*
X841000Y478000D01*
G54D41*
X907367Y482567D02*
X907367Y495633D01*
X907000Y496000D01*
X861000Y520000D02*
G54D60*
D03*
G54D41*
X856000Y502000D02*
X859000Y499000D01*
X904000Y499000D01*
X907000Y496000D01*
G54D40*
X798900Y541500D02*
X798900Y561100D01*
X760000Y600000D01*
X760000Y663000D01*
X787000Y690000D01*
X825000Y690000D01*
X837262Y702262D01*
X843000Y491000D02*
G54D60*
D03*
X954000Y433000D02*
G54D60*
D03*
G54D64*
X963000Y423000D02*
X944000Y423000D01*
G54D64*
X963000Y415000D02*
X944000Y415000D01*
G54D64*
X963000Y407000D02*
X944000Y407000D01*
G54D64*
X963000Y399000D02*
X944000Y399000D01*
G54D64*
X963000Y423000D02*
X1079000Y423000D01*
X1102000Y446000D01*
G54D41*
X913867Y482567D02*
X913867Y453133D01*
X944000Y423000D01*
G54D64*
X963000Y415000D02*
X1089000Y415000D01*
X1110000Y436000D01*
G54D41*
X900867Y482567D02*
X900867Y452133D01*
X938000Y415000D01*
X944000Y415000D01*
G54D64*
X944000Y407000D02*
X857000Y407000D01*
X834000Y430000D01*
G54D64*
X944000Y399000D02*
X849000Y399000D01*
X829000Y419000D01*
G54D64*
X963000Y407000D02*
X1094000Y407000D01*
X1115000Y428000D01*
G54D64*
X963000Y399000D02*
X1100000Y399000D01*
X1120000Y419000D01*
G54D29*
X954000Y433000D02*
X954000Y447000D01*
X975000Y468000D01*
X1028000Y468000D01*
X1037000Y474000D02*
G54D60*
D03*
G54D64*
X1028000Y468000D02*
X1031000Y468000D01*
X1037000Y474000D01*
X1024000Y520000D02*
G54D60*
D03*
G54D37*
X1023000Y539000D02*
X1023000Y521000D01*
X1024000Y520000D01*
G54D41*
X843000Y491000D02*
X846934Y491000D01*
X855367Y482567D01*
G54D41*
X855367Y538567D02*
X820503Y538567D01*
X817570Y541500D01*
G54D41*
X768000Y502000D02*
X856000Y502000D01*
X859000Y499000D01*
X941867Y525567D02*
G54D56*
D03*
X941867Y508567D02*
G54D56*
D03*
G54D41*
X904000Y499000D02*
X919000Y499000D01*
X925000Y493000D01*
X925000Y478000D01*
X930000Y473000D01*
X941434Y473000D01*
X941867Y472567D01*
G54D29*
X941867Y489567D02*
X941867Y508567D01*
G54D41*
X859000Y510000D02*
X940434Y510000D01*
X941867Y508567D01*
G54D41*
X839000Y538000D02*
X839000Y520000D01*
X849000Y510000D01*
X859000Y510000D01*
G54D29*
X964000Y532000D02*
X964000Y513000D01*
X960000Y509000D01*
X942300Y509000D01*
X941867Y508567D01*
G54D41*
X945000Y476000D02*
X949000Y476000D01*
X952000Y479000D01*
X952000Y481000D01*
X966000Y495000D01*
G54D41*
X972000Y498000D02*
X969000Y498000D01*
X966000Y495000D01*
G54D41*
X905000Y524000D02*
X940300Y524000D01*
X941867Y525567D01*
G54D29*
X1028000Y468000D02*
X1031000Y468000D01*
X1037000Y474000D01*
X1227000Y714000D02*
G54D58*
D03*
X1227000Y686000D02*
G54D58*
D03*
G54D64*
X1237000Y700000D02*
X1217000Y700000D01*
X1227000Y764000D02*
G54D58*
D03*
X1227000Y736000D02*
G54D58*
D03*
G54D64*
X1237000Y750000D02*
X1217000Y750000D01*
G54D64*
X1212000Y685000D02*
X1212000Y695000D01*
X1217000Y700000D01*
G54D64*
X1259500Y677000D02*
X1253000Y677000D01*
X1247000Y683000D01*
X1247000Y690000D01*
X1237000Y700000D01*
G54D64*
X1242500Y666000D02*
X1242500Y675500D01*
X1232000Y686000D01*
G54D64*
X1205000Y673000D02*
X1205000Y745000D01*
X1210000Y750000D01*
X1217000Y750000D01*
G54D64*
X1259500Y699000D02*
X1252000Y699000D01*
X1245000Y706000D01*
X1245000Y747000D01*
X1242000Y750000D01*
X1237000Y750000D01*
G54D29*
X1227000Y736000D02*
X1227000Y714000D01*
X1232000Y843000D02*
G54D60*
D03*
G54D29*
X1227000Y764000D02*
X1227000Y838000D01*
X1232000Y843000D01*
G54D29*
X1310000Y461000D02*
X1234500Y461000D01*
X1210500Y485000D01*
G54D29*
X1179000Y523000D02*
X1185000Y523000D01*
X1224000Y562000D01*
X1250000Y562000D01*
G54D37*
X1038000Y486000D02*
X1047000Y486000D01*
X1058000Y475000D01*
X1081000Y475000D01*
X1084000Y478000D01*
G54D37*
X1038000Y486000D02*
X972000Y486000D01*
X962000Y476000D01*
G54D29*
X1084000Y499000D02*
X1084000Y478000D01*
G54D29*
X1196000Y892000D02*
X1205000Y892000D01*
X1270000Y827000D01*
X1344000Y827000D01*
X1367000Y804000D01*
X1246000Y891000D02*
G54D60*
D03*
X1265000Y924000D02*
G54D60*
D03*
G54D29*
X1265000Y924000D02*
X1265000Y910000D01*
X1246000Y891000D01*
G54D29*
X844000Y962000D02*
X849000Y967000D01*
X1105000Y967000D01*
X1109000Y980000D02*
G54D60*
D03*
G54D29*
X1109000Y980000D02*
X1109000Y971000D01*
X1105000Y967000D01*
G54D29*
X1226612Y934194D02*
X1226612Y956388D01*
X1226000Y957000D01*
G54D29*
X1226612Y934194D02*
X1226612Y902388D01*
X1227000Y902000D01*
G54D29*
X1226612Y934194D02*
X1248806Y934194D01*
X1249000Y934000D01*
G54D37*
X975000Y553000D02*
X934000Y553000D01*
X930000Y549000D01*
X1205000Y642000D02*
G54D60*
D03*
G54D37*
X1205000Y642000D02*
X1205000Y645500D01*
X1225500Y666000D01*
G36*
X334850Y862350D02*
X353850Y862350D01*
X353850Y842350D01*
X334850Y842350D01*
X334850Y862350D01*
G37*
X383650Y852350D02*
G54D20*
D03*
G54D29*
X383650Y852350D02*
X383650Y832350D01*
X388000Y828000D01*
G54D29*
X344350Y852350D02*
X325000Y833000D01*
G54D29*
X861000Y520000D02*
X923000Y520000D01*
X926000Y523000D01*
G54D29*
X941867Y525567D02*
X928567Y525567D01*
X926000Y523000D01*
G54D29*
X865000Y508000D02*
X941300Y508000D01*
X941867Y508567D01*
G36*
X1335184Y506434D02*
X1300184Y506434D01*
X1300184Y571434D01*
X1335184Y571434D01*
X1335184Y506434D01*
G37*
G54D66*
X1335184Y506434D02*
X1300184Y506434D01*
X1300184Y571434D01*
X1335184Y571434D01*
X1335184Y506434D01*
G54D29*
X1272500Y585500D02*
X1246500Y585500D01*
X1246000Y585000D01*
G54D29*
X1210500Y485000D02*
X1210500Y504000D01*
X1203000Y511500D01*
G54D29*
X1188500Y499000D02*
X1188500Y467500D01*
X1265000Y391000D01*
G54D29*
X1243250Y513750D02*
X1243250Y494250D01*
X1243000Y494000D01*
M02*
